<?xml version="1.0" standalone="no" ?>
<!DOCTYPE svg PUBLIC "-//W3C//DTD SVG 1.1//EN" "http://www.w3.org/Graphics/SVG/1.1/DTD/svg11.dtd">
<svg width="3510px" height="19585px" xmlns="http://www.w3.org/2000/svg" version="1.1" >
	<polygon points="50,250 50,450 130,450 130,4400 210,4400 210,4750 575,4750 575,11100 850,11100 850,12850 1125,12850 1125,15375 1400,15375 1400,17125 1675,17125 1675,18225 1895,18225 1895,18325 2005,18325 2005,18925 2115,18925 2115,19225 2225,19225 2225,19425 2335,19425 2335,19525 2415,19525 2415,19575 2495,19575 2835,19575 2835,19525 2495,19525 2445,19525 2445,19525 2445,19475 2445,19475 2495,19475 2835,19475 2835,19425 2495,19425 2415,19425 2415,19475 2365,19475 2365,19425 2365,19375 2365,19325 2415,19325 2415,19375 2495,19375 2835,19375 2835,19325 2495,19325 2445,19325 2445,19325 2445,19275 2445,19275 2495,19275 2835,19275 2835,19225 2495,19225 2415,19225 2415,19275 2335,19275 2335,19375 2285,19375 2285,19225 2285,19175 2285,19025 2335,19025 2335,19125 2415,19125 2415,19175 2495,19175 2835,19175 2835,19125 2495,19125 2445,19125 2445,19125 2445,19075 2445,19075 2495,19075 2835,19075 2835,19025 2495,19025 2415,19025 2415,19075 2365,19075 2365,19025 2365,18975 2365,18975 2415,18975 2835,18975 2835,18925 2415,18925 2335,18925 2335,18975 2225,18975 2225,19175 2175,19175 2175,18925 2175,18875 2175,18525 2225,18525 2225,18625 2335,18625 2335,18725 2445,18725 2445,18825 2555,18825 2555,18875 2665,18875 2835,18875 2835,18825 2665,18825 2615,18825 2615,18825 2615,18775 2615,18775 2665,18775 2835,18775 2835,18725 2665,18725 2555,18725 2555,18775 2505,18775 2505,18725 2505,18675 2505,18675 2555,18675 2835,18675 2835,18625 2555,18625 2445,18625 2445,18675 2395,18675 2395,18625 2395,18575 2395,18575 2445,18575 2835,18575 2835,18525 2445,18525 2335,18525 2335,18575 2285,18575 2285,18525 2285,18475 2285,18425 2335,18425 2335,18475 2445,18475 2835,18475 2835,18425 2445,18425 2395,18425 2395,18425 2395,18375 2395,18375 2445,18375 2835,18375 2835,18325 2445,18325 2335,18325 2335,18375 2225,18375 2225,18475 2115,18475 2115,18875 2065,18875 2065,18325 2065,18275 2065,18275 2115,18275 2835,18275 2835,18225 2115,18225 2005,18225 2005,18275 1955,18275 1955,18225 1955,18175 1955,17625 2005,17625 2005,17725 2115,17725 2115,17925 2195,17925 2195,18025 2275,18025 2275,18125 2355,18125 2355,18175 2435,18175 2835,18175 2835,18125 2435,18125 2385,18125 2385,18125 2385,18075 2385,18075 2435,18075 2835,18075 2835,18025 2435,18025 2355,18025 2355,18075 2305,18075 2305,18025 2305,17975 2305,17975 2355,17975 2835,17975 2835,17925 2355,17925 2275,17925 2275,17975 2225,17975 2225,17925 2225,17875 2225,17825 2275,17825 2275,17875 2355,17875 2835,17875 2835,17825 2355,17825 2305,17825 2305,17825 2305,17775 2305,17775 2355,17775 2835,17775 2835,17725 2355,17725 2275,17725 2275,17775 2195,17775 2195,17875 2145,17875 2145,17725 2145,17675 2145,17675 2195,17675 2835,17675 2835,17625 2195,17625 2115,17625 2115,17675 2065,17675 2065,17625 2065,17575 2065,17325 2115,17325 2115,17425 2195,17425 2195,17525 2275,17525 2275,17575 2355,17575 2835,17575 2835,17525 2355,17525 2305,17525 2305,17525 2305,17475 2305,17475 2355,17475 2835,17475 2835,17425 2355,17425 2275,17425 2275,17475 2225,17475 2225,17425 2225,17375 2225,17375 2275,17375 2835,17375 2835,17325 2275,17325 2195,17325 2195,17375 2145,17375 2145,17325 2145,17275 2145,17225 2195,17225 2195,17275 2275,17275 2835,17275 2835,17225 2275,17225 2225,17225 2225,17225 2225,17175 2225,17175 2275,17175 2835,17175 2835,17125 2275,17125 2195,17125 2195,17175 2115,17175 2115,17275 2005,17275 2005,17575 1895,17575 1895,18175 1795,18175 1795,17125 1795,17025 1795,15975 1895,15975 1895,16075 2005,16075 2005,16175 2085,16175 2085,16475 2165,16475 2165,16575 2245,16575 2245,16675 2325,16675 2325,16875 2405,16875 2405,16975 2485,16975 2485,17025 2565,17025 2835,17025 2835,16975 2565,16975 2515,16975 2515,16975 2515,16925 2515,16925 2565,16925 2835,16925 2835,16875 2565,16875 2485,16875 2485,16925 2435,16925 2435,16875 2435,16825 2435,16775 2485,16775 2485,16825 2565,16825 2835,16825 2835,16775 2565,16775 2515,16775 2515,16775 2515,16725 2515,16725 2565,16725 2835,16725 2835,16675 2565,16675 2485,16675 2485,16725 2405,16725 2405,16825 2355,16825 2355,16675 2355,16625 2355,16625 2405,16625 2835,16625 2835,16575 2405,16575 2325,16575 2325,16625 2275,16625 2275,16575 2275,16525 2275,16525 2325,16525 2835,16525 2835,16475 2325,16475 2245,16475 2245,16525 2195,16525 2195,16475 2195,16425 2195,16275 2245,16275 2245,16375 2325,16375 2325,16425 2405,16425 2835,16425 2835,16375 2405,16375 2355,16375 2355,16375 2355,16325 2355,16325 2405,16325 2835,16325 2835,16275 2405,16275 2325,16275 2325,16325 2275,16325 2275,16275 2275,16225 2275,16225 2325,16225 2835,16225 2835,16175 2325,16175 2245,16175 2245,16225 2165,16225 2165,16425 2115,16425 2115,16175 2115,16125 2115,16125 2165,16125 2835,16125 2835,16075 2165,16075 2085,16075 2085,16125 2035,16125 2035,16075 2035,16025 2035,16025 2085,16025 2835,16025 2835,15975 2085,15975 2005,15975 2005,16025 1955,16025 1955,15975 1955,15925 1955,15475 2005,15475 2005,15675 2085,15675 2085,15775 2165,15775 2165,15875 2245,15875 2245,15925 2325,15925 2835,15925 2835,15875 2325,15875 2275,15875 2275,15875 2275,15825 2275,15825 2325,15825 2835,15825 2835,15775 2325,15775 2245,15775 2245,15825 2195,15825 2195,15775 2195,15725 2195,15725 2245,15725 2835,15725 2835,15675 2245,15675 2165,15675 2165,15725 2115,15725 2115,15675 2115,15625 2115,15575 2165,15575 2165,15625 2245,15625 2835,15625 2835,15575 2245,15575 2195,15575 2195,15575 2195,15525 2195,15525 2245,15525 2835,15525 2835,15475 2245,15475 2165,15475 2165,15525 2085,15525 2085,15625 2035,15625 2035,15475 2035,15425 2035,15425 2085,15425 2835,15425 2835,15375 2085,15375 2005,15375 2005,15425 1895,15425 1895,15925 1675,15925 1675,17025 1550,17025 1550,15375 1550,15250 1550,13350 1675,13350 1675,13625 1895,13625 1895,14375 2115,14375 2115,14700 2280,14700 2280,15000 2445,15000 2445,15100 2555,15100 2555,15200 2665,15200 2665,15250 2775,15250 2835,15250 2835,15200 2775,15200 2725,15200 2725,15200 2725,15150 2725,15150 2775,15150 2835,15150 2835,15100 2775,15100 2665,15100 2665,15150 2615,15150 2615,15100 2615,15050 2615,15050 2665,15050 2835,15050 2835,15000 2665,15000 2555,15000 2555,15050 2505,15050 2505,15000 2505,14950 2505,14800 2555,14800 2555,14900 2665,14900 2665,14950 2745,14950 2835,14950 2835,14900 2745,14900 2695,14900 2695,14900 2695,14850 2695,14850 2745,14850 2835,14850 2835,14800 2745,14800 2665,14800 2665,14850 2615,14850 2615,14800 2615,14750 2615,14750 2665,14750 2835,14750 2835,14700 2665,14700 2555,14700 2555,14750 2445,14750 2445,14950 2370,14950 2370,14700 2370,14625 2370,14475 2445,14475 2445,14575 2555,14575 2555,14625 2635,14625 2835,14625 2835,14575 2635,14575 2585,14575 2585,14575 2585,14525 2585,14525 2635,14525 2835,14525 2835,14475 2635,14475 2555,14475 2555,14525 2505,14525 2505,14475 2505,14425 2505,14425 2555,14425 2835,14425 2835,14375 2555,14375 2445,14375 2445,14425 2280,14425 2280,14625 2205,14625 2205,14375 2205,14300 2205,13950 2280,13950 2280,14050 2445,14050 2445,14150 2555,14150 2555,14250 2635,14250 2635,14300 2715,14300 2835,14300 2835,14250 2715,14250 2665,14250 2665,14250 2665,14200 2665,14200 2715,14200 2835,14200 2835,14150 2715,14150 2635,14150 2635,14200 2585,14200 2585,14150 2585,14100 2585,14100 2635,14100 2835,14100 2835,14050 2635,14050 2555,14050 2555,14100 2505,14100 2505,14050 2505,14000 2505,14000 2555,14000 2835,14000 2835,13950 2555,13950 2445,13950 2445,14000 2370,14000 2370,13950 2370,13875 2370,13725 2445,13725 2445,13825 2555,13825 2555,13875 2665,13875 2835,13875 2835,13825 2665,13825 2615,13825 2615,13825 2615,13775 2615,13775 2665,13775 2835,13775 2835,13725 2665,13725 2555,13725 2555,13775 2505,13775 2505,13725 2505,13675 2505,13675 2555,13675 2835,13675 2835,13625 2555,13625 2445,13625 2445,13675 2280,13675 2280,13875 2115,13875 2115,14300 2015,14300 2015,13625 2015,13525 2015,13475 2115,13475 2115,13525 2280,13525 2835,13525 2835,13475 2280,13475 2205,13475 2205,13475 2205,13400 2205,13400 2280,13400 2835,13400 2835,13350 2280,13350 2115,13350 2115,13400 1895,13400 1895,13525 1795,13525 1795,13350 1795,13250 1795,13000 1895,13000 1895,13100 2115,13100 2115,13200 2225,13200 2225,13250 2305,13250 2835,13250 2835,13200 2305,13200 2255,13200 2255,13200 2255,13150 2255,13150 2305,13150 2835,13150 2835,13100 2305,13100 2225,13100 2225,13150 2175,13150 2175,13100 2175,13050 2175,13050 2225,13050 2835,13050 2835,13000 2225,13000 2115,13000 2115,13050 2015,13050 2015,13000 2015,12900 2015,12900 2115,12900 2835,12900 2835,12850 2115,12850 1895,12850 1895,12900 1675,12900 1675,13250 1400,13250 1400,15250 1275,15250 1275,12850 1275,12725 1275,11975 1400,11975 1400,12375 1675,12375 1675,12475 1785,12475 1785,12575 1865,12575 1865,12675 1945,12675 1945,12725 2025,12725 2835,12725 2835,12675 2025,12675 1975,12675 1975,12675 1975,12625 1975,12625 2025,12625 2835,12625 2835,12575 2025,12575 1945,12575 1945,12625 1895,12625 1895,12575 1895,12525 1895,12525 1945,12525 2835,12525 2835,12475 1945,12475 1865,12475 1865,12525 1815,12525 1815,12475 1815,12425 1815,12425 1865,12425 2835,12425 2835,12375 1865,12375 1785,12375 1785,12425 1735,12425 1735,12375 1735,12325 1735,12175 1785,12175 1785,12275 1865,12275 1865,12325 1945,12325 2835,12325 2835,12275 1945,12275 1895,12275 1895,12275 1895,12225 1895,12225 1945,12225 2835,12225 2835,12175 1945,12175 1865,12175 1865,12225 1815,12225 1815,12175 1815,12125 1815,12075 1865,12075 1865,12125 1945,12125 2835,12125 2835,12075 1945,12075 1895,12075 1895,12075 1895,12025 1895,12025 1945,12025 2835,12025 2835,11975 1945,11975 1865,11975 1865,12025 1785,12025 1785,12125 1675,12125 1675,12325 1550,12325 1550,11975 1550,11850 1550,11300 1675,11300 1675,11400 1785,11400 1785,11700 1895,11700 1895,11800 2005,11800 2005,11850 2115,11850 2835,11850 2835,11800 2115,11800 2065,11800 2065,11800 2065,11750 2065,11750 2115,11750 2835,11750 2835,11700 2115,11700 2005,11700 2005,11750 1955,11750 1955,11700 1955,11650 1955,11650 2005,11650 2835,11650 2835,11400 2005,11400 1895,11400 1895,11650 1845,11650 1845,11400 1845,11350 1845,11350 1895,11350 2835,11350 2835,11300 1895,11300 1785,11300 1785,11350 1735,11350 1735,11300 1735,11250 1735,11200 1785,11200 1785,11250 1895,11250 2835,11250 2835,11200 1895,11200 1845,11200 1845,11200 1845,11150 1845,11150 1895,11150 2835,11150 2835,11100 1895,11100 1785,11100 1785,11150 1675,11150 1675,11250 1400,11250 1400,11850 1125,11850 1125,12725 1000,12725 1000,11100 1000,10975 1000,6225 1125,6225 1125,7625 1400,7625 1400,8625 1480,8625 1480,9025 1560,9025 1560,9925 1640,9925 1640,10125 1720,10125 1720,10225 1800,10225 1800,10525 1880,10525 1880,10625 1960,10625 1960,10725 2040,10725 2040,10825 2120,10825 2120,10925 2200,10925 2200,10975 2280,10975 2835,10975 2835,10925 2280,10925 2230,10925 2230,10925 2230,10875 2230,10875 2280,10875 2835,10875 2835,10825 2280,10825 2200,10825 2200,10875 2150,10875 2150,10825 2150,10775 2150,10775 2200,10775 2835,10775 2835,10725 2200,10725 2120,10725 2120,10775 2070,10775 2070,10725 2070,10675 2070,10675 2120,10675 2835,10675 2835,10625 2120,10625 2040,10625 2040,10675 1990,10675 1990,10625 1990,10575 1990,10575 2040,10575 2835,10575 2835,10525 2040,10525 1960,10525 1960,10575 1910,10575 1910,10525 1910,10475 1910,10325 1960,10325 1960,10425 2040,10425 2040,10475 2120,10475 2835,10475 2835,10425 2120,10425 2070,10425 2070,10425 2070,10375 2070,10375 2120,10375 2835,10375 2835,10325 2120,10325 2040,10325 2040,10375 1990,10375 1990,10325 1990,10275 1990,10275 2040,10275 2835,10275 2835,10225 2040,10225 1960,10225 1960,10275 1880,10275 1880,10475 1830,10475 1830,10225 1830,10175 1830,10175 1880,10175 2835,10175 2835,10125 1880,10125 1800,10125 1800,10175 1750,10175 1750,10125 1750,10075 1750,10025 1800,10025 1800,10075 1880,10075 2835,10075 2835,10025 1880,10025 1830,10025 1830,10025 1830,9975 1830,9975 1880,9975 2835,9975 2835,9925 1880,9925 1800,9925 1800,9975 1720,9975 1720,10075 1670,10075 1670,9925 1670,9875 1670,9125 1720,9125 1720,9425 1800,9425 1800,9625 1880,9625 1880,9725 1960,9725 1960,9825 2040,9825 2040,9875 2120,9875 2835,9875 2835,9825 2120,9825 2070,9825 2070,9825 2070,9775 2070,9775 2120,9775 2835,9775 2835,9725 2120,9725 2040,9725 2040,9775 1990,9775 1990,9725 1990,9675 1990,9675 2040,9675 2835,9675 2835,9625 2040,9625 1960,9625 1960,9675 1910,9675 1910,9625 1910,9575 1910,9525 1960,9525 1960,9575 2040,9575 2835,9575 2835,9525 2040,9525 1990,9525 1990,9525 1990,9475 1990,9475 2040,9475 2835,9475 2835,9425 2040,9425 1960,9425 1960,9475 1880,9475 1880,9575 1830,9575 1830,9425 1830,9375 1830,9225 1880,9225 1880,9325 1960,9325 1960,9375 2040,9375 2835,9375 2835,9325 2040,9325 1990,9325 1990,9325 1990,9275 1990,9275 2040,9275 2835,9275 2835,9225 2040,9225 1960,9225 1960,9275 1910,9275 1910,9225 1910,9175 1910,9175 1960,9175 2835,9175 2835,9125 1960,9125 1880,9125 1880,9175 1800,9175 1800,9375 1750,9375 1750,9125 1750,9075 1750,9075 1800,9075 2835,9075 2835,9025 1800,9025 1720,9025 1720,9075 1640,9075 1640,9875 1590,9875 1590,9025 1590,8975 1590,8825 1640,8825 1640,8925 1720,8925 1720,8975 1800,8975 2835,8975 2835,8925 1800,8925 1750,8925 1750,8925 1750,8875 1750,8875 1800,8875 2835,8875 2835,8825 1800,8825 1720,8825 1720,8875 1670,8875 1670,8825 1670,8775 1670,8725 1720,8725 1720,8775 1800,8775 2835,8775 2835,8725 1800,8725 1750,8725 1750,8725 1750,8675 1750,8675 1800,8675 2835,8675 2835,8625 1800,8625 1720,8625 1720,8675 1640,8675 1640,8775 1560,8775 1560,8975 1510,8975 1510,8625 1510,8575 1510,8025 1560,8025 1560,8325 1640,8325 1640,8425 1720,8425 1720,8525 1800,8525 1800,8575 1880,8575 2835,8575 2835,8525 1880,8525 1830,8525 1830,8525 1830,8475 1830,8475 1880,8475 2835,8475 2835,8425 1880,8425 1800,8425 1800,8475 1750,8475 1750,8425 1750,8375 1750,8375 1800,8375 2835,8375 2835,8325 1800,8325 1720,8325 1720,8375 1670,8375 1670,8325 1670,8275 1670,8125 1720,8125 1720,8225 1800,8225 1800,8275 1880,8275 2835,8275 2835,8225 1880,8225 1830,8225 1830,8225 1830,8175 1830,8175 1880,8175 2835,8175 2835,8125 1880,8125 1800,8125 1800,8175 1750,8175 1750,8125 1750,8075 1750,8075 1800,8075 2835,8075 2835,8025 1800,8025 1720,8025 1720,8075 1640,8075 1640,8275 1590,8275 1590,8025 1590,7975 1590,7725 1640,7725 1640,7825 1720,7825 1720,7925 1800,7925 1800,7975 1880,7975 2835,7975 2835,7925 1880,7925 1830,7925 1830,7925 1830,7875 1830,7875 1880,7875 2835,7875 2835,7825 1880,7825 1800,7825 1800,7875 1750,7875 1750,7825 1750,7775 1750,7775 1800,7775 2835,7775 2835,7725 1800,7725 1720,7725 1720,7775 1670,7775 1670,7725 1670,7675 1670,7675 1720,7675 2835,7675 2835,7625 1720,7625 1640,7625 1640,7675 1560,7675 1560,7975 1480,7975 1480,8575 1430,8575 1430,7625 1430,7575 1430,6625 1480,6625 1480,7025 1560,7025 1560,7225 1640,7225 1640,7325 1720,7325 1720,7425 1800,7425 1800,7525 1880,7525 1880,7575 1960,7575 2835,7575 2835,7525 1960,7525 1910,7525 1910,7525 1910,7475 1910,7475 1960,7475 2835,7475 2835,7425 1960,7425 1880,7425 1880,7475 1830,7475 1830,7425 1830,7375 1830,7375 1880,7375 2835,7375 2835,7325 1880,7325 1800,7325 1800,7375 1750,7375 1750,7325 1750,7275 1750,7275 1800,7275 2835,7275 2835,7225 1800,7225 1720,7225 1720,7275 1670,7275 1670,7225 1670,7175 1670,7125 1720,7125 1720,7175 1800,7175 2835,7175 2835,7125 1800,7125 1750,7125 1750,7125 1750,7075 1750,7075 1800,7075 2835,7075 2835,7025 1800,7025 1720,7025 1720,7075 1640,7075 1640,7175 1590,7175 1590,7025 1590,6975 1590,6825 1640,6825 1640,6925 1720,6925 1720,6975 1800,6975 2835,6975 2835,6925 1800,6925 1750,6925 1750,6925 1750,6875 1750,6875 1800,6875 2835,6875 2835,6825 1800,6825 1720,6825 1720,6875 1670,6875 1670,6825 1670,6775 1670,6725 1720,6725 1720,6775 1800,6775 2835,6775 2835,6725 1800,6725 1750,6725 1750,6725 1750,6675 1750,6675 1800,6675 2835,6675 2835,6625 1800,6625 1720,6625 1720,6675 1640,6675 1640,6775 1560,6775 1560,6975 1510,6975 1510,6625 1510,6575 1510,6325 1560,6325 1560,6425 1640,6425 1640,6525 1720,6525 1720,6575 1800,6575 2835,6575 2835,6525 1800,6525 1750,6525 1750,6525 1750,6475 1750,6475 1800,6475 2835,6475 2835,6425 1800,6425 1720,6425 1720,6475 1670,6475 1670,6425 1670,6375 1670,6375 1720,6375 2835,6375 2835,6325 1720,6325 1640,6325 1640,6375 1590,6375 1590,6325 1590,6275 1590,6275 1640,6275 2835,6275 2835,6225 1640,6225 1560,6225 1560,6275 1480,6275 1480,6575 1400,6575 1400,7575 1275,7575 1275,6225 1275,6100 1275,5350 1400,5350 1400,5650 1480,5650 1480,5850 1560,5850 1560,5950 1640,5950 1640,6050 1720,6050 1720,6100 1800,6100 2835,6100 2835,6050 1800,6050 1750,6050 1750,6050 1750,6000 1750,6000 1800,6000 2835,6000 2835,5950 1800,5950 1720,5950 1720,6000 1670,6000 1670,5950 1670,5900 1670,5900 1720,5900 2835,5900 2835,5850 1720,5850 1640,5850 1640,5900 1590,5900 1590,5850 1590,5800 1590,5750 1640,5750 1640,5800 1720,5800 2835,5800 2835,5750 1720,5750 1670,5750 1670,5750 1670,5700 1670,5700 1720,5700 2835,5700 2835,5650 1720,5650 1640,5650 1640,5700 1560,5700 1560,5800 1510,5800 1510,5650 1510,5600 1510,5450 1560,5450 1560,5550 1640,5550 1640,5600 1720,5600 2835,5600 2835,5550 1720,5550 1670,5550 1670,5550 1670,5500 1670,5500 1720,5500 2835,5500 2835,5450 1720,5450 1640,5450 1640,5500 1590,5500 1590,5450 1590,5400 1590,5400 1640,5400 2835,5400 2835,5350 1640,5350 1560,5350 1560,5400 1480,5400 1480,5600 1430,5600 1430,5350 1430,5300 1430,4950 1480,4950 1480,5150 1560,5150 1560,5250 1640,5250 1640,5300 1720,5300 2835,5300 2835,5250 1720,5250 1670,5250 1670,5250 1670,5200 1670,5200 1720,5200 2835,5200 2835,5150 1720,5150 1640,5150 1640,5200 1590,5200 1590,5150 1590,5100 1590,5050 1640,5050 1640,5100 1720,5100 2835,5100 2835,5050 1720,5050 1670,5050 1670,5050 1670,5000 1670,5000 1720,5000 2835,5000 2835,4950 1720,4950 1640,4950 1640,5000 1560,5000 1560,5100 1510,5100 1510,4950 1510,4900 1510,4850 1560,4850 1560,4900 1640,4900 2835,4900 2835,4850 1640,4850 1590,4850 1590,4850 1590,4800 1590,4800 1640,4800 2835,4800 2835,4750 1640,4750 1560,4750 1560,4800 1480,4800 1480,4900 1400,4900 1400,5300 1125,5300 1125,6100 850,6100 850,10975 725,10975 725,4750 725,4625 725,4575 850,4575 850,4625 1125,4625 2835,4625 2835,4575 1125,4575 1000,4575 1000,4575 1000,4450 1000,4450 1125,4450 2835,4450 2835,4400 1125,4400 850,4400 850,4450 575,4450 575,4625 450,4625 450,4400 450,4275 450,1625 575,1625 575,1725 850,1725 850,3025 960,3025 960,3125 1070,3125 1070,3425 1180,3425 1180,3525 1260,3525 1260,3725 1340,3725 1340,3825 1420,3825 1420,4025 1500,4025 1500,4125 1580,4125 1580,4225 1660,4225 1660,4275 1740,4275 2835,4275 2835,4225 1740,4225 1690,4225 1690,4225 1690,4175 1690,4175 1740,4175 2835,4175 2835,4125 1740,4125 1660,4125 1660,4175 1610,4175 1610,4125 1610,4075 1610,4075 1660,4075 2835,4075 2835,4025 1660,4025 1580,4025 1580,4075 1530,4075 1530,4025 1530,3975 1530,3925 1580,3925 1580,3975 1660,3975 2835,3975 2835,3925 1660,3925 1610,3925 1610,3925 1610,3875 1610,3875 1660,3875 2835,3875 2835,3825 1660,3825 1580,3825 1580,3875 1500,3875 1500,3975 1450,3975 1450,3825 1450,3775 1450,3775 1500,3775 2835,3775 2835,3725 1500,3725 1420,3725 1420,3775 1370,3775 1370,3725 1370,3675 1370,3625 1420,3625 1420,3675 1500,3675 2835,3675 2835,3625 1500,3625 1450,3625 1450,3625 1450,3575 1450,3575 1500,3575 2835,3575 2835,3525 1500,3525 1420,3525 1420,3575 1340,3575 1340,3675 1290,3675 1290,3525 1290,3475 1290,3475 1340,3475 2835,3475 2835,3425 1340,3425 1260,3425 1260,3475 1210,3475 1210,3425 1210,3375 1210,3225 1260,3225 1260,3325 1340,3325 1340,3375 1420,3375 2835,3375 2835,3325 1420,3325 1370,3325 1370,3325 1370,3275 1370,3275 1420,3275 2835,3275 2835,3225 1420,3225 1340,3225 1340,3275 1290,3275 1290,3225 1290,3175 1290,3175 1340,3175 2835,3175 2835,3125 1340,3125 1260,3125 1260,3175 1180,3175 1180,3375 1130,3375 1130,3125 1130,3075 1130,3075 1180,3075 2835,3075 2835,3025 1180,3025 1070,3025 1070,3075 1020,3075 1020,3025 1020,2975 1020,2225 1070,2225 1070,2525 1180,2525 1180,2625 1290,2625 1290,2725 1400,2725 1400,2825 1480,2825 1480,2925 1560,2925 1560,2975 1640,2975 2835,2975 2835,2925 1640,2925 1590,2925 1590,2925 1590,2875 1590,2875 1640,2875 2835,2875 2835,2825 1640,2825 1560,2825 1560,2875 1510,2875 1510,2825 1510,2775 1510,2775 1560,2775 2835,2775 2835,2725 1560,2725 1480,2725 1480,2775 1430,2775 1430,2725 1430,2675 1430,2675 1480,2675 2835,2675 2835,2625 1480,2625 1400,2625 1400,2675 1350,2675 1350,2625 1350,2575 1350,2575 1400,2575 2835,2575 2835,2525 1400,2525 1290,2525 1290,2575 1240,2575 1240,2525 1240,2475 1240,2325 1290,2325 1290,2425 1400,2425 1400,2475 1510,2475 2835,2475 2835,2425 1510,2425 1460,2425 1460,2425 1460,2375 1460,2375 1510,2375 2835,2375 2835,2325 1510,2325 1400,2325 1400,2375 1350,2375 1350,2325 1350,2275 1350,2275 1400,2275 2835,2275 2835,2225 1400,2225 1290,2225 1290,2275 1180,2275 1180,2475 1130,2475 1130,2225 1130,2175 1130,1825 1180,1825 1180,2025 1290,2025 1290,2125 1370,2125 1370,2175 1450,2175 2835,2175 2835,2125 1450,2125 1400,2125 1400,2125 1400,2075 1400,2075 1450,2075 2835,2075 2835,2025 1450,2025 1370,2025 1370,2075 1320,2075 1320,2025 1320,1975 1320,1925 1370,1925 1370,1975 1450,1975 2835,1975 2835,1925 1450,1925 1400,1925 1400,1925 1400,1875 1400,1875 1450,1875 2835,1875 2835,1825 1450,1825 1370,1825 1370,1875 1290,1875 1290,1975 1240,1975 1240,1825 1240,1775 1240,1775 1290,1775 2835,1775 2835,1725 1290,1725 1180,1725 1180,1775 1070,1775 1070,2175 960,2175 960,2975 910,2975 910,1725 910,1675 910,1675 960,1675 2835,1675 2835,1625 960,1625 850,1625 850,1675 725,1675 725,1625 725,1500 725,950 850,950 850,1150 960,1150 960,1250 1070,1250 1070,1350 1150,1350 1150,1450 1230,1450 1230,1500 1310,1500 2835,1500 2835,1450 1310,1450 1260,1450 1260,1450 1260,1400 1260,1400 1310,1400 2835,1400 2835,1350 1310,1350 1230,1350 1230,1400 1180,1400 1180,1350 1180,1300 1180,1300 1230,1300 2835,1300 2835,1250 1230,1250 1150,1250 1150,1300 1100,1300 1100,1250 1100,1200 1100,1200 1150,1200 2835,1200 2835,1150 1150,1150 1070,1150 1070,1200 1020,1200 1020,1150 1020,1100 1020,1050 1070,1050 1070,1100 1150,1100 2835,1100 2835,1050 1150,1050 1100,1050 1100,1050 1100,1000 1100,1000 1150,1000 2835,1000 2835,950 1150,950 1070,950 1070,1000 960,1000 960,1100 910,1100 910,950 910,900 910,550 960,550 960,750 1070,750 1070,850 1180,850 1180,900 1290,900 2835,900 2835,850 1290,850 1240,850 1240,850 1240,800 1240,800 1290,800 2835,800 2835,750 1290,750 1180,750 1180,800 1130,800 1130,750 1130,700 1130,650 1180,650 1180,700 1290,700 2835,700 2835,650 1290,650 1240,650 1240,650 1240,600 1240,600 1290,600 2835,600 2835,550 1290,550 1180,550 1180,600 1070,600 1070,700 1020,700 1020,550 1020,500 1020,500 1070,500 2835,500 2835,450 1070,450 960,450 960,500 850,500 850,900 575,900 575,1500 210,1500 210,4275 160,4275 160,450 160,400 160,350 210,350 210,400 290,400 2835,400 2835,350 290,350 240,350 240,350 240,300 240,300 290,300 2835,300 2835,250 290,250 210,250 210,300 130,300 130,400 80,400 80,250 80,200 80,150 130,150 130,200 210,200 2835,200 2835,150 210,150 160,150 160,150 160,100 160,100 210,100 2835,100 2835,50 210,50 130,50 130,100 50,100 50,200 " fill="rgb(255,255,255)" stroke-width="10" stroke="rgb(120,120,120)" />
	<text x="2757" y="19507" fill="rgb(0,0,0)" font-size="24" font-family="Verdana" >macNig</text>
	<text x="2757" y="19407" fill="rgb(0,0,0)" font-size="24" font-family="Verdana" >macOrc</text>
	<text x="2757" y="19307" fill="rgb(0,0,0)" font-size="24" font-family="Verdana" >macMau</text>
	<text x="2757" y="19207" fill="rgb(0,0,0)" font-size="24" font-family="Verdana" >macTon</text>
	<text x="2757" y="19107" fill="rgb(0,0,0)" font-size="24" font-family="Verdana" >macNem</text>
	<text x="2757" y="19007" fill="rgb(0,0,0)" font-size="24" font-family="Verdana" >macSil</text>
	<text x="2757" y="18907" fill="rgb(0,0,0)" font-size="24" font-family="Verdana" >macSib</text>
	<text x="2757" y="18807" fill="rgb(0,0,0)" font-size="24" font-family="Verdana" >macMul</text>
	<text x="2757" y="18707" fill="rgb(0,0,0)" font-size="24" font-family="Verdana" >macFus</text>
	<text x="2757" y="18607" fill="rgb(0,0,0)" font-size="24" font-family="Verdana" >macCyc</text>
	<text x="2757" y="18507" fill="rgb(0,0,0)" font-size="24" font-family="Verdana" >macFas</text>
	<text x="2757" y="18407" fill="rgb(0,0,0)" font-size="24" font-family="Verdana" >macArc</text>
	<text x="2757" y="18307" fill="rgb(0,0,0)" font-size="24" font-family="Verdana" >macThi</text>
	<text x="2757" y="18207" fill="rgb(0,0,0)" font-size="24" font-family="Verdana" >macSyl</text>
	<text x="2757" y="18107" fill="rgb(0,0,0)" font-size="24" font-family="Verdana" >papHam</text>
	<text x="2757" y="18007" fill="rgb(0,0,0)" font-size="24" font-family="Verdana" >papAnu</text>
	<text x="2757" y="17907" fill="rgb(0,0,0)" font-size="24" font-family="Verdana" >papPap</text>
	<text x="2757" y="17807" fill="rgb(0,0,0)" font-size="24" font-family="Verdana" >lopAte</text>
	<text x="2757" y="17707" fill="rgb(0,0,0)" font-size="24" font-family="Verdana" >lopAlb</text>
	<text x="2757" y="17607" fill="rgb(0,0,0)" font-size="24" font-family="Verdana" >theGel</text>
	<text x="2757" y="17507" fill="rgb(0,0,0)" font-size="24" font-family="Verdana" >cerAgi</text>
	<text x="2757" y="17407" fill="rgb(0,0,0)" font-size="24" font-family="Verdana" >cerChr</text>
	<text x="2757" y="17307" fill="rgb(0,0,0)" font-size="24" font-family="Verdana" >cerTor</text>
	<text x="2757" y="17207" fill="rgb(0,0,0)" font-size="24" font-family="Verdana" >manLeu</text>
	<text x="2757" y="17107" fill="rgb(0,0,0)" font-size="24" font-family="Verdana" >manSph</text>
	<text x="2757" y="16957" fill="rgb(0,0,0)" font-size="24" font-family="Verdana" >cerMit</text>
	<text x="2757" y="16857" fill="rgb(0,0,0)" font-size="24" font-family="Verdana" >cerAlb</text>
	<text x="2757" y="16757" fill="rgb(0,0,0)" font-size="24" font-family="Verdana" >cerCep</text>
	<text x="2757" y="16657" fill="rgb(0,0,0)" font-size="24" font-family="Verdana" >cerAsc</text>
	<text x="2757" y="16557" fill="rgb(0,0,0)" font-size="24" font-family="Verdana" >cerPet</text>
	<text x="2757" y="16457" fill="rgb(0,0,0)" font-size="24" font-family="Verdana" >cerDia</text>
	<text x="2757" y="16357" fill="rgb(0,0,0)" font-size="24" font-family="Verdana" >cerWol</text>
	<text x="2757" y="16257" fill="rgb(0,0,0)" font-size="24" font-family="Verdana" >cerMon</text>
	<text x="2757" y="16157" fill="rgb(0,0,0)" font-size="24" font-family="Verdana" >cerNeg</text>
	<text x="2757" y="16057" fill="rgb(0,0,0)" font-size="24" font-family="Verdana" >cerHam</text>
	<text x="2757" y="15957" fill="rgb(0,0,0)" font-size="24" font-family="Verdana" >mioOgo</text>
	<text x="2757" y="15857" fill="rgb(0,0,0)" font-size="24" font-family="Verdana" >chlAet</text>
	<text x="2757" y="15757" fill="rgb(0,0,0)" font-size="24" font-family="Verdana" >chlSab</text>
	<text x="2757" y="15657" fill="rgb(0,0,0)" font-size="24" font-family="Verdana" >chlCyn</text>
	<text x="2757" y="15557" fill="rgb(0,0,0)" font-size="24" font-family="Verdana" >eryPat</text>
	<text x="2757" y="15457" fill="rgb(0,0,0)" font-size="24" font-family="Verdana" >cerLho</text>
	<text x="2757" y="15357" fill="rgb(0,0,0)" font-size="24" font-family="Verdana" >allNig</text>
	<text x="2757" y="15182" fill="rgb(0,0,0)" font-size="24" font-family="Verdana" >traFra</text>
	<text x="2757" y="15082" fill="rgb(0,0,0)" font-size="24" font-family="Verdana" >traDel</text>
	<text x="2757" y="14982" fill="rgb(0,0,0)" font-size="24" font-family="Verdana" >traHat</text>
	<text x="2757" y="14882" fill="rgb(0,0,0)" font-size="24" font-family="Verdana" >traObs</text>
	<text x="2757" y="14782" fill="rgb(0,0,0)" font-size="24" font-family="Verdana" >traPha</text>
	<text x="2757" y="14682" fill="rgb(0,0,0)" font-size="24" font-family="Verdana" >traAur</text>
	<text x="2757" y="14557" fill="rgb(0,0,0)" font-size="24" font-family="Verdana" >semHec</text>
	<text x="2757" y="14457" fill="rgb(0,0,0)" font-size="24" font-family="Verdana" >semEnt</text>
	<text x="2757" y="14357" fill="rgb(0,0,0)" font-size="24" font-family="Verdana" >traVet</text>
	<text x="2757" y="14232" fill="rgb(0,0,0)" font-size="24" font-family="Verdana" >pygCin</text>
	<text x="2757" y="14132" fill="rgb(0,0,0)" font-size="24" font-family="Verdana" >pygNem</text>
	<text x="2757" y="14032" fill="rgb(0,0,0)" font-size="24" font-family="Verdana" >pygNig</text>
	<text x="2757" y="13932" fill="rgb(0,0,0)" font-size="24" font-family="Verdana" >nasLar</text>
	<text x="2757" y="13807" fill="rgb(0,0,0)" font-size="24" font-family="Verdana" >rhiRox</text>
	<text x="2757" y="13707" fill="rgb(0,0,0)" font-size="24" font-family="Verdana" >rhiBie</text>
	<text x="2757" y="13607" fill="rgb(0,0,0)" font-size="24" font-family="Verdana" >rhiBre</text>
	<text x="2757" y="13457" fill="rgb(0,0,0)" font-size="24" font-family="Verdana" >preMel</text>
	<text x="2757" y="13332" fill="rgb(0,0,0)" font-size="24" font-family="Verdana" >preCom</text>
	<text x="2757" y="13182" fill="rgb(0,0,0)" font-size="24" font-family="Verdana" >colGue</text>
	<text x="2757" y="13082" fill="rgb(0,0,0)" font-size="24" font-family="Verdana" >colPol</text>
	<text x="2757" y="12982" fill="rgb(0,0,0)" font-size="24" font-family="Verdana" >colAng</text>
	<text x="2757" y="12832" fill="rgb(0,0,0)" font-size="24" font-family="Verdana" >pilTep</text>
	<text x="2757" y="12657" fill="rgb(0,0,0)" font-size="24" font-family="Verdana" >hylMue</text>
	<text x="2757" y="12557" fill="rgb(0,0,0)" font-size="24" font-family="Verdana" >hylAgi</text>
	<text x="2757" y="12457" fill="rgb(0,0,0)" font-size="24" font-family="Verdana" >hylLar</text>
	<text x="2757" y="12357" fill="rgb(0,0,0)" font-size="24" font-family="Verdana" >symSyn</text>
	<text x="2757" y="12257" fill="rgb(0,0,0)" font-size="24" font-family="Verdana" >nomLeu</text>
	<text x="2757" y="12157" fill="rgb(0,0,0)" font-size="24" font-family="Verdana" >nomSik</text>
	<text x="2757" y="12057" fill="rgb(0,0,0)" font-size="24" font-family="Verdana" >nomGab</text>
	<text x="2757" y="11957" fill="rgb(0,0,0)" font-size="24" font-family="Verdana" >nomCon</text>
	<text x="2757" y="11782" fill="rgb(0,0,0)" font-size="24" font-family="Verdana" >panTro</text>
	<text x="2757" y="11682" fill="rgb(0,0,0)" font-size="24" font-family="Verdana" >panPan</text>
	<text x="2757" y="11382" fill="rgb(0,0,0)" font-size="24" font-family="Verdana" >homSap</text>
	<text x="2757" y="11282" fill="rgb(0,0,0)" font-size="24" font-family="Verdana" >gorGor</text>
	<text x="2757" y="11182" fill="rgb(0,0,0)" font-size="24" font-family="Verdana" >ponPyg</text>
	<text x="2757" y="11082" fill="rgb(0,0,0)" font-size="24" font-family="Verdana" >ponAbe</text>
	<text x="2757" y="10907" fill="rgb(0,0,0)" font-size="24" font-family="Verdana" >calJac</text>
	<text x="2757" y="10807" fill="rgb(0,0,0)" font-size="24" font-family="Verdana" >calPen</text>
	<text x="2757" y="10707" fill="rgb(0,0,0)" font-size="24" font-family="Verdana" >calKuh</text>
	<text x="2757" y="10607" fill="rgb(0,0,0)" font-size="24" font-family="Verdana" >calGeo</text>
	<text x="2757" y="10507" fill="rgb(0,0,0)" font-size="24" font-family="Verdana" >calAur</text>
	<text x="2757" y="10407" fill="rgb(0,0,0)" font-size="24" font-family="Verdana" >micArg</text>
	<text x="2757" y="10307" fill="rgb(0,0,0)" font-size="24" font-family="Verdana" >micHum</text>
	<text x="2757" y="10207" fill="rgb(0,0,0)" font-size="24" font-family="Verdana" >cebPyg</text>
	<text x="2757" y="10107" fill="rgb(0,0,0)" font-size="24" font-family="Verdana" >calGoe</text>
	<text x="2757" y="10007" fill="rgb(0,0,0)" font-size="24" font-family="Verdana" >leoRos</text>
	<text x="2757" y="9907" fill="rgb(0,0,0)" font-size="24" font-family="Verdana" >leoChr</text>
	<text x="2757" y="9807" fill="rgb(0,0,0)" font-size="24" font-family="Verdana" >sagMar</text>
	<text x="2757" y="9707" fill="rgb(0,0,0)" font-size="24" font-family="Verdana" >sagBic</text>
	<text x="2757" y="9607" fill="rgb(0,0,0)" font-size="24" font-family="Verdana" >sagMid</text>
	<text x="2757" y="9507" fill="rgb(0,0,0)" font-size="24" font-family="Verdana" >sagOed</text>
	<text x="2757" y="9407" fill="rgb(0,0,0)" font-size="24" font-family="Verdana" >sagGeo</text>
	<text x="2757" y="9307" fill="rgb(0,0,0)" font-size="24" font-family="Verdana" >sagMys</text>
	<text x="2757" y="9207" fill="rgb(0,0,0)" font-size="24" font-family="Verdana" >sagLab</text>
	<text x="2757" y="9107" fill="rgb(0,0,0)" font-size="24" font-family="Verdana" >sagImp</text>
	<text x="2757" y="9007" fill="rgb(0,0,0)" font-size="24" font-family="Verdana" >sagFus</text>
	<text x="2757" y="8907" fill="rgb(0,0,0)" font-size="24" font-family="Verdana" >aotAza</text>
	<text x="2757" y="8807" fill="rgb(0,0,0)" font-size="24" font-family="Verdana" >aotNan</text>
	<text x="2757" y="8707" fill="rgb(0,0,0)" font-size="24" font-family="Verdana" >aotTri</text>
	<text x="2757" y="8607" fill="rgb(0,0,0)" font-size="24" font-family="Verdana" >aotLem</text>
	<text x="2757" y="8507" fill="rgb(0,0,0)" font-size="24" font-family="Verdana" >cebXan</text>
	<text x="2757" y="8407" fill="rgb(0,0,0)" font-size="24" font-family="Verdana" >cebRob</text>
	<text x="2757" y="8307" fill="rgb(0,0,0)" font-size="24" font-family="Verdana" >cebApe</text>
	<text x="2757" y="8207" fill="rgb(0,0,0)" font-size="24" font-family="Verdana" >cebCap</text>
	<text x="2757" y="8107" fill="rgb(0,0,0)" font-size="24" font-family="Verdana" >cebAlb</text>
	<text x="2757" y="8007" fill="rgb(0,0,0)" font-size="24" font-family="Verdana" >cebOli</text>
	<text x="2757" y="7907" fill="rgb(0,0,0)" font-size="24" font-family="Verdana" >saiOer</text>
	<text x="2757" y="7807" fill="rgb(0,0,0)" font-size="24" font-family="Verdana" >saiSci</text>
	<text x="2757" y="7707" fill="rgb(0,0,0)" font-size="24" font-family="Verdana" >saiUst</text>
	<text x="2757" y="7607" fill="rgb(0,0,0)" font-size="24" font-family="Verdana" >saiBol</text>
	<text x="2757" y="7507" fill="rgb(0,0,0)" font-size="24" font-family="Verdana" >ateBel</text>
	<text x="2757" y="7407" fill="rgb(0,0,0)" font-size="24" font-family="Verdana" >ateGeo</text>
	<text x="2757" y="7307" fill="rgb(0,0,0)" font-size="24" font-family="Verdana" >ateHyb</text>
	<text x="2757" y="7207" fill="rgb(0,0,0)" font-size="24" font-family="Verdana" >ateFus</text>
	<text x="2757" y="7107" fill="rgb(0,0,0)" font-size="24" font-family="Verdana" >ateCha</text>
	<text x="2757" y="7007" fill="rgb(0,0,0)" font-size="24" font-family="Verdana" >atePan</text>
	<text x="2757" y="6907" fill="rgb(0,0,0)" font-size="24" font-family="Verdana" >braHyp</text>
	<text x="2757" y="6807" fill="rgb(0,0,0)" font-size="24" font-family="Verdana" >braAra</text>
	<text x="2757" y="6707" fill="rgb(0,0,0)" font-size="24" font-family="Verdana" >lagLag</text>
	<text x="2757" y="6607" fill="rgb(0,0,0)" font-size="24" font-family="Verdana" >lagCan</text>
	<text x="2757" y="6507" fill="rgb(0,0,0)" font-size="24" font-family="Verdana" >aloSar</text>
	<text x="2757" y="6407" fill="rgb(0,0,0)" font-size="24" font-family="Verdana" >aloCar</text>
	<text x="2757" y="6307" fill="rgb(0,0,0)" font-size="24" font-family="Verdana" >aloBel</text>
	<text x="2757" y="6207" fill="rgb(0,0,0)" font-size="24" font-family="Verdana" >aloPal</text>
	<text x="2757" y="6032" fill="rgb(0,0,0)" font-size="24" font-family="Verdana" >calMol</text>
	<text x="2757" y="5932" fill="rgb(0,0,0)" font-size="24" font-family="Verdana" >calBru</text>
	<text x="2757" y="5832" fill="rgb(0,0,0)" font-size="24" font-family="Verdana" >calCup</text>
	<text x="2757" y="5732" fill="rgb(0,0,0)" font-size="24" font-family="Verdana" >calCal</text>
	<text x="2757" y="5632" fill="rgb(0,0,0)" font-size="24" font-family="Verdana" >calDon</text>
	<text x="2757" y="5532" fill="rgb(0,0,0)" font-size="24" font-family="Verdana" >calCoi</text>
	<text x="2757" y="5432" fill="rgb(0,0,0)" font-size="24" font-family="Verdana" >calPer</text>
	<text x="2757" y="5332" fill="rgb(0,0,0)" font-size="24" font-family="Verdana" >calNig</text>
	<text x="2757" y="5232" fill="rgb(0,0,0)" font-size="24" font-family="Verdana" >chiIsr</text>
	<text x="2757" y="5132" fill="rgb(0,0,0)" font-size="24" font-family="Verdana" >chiSat</text>
	<text x="2757" y="5032" fill="rgb(0,0,0)" font-size="24" font-family="Verdana" >cacMel</text>
	<text x="2757" y="4932" fill="rgb(0,0,0)" font-size="24" font-family="Verdana" >cacCal</text>
	<text x="2757" y="4832" fill="rgb(0,0,0)" font-size="24" font-family="Verdana" >pitIrr</text>
	<text x="2757" y="4732" fill="rgb(0,0,0)" font-size="24" font-family="Verdana" >pitPit</text>
	<text x="2757" y="4557" fill="rgb(0,0,0)" font-size="24" font-family="Verdana" >carSyr</text>
	<text x="2757" y="4382" fill="rgb(0,0,0)" font-size="24" font-family="Verdana" >tarBan</text>
	<text x="2757" y="4207" fill="rgb(0,0,0)" font-size="24" font-family="Verdana" >eulRuf</text>
	<text x="2757" y="4107" fill="rgb(0,0,0)" font-size="24" font-family="Verdana" >eulCol</text>
	<text x="2757" y="4007" fill="rgb(0,0,0)" font-size="24" font-family="Verdana" >eulFul</text>
	<text x="2757" y="3907" fill="rgb(0,0,0)" font-size="24" font-family="Verdana" >eulSan</text>
	<text x="2757" y="3807" fill="rgb(0,0,0)" font-size="24" font-family="Verdana" >eulAlb</text>
	<text x="2757" y="3707" fill="rgb(0,0,0)" font-size="24" font-family="Verdana" >eulMon</text>
	<text x="2757" y="3607" fill="rgb(0,0,0)" font-size="24" font-family="Verdana" >eulMac</text>
	<text x="2757" y="3507" fill="rgb(0,0,0)" font-size="24" font-family="Verdana" >eulCor</text>
	<text x="2757" y="3407" fill="rgb(0,0,0)" font-size="24" font-family="Verdana" >eulRub</text>
	<text x="2757" y="3307" fill="rgb(0,0,0)" font-size="24" font-family="Verdana" >hapOcc</text>
	<text x="2757" y="3207" fill="rgb(0,0,0)" font-size="24" font-family="Verdana" >hapGri</text>
	<text x="2757" y="3107" fill="rgb(0,0,0)" font-size="24" font-family="Verdana" >lemCat</text>
	<text x="2757" y="3007" fill="rgb(0,0,0)" font-size="24" font-family="Verdana" >varVar</text>
	<text x="2757" y="2907" fill="rgb(0,0,0)" font-size="24" font-family="Verdana" >lepSep</text>
	<text x="2757" y="2807" fill="rgb(0,0,0)" font-size="24" font-family="Verdana" >lepAnk</text>
	<text x="2757" y="2707" fill="rgb(0,0,0)" font-size="24" font-family="Verdana" >lepDor</text>
	<text x="2757" y="2607" fill="rgb(0,0,0)" font-size="24" font-family="Verdana" >lepRuf</text>
	<text x="2757" y="2507" fill="rgb(0,0,0)" font-size="24" font-family="Verdana" >lepJam</text>
	<text x="2757" y="2407" fill="rgb(0,0,0)" font-size="24" font-family="Verdana" >micMur</text>
	<text x="2757" y="2307" fill="rgb(0,0,0)" font-size="24" font-family="Verdana" >mirZaz</text>
	<text x="2757" y="2207" fill="rgb(0,0,0)" font-size="24" font-family="Verdana" >cheMed</text>
	<text x="2757" y="2107" fill="rgb(0,0,0)" font-size="24" font-family="Verdana" >proVer</text>
	<text x="2757" y="2007" fill="rgb(0,0,0)" font-size="24" font-family="Verdana" >proTat</text>
	<text x="2757" y="1907" fill="rgb(0,0,0)" font-size="24" font-family="Verdana" >proDia</text>
	<text x="2757" y="1807" fill="rgb(0,0,0)" font-size="24" font-family="Verdana" >proEdw</text>
	<text x="2757" y="1707" fill="rgb(0,0,0)" font-size="24" font-family="Verdana" >avaLan</text>
	<text x="2757" y="1607" fill="rgb(0,0,0)" font-size="24" font-family="Verdana" >dauMad</text>
	<text x="2757" y="1432" fill="rgb(0,0,0)" font-size="24" font-family="Verdana" >nycBen</text>
	<text x="2757" y="1332" fill="rgb(0,0,0)" font-size="24" font-family="Verdana" >nycCou</text>
	<text x="2757" y="1232" fill="rgb(0,0,0)" font-size="24" font-family="Verdana" >nycPyg</text>
	<text x="2757" y="1132" fill="rgb(0,0,0)" font-size="24" font-family="Verdana" >lorTar</text>
	<text x="2757" y="1032" fill="rgb(0,0,0)" font-size="24" font-family="Verdana" >arcCal</text>
	<text x="2757" y="932" fill="rgb(0,0,0)" font-size="24" font-family="Verdana" >perPot</text>
	<text x="2757" y="832" fill="rgb(0,0,0)" font-size="24" font-family="Verdana" >galSen</text>
	<text x="2757" y="732" fill="rgb(0,0,0)" font-size="24" font-family="Verdana" >galMoh</text>
	<text x="2757" y="632" fill="rgb(0,0,0)" font-size="24" font-family="Verdana" >otoGar</text>
	<text x="2757" y="532" fill="rgb(0,0,0)" font-size="24" font-family="Verdana" >otoCra</text>
	<text x="2757" y="432" fill="rgb(0,0,0)" font-size="24" font-family="Verdana" >galTho</text>
	<text x="2757" y="332" fill="rgb(0,0,0)" font-size="24" font-family="Verdana" >galVar</text>
	<text x="2757" y="232" fill="rgb(0,0,0)" font-size="24" font-family="Verdana" >cynVol</text>
	<text x="2757" y="132" fill="rgb(0,0,0)" font-size="24" font-family="Verdana" >tupGli</text>
	<text x="2757" y="32" fill="rgb(0,0,0)" font-size="24" font-family="Verdana" >tupMin</text>
	<line x1="240" y1="4375" x2="240" y2="4350" stroke-width="3" stroke="rgb(65,170,190)" />
	<line x1="240" y1="4350" x2="270" y2="4350" stroke-width="3" stroke="rgb(65,170,190)" />
	<line x1="270" y1="4350" x2="270" y2="4325" stroke-width="3" stroke="rgb(65,170,190)" />
	<line x1="270" y1="4325" x2="300" y2="4325" stroke-width="3" stroke="rgb(65,170,190)" />
	<line x1="300" y1="4325" x2="300" y2="4300" stroke-width="3" stroke="rgb(65,170,190)" />
	<line x1="300" y1="4300" x2="330" y2="4300" stroke-width="3" stroke="rgb(65,170,190)" />
	<line x1="330" y1="4300" x2="330" y2="4650" stroke-width="3" stroke="rgb(65,170,190)" />
	<line x1="330" y1="4650" x2="605" y2="4650" stroke-width="3" stroke="rgb(65,170,190)" />
	<line x1="605" y1="4650" x2="605" y2="11000" stroke-width="3" stroke="rgb(65,170,190)" />
	<line x1="605" y1="11000" x2="880" y2="11000" stroke-width="3" stroke="rgb(65,170,190)" />
	<line x1="880" y1="11000" x2="880" y2="12750" stroke-width="3" stroke="rgb(65,170,190)" />
	<line x1="880" y1="12750" x2="1155" y2="12750" stroke-width="3" stroke="rgb(65,170,190)" />
	<line x1="1155" y1="12750" x2="1155" y2="15275" stroke-width="3" stroke="rgb(65,170,190)" />
	<line x1="1155" y1="15275" x2="1430" y2="15275" stroke-width="3" stroke="rgb(65,170,190)" />
	<line x1="1442.5" y1="15262.5" x2="1417.5" y2="15287.5" stroke-width="8.33333" stroke="rgb(65,170,190)" />
	<line x1="1442.5" y1="15287.5" x2="1417.5" y2="15262.5" stroke-width="8.33333" stroke="rgb(65,170,190)" />
	<line x1="1155" y1="12750" x2="1155" y2="11875" stroke-width="3" stroke="rgb(65,170,190)" />
	<line x1="1155" y1="11875" x2="1430" y2="11875" stroke-width="3" stroke="rgb(65,170,190)" />
	<line x1="1430" y1="11875" x2="1430" y2="12350" stroke-width="3" stroke="rgb(65,170,190)" />
	<line x1="1430" y1="12350" x2="1705" y2="12350" stroke-width="3" stroke="rgb(65,170,190)" />
	<line x1="1717.5" y1="12337.5" x2="1692.5" y2="12362.5" stroke-width="8.33333" stroke="rgb(65,170,190)" />
	<line x1="1717.5" y1="12362.5" x2="1692.5" y2="12337.5" stroke-width="8.33333" stroke="rgb(65,170,190)" />
	<line x1="1430" y1="11875" x2="1430" y2="11275" stroke-width="3" stroke="rgb(65,170,190)" />
	<line x1="1430" y1="11275" x2="1705" y2="11275" stroke-width="3" stroke="rgb(65,170,190)" />
	<line x1="1705" y1="11275" x2="1705" y2="11375" stroke-width="3" stroke="rgb(65,170,190)" />
	<line x1="1705" y1="11375" x2="1815" y2="11375" stroke-width="3" stroke="rgb(65,170,190)" />
	<line x1="1815" y1="11375" x2="1815" y2="11675" stroke-width="3" stroke="rgb(65,170,190)" />
	<line x1="1815" y1="11675" x2="1925" y2="11675" stroke-width="3" stroke="rgb(65,170,190)" />
	<line x1="1925" y1="11675" x2="1925" y2="11625" stroke-width="3" stroke="rgb(65,170,190)" />
	<line x1="1925" y1="11625" x2="2035" y2="11625" stroke-width="3" stroke="rgb(65,170,190)" />
	<line x1="2035" y1="11625" x2="2035" y2="11500" stroke-width="3" stroke="rgb(65,170,190)" />
	<line x1="2035" y1="11500" x2="2065" y2="11500" stroke-width="3" stroke="rgb(65,170,190)" />
	<line x1="2065" y1="11500" x2="2065" y2="11450" stroke-width="3" stroke="rgb(65,170,190)" />
	<line x1="2065" y1="11450" x2="2095" y2="11450" stroke-width="3" stroke="rgb(65,170,190)" />
	<line x1="2095" y1="11450" x2="2095" y2="11425" stroke-width="3" stroke="rgb(65,170,190)" />
	<line x1="2095" y1="11425" x2="2835" y2="11425" stroke-width="3" stroke="rgb(65,170,190)" />
	<text x="2860" y="11425" fill="rgb(65,170,190)" font-size="18" font-family="Verdana" >homSap_potnovel_AK074569</text>
	<line x1="2095" y1="11450" x2="2095" y2="11450" stroke-width="3" stroke="rgb(65,170,190)" />
	<line x1="2095" y1="11450" x2="2835" y2="11450" stroke-width="3" stroke="rgb(65,170,190)" />
	<text x="2860" y="11450" fill="rgb(65,170,190)" font-size="18" font-family="Verdana" >homSap_FOXP1_BC131720</text>
	<rect x="2082.5" y="11437.5" width="25" height="25" fill="rgb(65,170,190)" stroke-width="3" stroke="rgb(65,170,190)" />
	<line x1="2065" y1="11500" x2="2065" y2="11500" stroke-width="3" stroke="rgb(65,170,190)" />
	<line x1="2065" y1="11500" x2="2125" y2="11500" stroke-width="3" stroke="rgb(65,170,190)" />
	<line x1="2125" y1="11500" x2="2125" y2="11475" stroke-width="3" stroke="rgb(65,170,190)" />
	<line x1="2125" y1="11475" x2="2835" y2="11475" stroke-width="3" stroke="rgb(65,170,190)" />
	<text x="2860" y="11475" fill="rgb(65,170,190)" font-size="18" font-family="Verdana" >homSap_potnovel_AK074321</text>
	<line x1="2125" y1="11500" x2="2125" y2="11500" stroke-width="3" stroke="rgb(65,170,190)" />
	<line x1="2125" y1="11500" x2="2835" y2="11500" stroke-width="3" stroke="rgb(65,170,190)" />
	<text x="2860" y="11500" fill="rgb(65,170,190)" font-size="18" font-family="Verdana" >homSap_potnovel_BC068481</text>
	<rect x="2112.5" y="11487.5" width="25" height="25" fill="rgb(65,170,190)" stroke-width="3" stroke="rgb(65,170,190)" />
	<rect x="2052.5" y="11487.5" width="25" height="25" fill="rgb(65,170,190)" stroke-width="3" stroke="rgb(65,170,190)" />
	<line x1="2035" y1="11625" x2="2035" y2="11625" stroke-width="3" stroke="rgb(65,170,190)" />
	<line x1="2035" y1="11625" x2="2155" y2="11625" stroke-width="3" stroke="rgb(65,170,190)" />
	<line x1="2155" y1="11625" x2="2155" y2="11525" stroke-width="3" stroke="rgb(65,170,190)" />
	<line x1="2155" y1="11525" x2="2835" y2="11525" stroke-width="3" stroke="rgb(65,170,190)" />
	<text x="2860" y="11525" fill="rgb(65,170,190)" font-size="18" font-family="Verdana" >homSap_potnovel_AF250920</text>
	<line x1="2155" y1="11625" x2="2155" y2="11625" stroke-width="3" stroke="rgb(65,170,190)" />
	<line x1="2155" y1="11625" x2="2185" y2="11625" stroke-width="3" stroke="rgb(65,170,190)" />
	<line x1="2185" y1="11625" x2="2185" y2="11550" stroke-width="3" stroke="rgb(65,170,190)" />
	<line x1="2185" y1="11550" x2="2835" y2="11550" stroke-width="3" stroke="rgb(65,170,190)" />
	<text x="2860" y="11550" fill="rgb(65,170,190)" font-size="18" font-family="Verdana" >homSap_potnovel_AK027264</text>
	<line x1="2185" y1="11625" x2="2185" y2="11625" stroke-width="3" stroke="rgb(65,170,190)" />
	<line x1="2185" y1="11625" x2="2215" y2="11625" stroke-width="3" stroke="rgb(65,170,190)" />
	<line x1="2215" y1="11625" x2="2215" y2="11575" stroke-width="3" stroke="rgb(65,170,190)" />
	<line x1="2215" y1="11575" x2="2835" y2="11575" stroke-width="3" stroke="rgb(65,170,190)" />
	<text x="2860" y="11575" fill="rgb(65,170,190)" font-size="18" font-family="Verdana" >homSap_potnovel_AK297649</text>
	<line x1="2215" y1="11625" x2="2215" y2="11625" stroke-width="3" stroke="rgb(65,170,190)" />
	<line x1="2215" y1="11625" x2="2245" y2="11625" stroke-width="3" stroke="rgb(65,170,190)" />
	<line x1="2245" y1="11625" x2="2245" y2="11600" stroke-width="3" stroke="rgb(65,170,190)" />
	<line x1="2245" y1="11600" x2="2835" y2="11600" stroke-width="3" stroke="rgb(65,170,190)" />
	<text x="2860" y="11600" fill="rgb(65,170,190)" font-size="18" font-family="Verdana" >homSap_potnovel_AK092383</text>
	<line x1="2245" y1="11625" x2="2245" y2="11625" stroke-width="3" stroke="rgb(65,170,190)" />
	<line x1="2245" y1="11625" x2="2835" y2="11625" stroke-width="3" stroke="rgb(65,170,190)" />
	<text x="2860" y="11625" fill="rgb(65,170,190)" font-size="18" font-family="Verdana" >homSap_potnovel_AK122710</text>
	<rect x="2232.5" y="11612.5" width="25" height="25" fill="rgb(65,170,190)" stroke-width="3" stroke="rgb(65,170,190)" />
	<rect x="2202.5" y="11612.5" width="25" height="25" fill="rgb(65,170,190)" stroke-width="3" stroke="rgb(65,170,190)" />
	<rect x="2172.5" y="11612.5" width="25" height="25" fill="rgb(65,170,190)" stroke-width="3" stroke="rgb(65,170,190)" />
	<rect x="2142.5" y="11612.5" width="25" height="25" fill="rgb(65,170,190)" stroke-width="3" stroke="rgb(65,170,190)" />
	<rect x="2022.5" y="11612.5" width="25" height="25" fill="rgb(65,170,190)" stroke-width="3" stroke="rgb(65,170,190)" />
	<line x1="1925" y1="11675" x2="1925" y2="11775" stroke-width="3" stroke="rgb(65,170,190)" />
	<line x1="1925" y1="11775" x2="2035" y2="11775" stroke-width="3" stroke="rgb(65,170,190)" />
	<line x1="2035" y1="11775" x2="2035" y2="11825" stroke-width="3" stroke="rgb(65,170,190)" />
	<line x1="2035" y1="11825" x2="2835" y2="11825" stroke-width="3" stroke="rgb(65,170,190)" />
	<text x="2860" y="11825" fill="rgb(65,170,190)" font-size="18" font-family="Verdana" >panTro_potnovel_AK305945</text>
	<line x1="2035" y1="11775" x2="2035" y2="11725" stroke-width="3" stroke="rgb(65,170,190)" />
	<line x1="2035" y1="11725" x2="2145" y2="11725" stroke-width="3" stroke="rgb(65,170,190)" />
	<line x1="2157.5" y1="11712.5" x2="2132.5" y2="11737.5" stroke-width="8.33333" stroke="rgb(65,170,190)" />
	<line x1="2157.5" y1="11737.5" x2="2132.5" y2="11712.5" stroke-width="8.33333" stroke="rgb(65,170,190)" />
	<line x1="1815" y1="11375" x2="1815" y2="11325" stroke-width="3" stroke="rgb(65,170,190)" />
	<line x1="1815" y1="11325" x2="1925" y2="11325" stroke-width="3" stroke="rgb(65,170,190)" />
	<line x1="1937.5" y1="11312.5" x2="1912.5" y2="11337.5" stroke-width="8.33333" stroke="rgb(65,170,190)" />
	<line x1="1937.5" y1="11337.5" x2="1912.5" y2="11312.5" stroke-width="8.33333" stroke="rgb(65,170,190)" />
	<line x1="1705" y1="11275" x2="1705" y2="11175" stroke-width="3" stroke="rgb(65,170,190)" />
	<line x1="1705" y1="11175" x2="1815" y2="11175" stroke-width="3" stroke="rgb(65,170,190)" />
	<line x1="1827.5" y1="11162.5" x2="1802.5" y2="11187.5" stroke-width="8.33333" stroke="rgb(65,170,190)" />
	<line x1="1827.5" y1="11187.5" x2="1802.5" y2="11162.5" stroke-width="8.33333" stroke="rgb(65,170,190)" />
	<line x1="880" y1="11000" x2="880" y2="6125" stroke-width="3" stroke="rgb(65,170,190)" />
	<line x1="880" y1="6125" x2="1155" y2="6125" stroke-width="3" stroke="rgb(65,170,190)" />
	<line x1="1167.5" y1="6112.5" x2="1142.5" y2="6137.5" stroke-width="8.33333" stroke="rgb(65,170,190)" />
	<line x1="1167.5" y1="6137.5" x2="1142.5" y2="6112.5" stroke-width="8.33333" stroke="rgb(65,170,190)" />
	<line x1="605" y1="4650" x2="605" y2="4475" stroke-width="3" stroke="rgb(65,170,190)" />
	<line x1="605" y1="4475" x2="880" y2="4475" stroke-width="3" stroke="rgb(65,170,190)" />
	<line x1="892.5" y1="4462.5" x2="867.5" y2="4487.5" stroke-width="8.33333" stroke="rgb(65,170,190)" />
	<line x1="892.5" y1="4487.5" x2="867.5" y2="4462.5" stroke-width="8.33333" stroke="rgb(65,170,190)" />
	<line x1="330" y1="4300" x2="330" y2="1525" stroke-width="3" stroke="rgb(65,170,190)" />
	<line x1="330" y1="1525" x2="605" y2="1525" stroke-width="3" stroke="rgb(65,170,190)" />
	<line x1="605" y1="1525" x2="605" y2="1700" stroke-width="3" stroke="rgb(65,170,190)" />
	<line x1="605" y1="1700" x2="880" y2="1700" stroke-width="3" stroke="rgb(65,170,190)" />
	<line x1="880" y1="1700" x2="880" y2="3000" stroke-width="3" stroke="rgb(65,170,190)" />
	<line x1="880" y1="3000" x2="990" y2="3000" stroke-width="3" stroke="rgb(65,170,190)" />
	<line x1="990" y1="3000" x2="990" y2="3100" stroke-width="3" stroke="rgb(65,170,190)" />
	<line x1="990" y1="3100" x2="1100" y2="3100" stroke-width="3" stroke="rgb(65,170,190)" />
	<line x1="1112.5" y1="3087.5" x2="1087.5" y2="3112.5" stroke-width="8.33333" stroke="rgb(65,170,190)" />
	<line x1="1112.5" y1="3112.5" x2="1087.5" y2="3087.5" stroke-width="8.33333" stroke="rgb(65,170,190)" />
	<line x1="990" y1="3000" x2="990" y2="2200" stroke-width="3" stroke="rgb(65,170,190)" />
	<line x1="990" y1="2200" x2="1100" y2="2200" stroke-width="3" stroke="rgb(65,170,190)" />
	<line x1="1100" y1="2200" x2="1100" y2="2500" stroke-width="3" stroke="rgb(65,170,190)" />
	<line x1="1100" y1="2500" x2="1210" y2="2500" stroke-width="3" stroke="rgb(65,170,190)" />
	<line x1="1210" y1="2500" x2="1210" y2="2600" stroke-width="3" stroke="rgb(65,170,190)" />
	<line x1="1210" y1="2600" x2="1320" y2="2600" stroke-width="3" stroke="rgb(65,170,190)" />
	<line x1="1332.5" y1="2587.5" x2="1307.5" y2="2612.5" stroke-width="8.33333" stroke="rgb(65,170,190)" />
	<line x1="1332.5" y1="2612.5" x2="1307.5" y2="2587.5" stroke-width="8.33333" stroke="rgb(65,170,190)" />
	<line x1="1210" y1="2500" x2="1210" y2="2300" stroke-width="3" stroke="rgb(65,170,190)" />
	<line x1="1210" y1="2300" x2="1320" y2="2300" stroke-width="3" stroke="rgb(65,170,190)" />
	<line x1="1320" y1="2300" x2="1320" y2="2400" stroke-width="3" stroke="rgb(65,170,190)" />
	<line x1="1320" y1="2400" x2="1430" y2="2400" stroke-width="3" stroke="rgb(65,170,190)" />
	<line x1="1430" y1="2400" x2="1430" y2="2450" stroke-width="3" stroke="rgb(65,170,190)" />
	<line x1="1430" y1="2450" x2="2835" y2="2450" stroke-width="3" stroke="rgb(65,170,190)" />
	<text x="2860" y="2450" fill="rgb(65,170,190)" font-size="18" font-family="Verdana" >micMur_FOXP1_XM_020284837</text>
	<line x1="1430" y1="2400" x2="1430" y2="2350" stroke-width="3" stroke="rgb(65,170,190)" />
	<line x1="1430" y1="2350" x2="1540" y2="2350" stroke-width="3" stroke="rgb(65,170,190)" />
	<line x1="1552.5" y1="2337.5" x2="1527.5" y2="2362.5" stroke-width="8.33333" stroke="rgb(65,170,190)" />
	<line x1="1552.5" y1="2362.5" x2="1527.5" y2="2337.5" stroke-width="8.33333" stroke="rgb(65,170,190)" />
	<line x1="1320" y1="2300" x2="1320" y2="2250" stroke-width="3" stroke="rgb(65,170,190)" />
	<line x1="1320" y1="2250" x2="1430" y2="2250" stroke-width="3" stroke="rgb(65,170,190)" />
	<line x1="1442.5" y1="2237.5" x2="1417.5" y2="2262.5" stroke-width="8.33333" stroke="rgb(65,170,190)" />
	<line x1="1442.5" y1="2262.5" x2="1417.5" y2="2237.5" stroke-width="8.33333" stroke="rgb(65,170,190)" />
	<line x1="1100" y1="2200" x2="1100" y2="1800" stroke-width="3" stroke="rgb(65,170,190)" />
	<line x1="1100" y1="1800" x2="1210" y2="1800" stroke-width="3" stroke="rgb(65,170,190)" />
	<line x1="1222.5" y1="1787.5" x2="1197.5" y2="1812.5" stroke-width="8.33333" stroke="rgb(65,170,190)" />
	<line x1="1222.5" y1="1812.5" x2="1197.5" y2="1787.5" stroke-width="8.33333" stroke="rgb(65,170,190)" />
	<line x1="880" y1="1700" x2="880" y2="1650" stroke-width="3" stroke="rgb(65,170,190)" />
	<line x1="880" y1="1650" x2="990" y2="1650" stroke-width="3" stroke="rgb(65,170,190)" />
	<line x1="1002.5" y1="1637.5" x2="977.5" y2="1662.5" stroke-width="8.33333" stroke="rgb(65,170,190)" />
	<line x1="1002.5" y1="1662.5" x2="977.5" y2="1637.5" stroke-width="8.33333" stroke="rgb(65,170,190)" />
	<line x1="605" y1="1525" x2="605" y2="925" stroke-width="3" stroke="rgb(65,170,190)" />
	<line x1="605" y1="925" x2="880" y2="925" stroke-width="3" stroke="rgb(65,170,190)" />
	<line x1="880" y1="925" x2="880" y2="1125" stroke-width="3" stroke="rgb(65,170,190)" />
	<line x1="880" y1="1125" x2="990" y2="1125" stroke-width="3" stroke="rgb(65,170,190)" />
	<line x1="1002.5" y1="1112.5" x2="977.5" y2="1137.5" stroke-width="8.33333" stroke="rgb(65,170,190)" />
	<line x1="1002.5" y1="1137.5" x2="977.5" y2="1112.5" stroke-width="8.33333" stroke="rgb(65,170,190)" />
	<line x1="880" y1="925" x2="880" y2="525" stroke-width="3" stroke="rgb(65,170,190)" />
	<line x1="880" y1="525" x2="990" y2="525" stroke-width="3" stroke="rgb(65,170,190)" />
	<line x1="990" y1="525" x2="990" y2="725" stroke-width="3" stroke="rgb(65,170,190)" />
	<line x1="990" y1="725" x2="1100" y2="725" stroke-width="3" stroke="rgb(65,170,190)" />
	<line x1="1100" y1="725" x2="1100" y2="825" stroke-width="3" stroke="rgb(65,170,190)" />
	<line x1="1100" y1="825" x2="1210" y2="825" stroke-width="3" stroke="rgb(65,170,190)" />
	<line x1="1222.5" y1="812.5" x2="1197.5" y2="837.5" stroke-width="8.33333" stroke="rgb(65,170,190)" />
	<line x1="1222.5" y1="837.5" x2="1197.5" y2="812.5" stroke-width="8.33333" stroke="rgb(65,170,190)" />
	<line x1="1100" y1="725" x2="1100" y2="625" stroke-width="3" stroke="rgb(65,170,190)" />
	<line x1="1100" y1="625" x2="1210" y2="625" stroke-width="3" stroke="rgb(65,170,190)" />
	<line x1="1210" y1="625" x2="1210" y2="675" stroke-width="3" stroke="rgb(65,170,190)" />
	<line x1="1210" y1="675" x2="2835" y2="675" stroke-width="3" stroke="rgb(65,170,190)" />
	<text x="2860" y="675" fill="rgb(65,170,190)" font-size="18" font-family="Verdana" >otoGar_FOXP1_XM_023510637</text>
	<line x1="1210" y1="625" x2="1210" y2="575" stroke-width="3" stroke="rgb(65,170,190)" />
	<line x1="1210" y1="575" x2="1320" y2="575" stroke-width="3" stroke="rgb(65,170,190)" />
	<line x1="1332.5" y1="562.5" x2="1307.5" y2="587.5" stroke-width="8.33333" stroke="rgb(65,170,190)" />
	<line x1="1332.5" y1="587.5" x2="1307.5" y2="562.5" stroke-width="8.33333" stroke="rgb(65,170,190)" />
	<line x1="990" y1="525" x2="990" y2="475" stroke-width="3" stroke="rgb(65,170,190)" />
	<line x1="990" y1="475" x2="1100" y2="475" stroke-width="3" stroke="rgb(65,170,190)" />
	<line x1="1112.5" y1="462.5" x2="1087.5" y2="487.5" stroke-width="8.33333" stroke="rgb(65,170,190)" />
	<line x1="1112.5" y1="487.5" x2="1087.5" y2="462.5" stroke-width="8.33333" stroke="rgb(65,170,190)" />
	<line x1="300" y1="4325" x2="300" y2="4325" stroke-width="3" stroke="rgb(65,170,190)" />
	<line x1="300" y1="4325" x2="360" y2="4325" stroke-width="3" stroke="rgb(65,170,190)" />
	<line x1="360" y1="4325" x2="360" y2="4675" stroke-width="3" stroke="rgb(65,170,190)" />
	<line x1="360" y1="4675" x2="635" y2="4675" stroke-width="3" stroke="rgb(65,170,190)" />
	<line x1="635" y1="4675" x2="635" y2="11025" stroke-width="3" stroke="rgb(65,170,190)" />
	<line x1="635" y1="11025" x2="910" y2="11025" stroke-width="3" stroke="rgb(65,170,190)" />
	<line x1="910" y1="11025" x2="910" y2="12775" stroke-width="3" stroke="rgb(65,170,190)" />
	<line x1="910" y1="12775" x2="1185" y2="12775" stroke-width="3" stroke="rgb(65,170,190)" />
	<line x1="1185" y1="12775" x2="1185" y2="15300" stroke-width="3" stroke="rgb(65,170,190)" />
	<line x1="1185" y1="15300" x2="1460" y2="15300" stroke-width="3" stroke="rgb(65,170,190)" />
	<line x1="1460" y1="15300" x2="1460" y2="17050" stroke-width="3" stroke="rgb(65,170,190)" />
	<line x1="1460" y1="17050" x2="1705" y2="17050" stroke-width="3" stroke="rgb(65,170,190)" />
	<line x1="1717.5" y1="17037.5" x2="1692.5" y2="17062.5" stroke-width="8.33333" stroke="rgb(65,170,190)" />
	<line x1="1717.5" y1="17062.5" x2="1692.5" y2="17037.5" stroke-width="8.33333" stroke="rgb(65,170,190)" />
	<line x1="1460" y1="15300" x2="1460" y2="13275" stroke-width="3" stroke="rgb(65,170,190)" />
	<line x1="1460" y1="13275" x2="1705" y2="13275" stroke-width="3" stroke="rgb(65,170,190)" />
	<line x1="1705" y1="13275" x2="1705" y2="13550" stroke-width="3" stroke="rgb(65,170,190)" />
	<line x1="1705" y1="13550" x2="1925" y2="13550" stroke-width="3" stroke="rgb(65,170,190)" />
	<line x1="1925" y1="13550" x2="1925" y2="14325" stroke-width="3" stroke="rgb(65,170,190)" />
	<line x1="1925" y1="14325" x2="2145" y2="14325" stroke-width="3" stroke="rgb(65,170,190)" />
	<line x1="2145" y1="14325" x2="2145" y2="14650" stroke-width="3" stroke="rgb(65,170,190)" />
	<line x1="2145" y1="14650" x2="2310" y2="14650" stroke-width="3" stroke="rgb(65,170,190)" />
	<line x1="2322.5" y1="14637.5" x2="2297.5" y2="14662.5" stroke-width="8.33333" stroke="rgb(65,170,190)" />
	<line x1="2322.5" y1="14662.5" x2="2297.5" y2="14637.5" stroke-width="8.33333" stroke="rgb(65,170,190)" />
	<line x1="2145" y1="14325" x2="2145" y2="13900" stroke-width="3" stroke="rgb(65,170,190)" />
	<line x1="2145" y1="13900" x2="2310" y2="13900" stroke-width="3" stroke="rgb(65,170,190)" />
	<line x1="2310" y1="13900" x2="2310" y2="14025" stroke-width="3" stroke="rgb(65,170,190)" />
	<line x1="2310" y1="14025" x2="2475" y2="14025" stroke-width="3" stroke="rgb(65,170,190)" />
	<line x1="2487.5" y1="14012.5" x2="2462.5" y2="14037.5" stroke-width="8.33333" stroke="rgb(65,170,190)" />
	<line x1="2487.5" y1="14037.5" x2="2462.5" y2="14012.5" stroke-width="8.33333" stroke="rgb(65,170,190)" />
	<line x1="2310" y1="13900" x2="2310" y2="13700" stroke-width="3" stroke="rgb(65,170,190)" />
	<line x1="2310" y1="13700" x2="2475" y2="13700" stroke-width="3" stroke="rgb(65,170,190)" />
	<line x1="2475" y1="13700" x2="2475" y2="13800" stroke-width="3" stroke="rgb(65,170,190)" />
	<line x1="2475" y1="13800" x2="2585" y2="13800" stroke-width="3" stroke="rgb(65,170,190)" />
	<line x1="2585" y1="13800" x2="2585" y2="13750" stroke-width="3" stroke="rgb(65,170,190)" />
	<line x1="2585" y1="13750" x2="2835" y2="13750" stroke-width="3" stroke="rgb(65,170,190)" />
	<text x="2860" y="13750" fill="rgb(65,170,190)" font-size="18" font-family="Verdana" >rhiBie_FOXP1_XM_017892176</text>
	<line x1="2585" y1="13800" x2="2585" y2="13850" stroke-width="3" stroke="rgb(65,170,190)" />
	<line x1="2585" y1="13850" x2="2695" y2="13850" stroke-width="3" stroke="rgb(65,170,190)" />
	<line x1="2707.5" y1="13837.5" x2="2682.5" y2="13862.5" stroke-width="8.33333" stroke="rgb(65,170,190)" />
	<line x1="2707.5" y1="13862.5" x2="2682.5" y2="13837.5" stroke-width="8.33333" stroke="rgb(65,170,190)" />
	<line x1="2475" y1="13700" x2="2475" y2="13650" stroke-width="3" stroke="rgb(65,170,190)" />
	<line x1="2475" y1="13650" x2="2585" y2="13650" stroke-width="3" stroke="rgb(65,170,190)" />
	<line x1="2597.5" y1="13637.5" x2="2572.5" y2="13662.5" stroke-width="8.33333" stroke="rgb(65,170,190)" />
	<line x1="2597.5" y1="13662.5" x2="2572.5" y2="13637.5" stroke-width="8.33333" stroke="rgb(65,170,190)" />
	<line x1="1925" y1="13550" x2="1925" y2="13425" stroke-width="3" stroke="rgb(65,170,190)" />
	<line x1="1925" y1="13425" x2="2145" y2="13425" stroke-width="3" stroke="rgb(65,170,190)" />
	<line x1="2157.5" y1="13412.5" x2="2132.5" y2="13437.5" stroke-width="8.33333" stroke="rgb(65,170,190)" />
	<line x1="2157.5" y1="13437.5" x2="2132.5" y2="13412.5" stroke-width="8.33333" stroke="rgb(65,170,190)" />
	<line x1="1705" y1="13275" x2="1705" y2="12925" stroke-width="3" stroke="rgb(65,170,190)" />
	<line x1="1705" y1="12925" x2="1925" y2="12925" stroke-width="3" stroke="rgb(65,170,190)" />
	<line x1="1937.5" y1="12912.5" x2="1912.5" y2="12937.5" stroke-width="8.33333" stroke="rgb(65,170,190)" />
	<line x1="1937.5" y1="12937.5" x2="1912.5" y2="12912.5" stroke-width="8.33333" stroke="rgb(65,170,190)" />
	<line x1="1185" y1="12775" x2="1185" y2="11900" stroke-width="3" stroke="rgb(65,170,190)" />
	<line x1="1185" y1="11900" x2="1460" y2="11900" stroke-width="3" stroke="rgb(65,170,190)" />
	<line x1="1472.5" y1="11887.5" x2="1447.5" y2="11912.5" stroke-width="8.33333" stroke="rgb(65,170,190)" />
	<line x1="1472.5" y1="11912.5" x2="1447.5" y2="11887.5" stroke-width="8.33333" stroke="rgb(65,170,190)" />
	<line x1="910" y1="11025" x2="910" y2="6150" stroke-width="3" stroke="rgb(65,170,190)" />
	<line x1="910" y1="6150" x2="1185" y2="6150" stroke-width="3" stroke="rgb(65,170,190)" />
	<line x1="1197.5" y1="6137.5" x2="1172.5" y2="6162.5" stroke-width="8.33333" stroke="rgb(65,170,190)" />
	<line x1="1197.5" y1="6162.5" x2="1172.5" y2="6137.5" stroke-width="8.33333" stroke="rgb(65,170,190)" />
	<line x1="635" y1="4675" x2="635" y2="4500" stroke-width="3" stroke="rgb(65,170,190)" />
	<line x1="635" y1="4500" x2="910" y2="4500" stroke-width="3" stroke="rgb(65,170,190)" />
	<line x1="922.5" y1="4487.5" x2="897.5" y2="4512.5" stroke-width="8.33333" stroke="rgb(65,170,190)" />
	<line x1="922.5" y1="4512.5" x2="897.5" y2="4487.5" stroke-width="8.33333" stroke="rgb(65,170,190)" />
	<line x1="360" y1="4325" x2="360" y2="1550" stroke-width="3" stroke="rgb(65,170,190)" />
	<line x1="360" y1="1550" x2="635" y2="1550" stroke-width="3" stroke="rgb(65,170,190)" />
	<line x1="647.5" y1="1537.5" x2="622.5" y2="1562.5" stroke-width="8.33333" stroke="rgb(65,170,190)" />
	<line x1="647.5" y1="1562.5" x2="622.5" y2="1537.5" stroke-width="8.33333" stroke="rgb(65,170,190)" />
	<rect x="287.5" y="4312.5" width="25" height="25" fill="rgb(65,170,190)" stroke-width="3" stroke="rgb(65,170,190)" />
	<line x1="270" y1="4350" x2="270" y2="4350" stroke-width="3" stroke="rgb(65,170,190)" />
	<line x1="270" y1="4350" x2="390" y2="4350" stroke-width="3" stroke="rgb(65,170,190)" />
	<line x1="390" y1="4350" x2="390" y2="4700" stroke-width="3" stroke="rgb(65,170,190)" />
	<line x1="390" y1="4700" x2="665" y2="4700" stroke-width="3" stroke="rgb(65,170,190)" />
	<line x1="665" y1="4700" x2="665" y2="11050" stroke-width="3" stroke="rgb(65,170,190)" />
	<line x1="665" y1="11050" x2="940" y2="11050" stroke-width="3" stroke="rgb(65,170,190)" />
	<line x1="940" y1="11050" x2="940" y2="12800" stroke-width="3" stroke="rgb(65,170,190)" />
	<line x1="940" y1="12800" x2="1215" y2="12800" stroke-width="3" stroke="rgb(65,170,190)" />
	<line x1="1215" y1="12800" x2="1215" y2="15325" stroke-width="3" stroke="rgb(65,170,190)" />
	<line x1="1215" y1="15325" x2="1490" y2="15325" stroke-width="3" stroke="rgb(65,170,190)" />
	<line x1="1490" y1="15325" x2="1490" y2="17075" stroke-width="3" stroke="rgb(65,170,190)" />
	<line x1="1490" y1="17075" x2="1735" y2="17075" stroke-width="3" stroke="rgb(65,170,190)" />
	<line x1="1735" y1="17075" x2="1735" y2="18200" stroke-width="3" stroke="rgb(65,170,190)" />
	<line x1="1735" y1="18200" x2="1925" y2="18200" stroke-width="3" stroke="rgb(65,170,190)" />
	<line x1="1925" y1="18200" x2="1925" y2="18300" stroke-width="3" stroke="rgb(65,170,190)" />
	<line x1="1925" y1="18300" x2="2035" y2="18300" stroke-width="3" stroke="rgb(65,170,190)" />
	<line x1="2035" y1="18300" x2="2035" y2="18900" stroke-width="3" stroke="rgb(65,170,190)" />
	<line x1="2035" y1="18900" x2="2145" y2="18900" stroke-width="3" stroke="rgb(65,170,190)" />
	<line x1="2145" y1="18900" x2="2145" y2="19200" stroke-width="3" stroke="rgb(65,170,190)" />
	<line x1="2145" y1="19200" x2="2255" y2="19200" stroke-width="3" stroke="rgb(65,170,190)" />
	<line x1="2267.5" y1="19187.5" x2="2242.5" y2="19212.5" stroke-width="8.33333" stroke="rgb(65,170,190)" />
	<line x1="2267.5" y1="19212.5" x2="2242.5" y2="19187.5" stroke-width="8.33333" stroke="rgb(65,170,190)" />
	<line x1="2145" y1="18900" x2="2145" y2="18500" stroke-width="3" stroke="rgb(65,170,190)" />
	<line x1="2145" y1="18500" x2="2255" y2="18500" stroke-width="3" stroke="rgb(65,170,190)" />
	<line x1="2255" y1="18500" x2="2255" y2="18600" stroke-width="3" stroke="rgb(65,170,190)" />
	<line x1="2255" y1="18600" x2="2365" y2="18600" stroke-width="3" stroke="rgb(65,170,190)" />
	<line x1="2365" y1="18600" x2="2365" y2="18700" stroke-width="3" stroke="rgb(65,170,190)" />
	<line x1="2365" y1="18700" x2="2475" y2="18700" stroke-width="3" stroke="rgb(65,170,190)" />
	<line x1="2475" y1="18700" x2="2475" y2="18800" stroke-width="3" stroke="rgb(65,170,190)" />
	<line x1="2475" y1="18800" x2="2585" y2="18800" stroke-width="3" stroke="rgb(65,170,190)" />
	<line x1="2585" y1="18800" x2="2585" y2="18850" stroke-width="3" stroke="rgb(65,170,190)" />
	<line x1="2585" y1="18850" x2="2835" y2="18850" stroke-width="3" stroke="rgb(65,170,190)" />
	<text x="2860" y="18850" fill="rgb(65,170,190)" font-size="18" font-family="Verdana" >macMul_FOXP1_NM_001266321</text>
	<line x1="2585" y1="18800" x2="2585" y2="18750" stroke-width="3" stroke="rgb(65,170,190)" />
	<line x1="2585" y1="18750" x2="2695" y2="18750" stroke-width="3" stroke="rgb(65,170,190)" />
	<line x1="2707.5" y1="18737.5" x2="2682.5" y2="18762.5" stroke-width="8.33333" stroke="rgb(65,170,190)" />
	<line x1="2707.5" y1="18762.5" x2="2682.5" y2="18737.5" stroke-width="8.33333" stroke="rgb(65,170,190)" />
	<line x1="2475" y1="18700" x2="2475" y2="18650" stroke-width="3" stroke="rgb(65,170,190)" />
	<line x1="2475" y1="18650" x2="2585" y2="18650" stroke-width="3" stroke="rgb(65,170,190)" />
	<line x1="2597.5" y1="18637.5" x2="2572.5" y2="18662.5" stroke-width="8.33333" stroke="rgb(65,170,190)" />
	<line x1="2597.5" y1="18662.5" x2="2572.5" y2="18637.5" stroke-width="8.33333" stroke="rgb(65,170,190)" />
	<line x1="2365" y1="18600" x2="2365" y2="18550" stroke-width="3" stroke="rgb(65,170,190)" />
	<line x1="2365" y1="18550" x2="2475" y2="18550" stroke-width="3" stroke="rgb(65,170,190)" />
	<line x1="2487.5" y1="18537.5" x2="2462.5" y2="18562.5" stroke-width="8.33333" stroke="rgb(65,170,190)" />
	<line x1="2487.5" y1="18562.5" x2="2462.5" y2="18537.5" stroke-width="8.33333" stroke="rgb(65,170,190)" />
	<line x1="2255" y1="18500" x2="2255" y2="18400" stroke-width="3" stroke="rgb(65,170,190)" />
	<line x1="2255" y1="18400" x2="2365" y2="18400" stroke-width="3" stroke="rgb(65,170,190)" />
	<line x1="2377.5" y1="18387.5" x2="2352.5" y2="18412.5" stroke-width="8.33333" stroke="rgb(65,170,190)" />
	<line x1="2377.5" y1="18412.5" x2="2352.5" y2="18387.5" stroke-width="8.33333" stroke="rgb(65,170,190)" />
	<line x1="2035" y1="18300" x2="2035" y2="18250" stroke-width="3" stroke="rgb(65,170,190)" />
	<line x1="2035" y1="18250" x2="2145" y2="18250" stroke-width="3" stroke="rgb(65,170,190)" />
	<line x1="2157.5" y1="18237.5" x2="2132.5" y2="18262.5" stroke-width="8.33333" stroke="rgb(65,170,190)" />
	<line x1="2157.5" y1="18262.5" x2="2132.5" y2="18237.5" stroke-width="8.33333" stroke="rgb(65,170,190)" />
	<line x1="1925" y1="18200" x2="1925" y2="17600" stroke-width="3" stroke="rgb(65,170,190)" />
	<line x1="1925" y1="17600" x2="2035" y2="17600" stroke-width="3" stroke="rgb(65,170,190)" />
	<line x1="2047.5" y1="17587.5" x2="2022.5" y2="17612.5" stroke-width="8.33333" stroke="rgb(65,170,190)" />
	<line x1="2047.5" y1="17612.5" x2="2022.5" y2="17587.5" stroke-width="8.33333" stroke="rgb(65,170,190)" />
	<line x1="1735" y1="17075" x2="1735" y2="15950" stroke-width="3" stroke="rgb(65,170,190)" />
	<line x1="1735" y1="15950" x2="1925" y2="15950" stroke-width="3" stroke="rgb(65,170,190)" />
	<line x1="1937.5" y1="15937.5" x2="1912.5" y2="15962.5" stroke-width="8.33333" stroke="rgb(65,170,190)" />
	<line x1="1937.5" y1="15962.5" x2="1912.5" y2="15937.5" stroke-width="8.33333" stroke="rgb(65,170,190)" />
	<line x1="1490" y1="15325" x2="1490" y2="13300" stroke-width="3" stroke="rgb(65,170,190)" />
	<line x1="1490" y1="13300" x2="1735" y2="13300" stroke-width="3" stroke="rgb(65,170,190)" />
	<line x1="1735" y1="13300" x2="1735" y2="13575" stroke-width="3" stroke="rgb(65,170,190)" />
	<line x1="1735" y1="13575" x2="1955" y2="13575" stroke-width="3" stroke="rgb(65,170,190)" />
	<line x1="1967.5" y1="13562.5" x2="1942.5" y2="13587.5" stroke-width="8.33333" stroke="rgb(65,170,190)" />
	<line x1="1967.5" y1="13587.5" x2="1942.5" y2="13562.5" stroke-width="8.33333" stroke="rgb(65,170,190)" />
	<line x1="1735" y1="13300" x2="1735" y2="12950" stroke-width="3" stroke="rgb(65,170,190)" />
	<line x1="1735" y1="12950" x2="1955" y2="12950" stroke-width="3" stroke="rgb(65,170,190)" />
	<line x1="1955" y1="12950" x2="1955" y2="12875" stroke-width="3" stroke="rgb(65,170,190)" />
	<line x1="1955" y1="12875" x2="2835" y2="12875" stroke-width="3" stroke="rgb(65,170,190)" />
	<text x="2860" y="12875" fill="rgb(65,170,190)" font-size="18" font-family="Verdana" >pilTep_FOXP1_XM_031935180</text>
	<line x1="1955" y1="12950" x2="1955" y2="13075" stroke-width="3" stroke="rgb(65,170,190)" />
	<line x1="1955" y1="13075" x2="2145" y2="13075" stroke-width="3" stroke="rgb(65,170,190)" />
	<line x1="2157.5" y1="13062.5" x2="2132.5" y2="13087.5" stroke-width="8.33333" stroke="rgb(65,170,190)" />
	<line x1="2157.5" y1="13087.5" x2="2132.5" y2="13062.5" stroke-width="8.33333" stroke="rgb(65,170,190)" />
	<line x1="1215" y1="12800" x2="1215" y2="11925" stroke-width="3" stroke="rgb(65,170,190)" />
	<line x1="1215" y1="11925" x2="1490" y2="11925" stroke-width="3" stroke="rgb(65,170,190)" />
	<line x1="1502.5" y1="11912.5" x2="1477.5" y2="11937.5" stroke-width="8.33333" stroke="rgb(65,170,190)" />
	<line x1="1502.5" y1="11937.5" x2="1477.5" y2="11912.5" stroke-width="8.33333" stroke="rgb(65,170,190)" />
	<line x1="940" y1="11050" x2="940" y2="6175" stroke-width="3" stroke="rgb(65,170,190)" />
	<line x1="940" y1="6175" x2="1215" y2="6175" stroke-width="3" stroke="rgb(65,170,190)" />
	<line x1="1227.5" y1="6162.5" x2="1202.5" y2="6187.5" stroke-width="8.33333" stroke="rgb(65,170,190)" />
	<line x1="1227.5" y1="6187.5" x2="1202.5" y2="6162.5" stroke-width="8.33333" stroke="rgb(65,170,190)" />
	<line x1="665" y1="4700" x2="665" y2="4525" stroke-width="3" stroke="rgb(65,170,190)" />
	<line x1="665" y1="4525" x2="940" y2="4525" stroke-width="3" stroke="rgb(65,170,190)" />
	<line x1="952.5" y1="4512.5" x2="927.5" y2="4537.5" stroke-width="8.33333" stroke="rgb(65,170,190)" />
	<line x1="952.5" y1="4537.5" x2="927.5" y2="4512.5" stroke-width="8.33333" stroke="rgb(65,170,190)" />
	<line x1="390" y1="4350" x2="390" y2="1575" stroke-width="3" stroke="rgb(65,170,190)" />
	<line x1="390" y1="1575" x2="665" y2="1575" stroke-width="3" stroke="rgb(65,170,190)" />
	<line x1="677.5" y1="1562.5" x2="652.5" y2="1587.5" stroke-width="8.33333" stroke="rgb(65,170,190)" />
	<line x1="677.5" y1="1587.5" x2="652.5" y2="1562.5" stroke-width="8.33333" stroke="rgb(65,170,190)" />
	<rect x="257.5" y="4337.5" width="25" height="25" fill="rgb(65,170,190)" stroke-width="3" stroke="rgb(65,170,190)" />
	<line x1="240" y1="4375" x2="240" y2="4375" stroke-width="3" stroke="rgb(65,170,190)" />
	<line x1="240" y1="4375" x2="420" y2="4375" stroke-width="3" stroke="rgb(65,170,190)" />
	<line x1="420" y1="4375" x2="420" y2="4725" stroke-width="3" stroke="rgb(65,170,190)" />
	<line x1="420" y1="4725" x2="695" y2="4725" stroke-width="3" stroke="rgb(65,170,190)" />
	<line x1="695" y1="4725" x2="695" y2="11075" stroke-width="3" stroke="rgb(65,170,190)" />
	<line x1="695" y1="11075" x2="970" y2="11075" stroke-width="3" stroke="rgb(65,170,190)" />
	<line x1="970" y1="11075" x2="970" y2="12825" stroke-width="3" stroke="rgb(65,170,190)" />
	<line x1="970" y1="12825" x2="1245" y2="12825" stroke-width="3" stroke="rgb(65,170,190)" />
	<line x1="1245" y1="12825" x2="1245" y2="15350" stroke-width="3" stroke="rgb(65,170,190)" />
	<line x1="1245" y1="15350" x2="1520" y2="15350" stroke-width="3" stroke="rgb(65,170,190)" />
	<line x1="1520" y1="15350" x2="1520" y2="17100" stroke-width="3" stroke="rgb(65,170,190)" />
	<line x1="1520" y1="17100" x2="1765" y2="17100" stroke-width="3" stroke="rgb(65,170,190)" />
	<line x1="1777.5" y1="17087.5" x2="1752.5" y2="17112.5" stroke-width="8.33333" stroke="rgb(65,170,190)" />
	<line x1="1777.5" y1="17112.5" x2="1752.5" y2="17087.5" stroke-width="8.33333" stroke="rgb(65,170,190)" />
	<line x1="1520" y1="15350" x2="1520" y2="13325" stroke-width="3" stroke="rgb(65,170,190)" />
	<line x1="1520" y1="13325" x2="1765" y2="13325" stroke-width="3" stroke="rgb(65,170,190)" />
	<line x1="1765" y1="13325" x2="1765" y2="13600" stroke-width="3" stroke="rgb(65,170,190)" />
	<line x1="1765" y1="13600" x2="1985" y2="13600" stroke-width="3" stroke="rgb(65,170,190)" />
	<line x1="1985" y1="13600" x2="1985" y2="14350" stroke-width="3" stroke="rgb(65,170,190)" />
	<line x1="1985" y1="14350" x2="2175" y2="14350" stroke-width="3" stroke="rgb(65,170,190)" />
	<line x1="2175" y1="14350" x2="2175" y2="14675" stroke-width="3" stroke="rgb(65,170,190)" />
	<line x1="2175" y1="14675" x2="2340" y2="14675" stroke-width="3" stroke="rgb(65,170,190)" />
	<line x1="2340" y1="14675" x2="2340" y2="14975" stroke-width="3" stroke="rgb(65,170,190)" />
	<line x1="2340" y1="14975" x2="2475" y2="14975" stroke-width="3" stroke="rgb(65,170,190)" />
	<line x1="2475" y1="14975" x2="2475" y2="15075" stroke-width="3" stroke="rgb(65,170,190)" />
	<line x1="2475" y1="15075" x2="2585" y2="15075" stroke-width="3" stroke="rgb(65,170,190)" />
	<line x1="2585" y1="15075" x2="2585" y2="15175" stroke-width="3" stroke="rgb(65,170,190)" />
	<line x1="2585" y1="15175" x2="2695" y2="15175" stroke-width="3" stroke="rgb(65,170,190)" />
	<line x1="2695" y1="15175" x2="2695" y2="15225" stroke-width="3" stroke="rgb(65,170,190)" />
	<line x1="2695" y1="15225" x2="2835" y2="15225" stroke-width="3" stroke="rgb(65,170,190)" />
	<text x="2860" y="15225" fill="rgb(65,170,190)" font-size="18" font-family="Verdana" >traFra_FOXP1_XM_033210445</text>
	<line x1="2695" y1="15175" x2="2695" y2="15125" stroke-width="3" stroke="rgb(65,170,190)" />
	<line x1="2695" y1="15125" x2="2805" y2="15125" stroke-width="3" stroke="rgb(65,170,190)" />
	<line x1="2817.5" y1="15112.5" x2="2792.5" y2="15137.5" stroke-width="8.33333" stroke="rgb(65,170,190)" />
	<line x1="2817.5" y1="15137.5" x2="2792.5" y2="15112.5" stroke-width="8.33333" stroke="rgb(65,170,190)" />
	<line x1="2585" y1="15075" x2="2585" y2="15025" stroke-width="3" stroke="rgb(65,170,190)" />
	<line x1="2585" y1="15025" x2="2695" y2="15025" stroke-width="3" stroke="rgb(65,170,190)" />
	<line x1="2707.5" y1="15012.5" x2="2682.5" y2="15037.5" stroke-width="8.33333" stroke="rgb(65,170,190)" />
	<line x1="2707.5" y1="15037.5" x2="2682.5" y2="15012.5" stroke-width="8.33333" stroke="rgb(65,170,190)" />
	<line x1="2475" y1="14975" x2="2475" y2="14775" stroke-width="3" stroke="rgb(65,170,190)" />
	<line x1="2475" y1="14775" x2="2585" y2="14775" stroke-width="3" stroke="rgb(65,170,190)" />
	<line x1="2597.5" y1="14762.5" x2="2572.5" y2="14787.5" stroke-width="8.33333" stroke="rgb(65,170,190)" />
	<line x1="2597.5" y1="14787.5" x2="2572.5" y2="14762.5" stroke-width="8.33333" stroke="rgb(65,170,190)" />
	<line x1="2340" y1="14675" x2="2340" y2="14450" stroke-width="3" stroke="rgb(65,170,190)" />
	<line x1="2340" y1="14450" x2="2475" y2="14450" stroke-width="3" stroke="rgb(65,170,190)" />
	<line x1="2487.5" y1="14437.5" x2="2462.5" y2="14462.5" stroke-width="8.33333" stroke="rgb(65,170,190)" />
	<line x1="2487.5" y1="14462.5" x2="2462.5" y2="14437.5" stroke-width="8.33333" stroke="rgb(65,170,190)" />
	<line x1="2175" y1="14350" x2="2175" y2="13925" stroke-width="3" stroke="rgb(65,170,190)" />
	<line x1="2175" y1="13925" x2="2340" y2="13925" stroke-width="3" stroke="rgb(65,170,190)" />
	<line x1="2352.5" y1="13912.5" x2="2327.5" y2="13937.5" stroke-width="8.33333" stroke="rgb(65,170,190)" />
	<line x1="2352.5" y1="13937.5" x2="2327.5" y2="13912.5" stroke-width="8.33333" stroke="rgb(65,170,190)" />
	<line x1="1985" y1="13600" x2="1985" y2="13450" stroke-width="3" stroke="rgb(65,170,190)" />
	<line x1="1985" y1="13450" x2="2175" y2="13450" stroke-width="3" stroke="rgb(65,170,190)" />
	<line x1="2187.5" y1="13437.5" x2="2162.5" y2="13462.5" stroke-width="8.33333" stroke="rgb(65,170,190)" />
	<line x1="2187.5" y1="13462.5" x2="2162.5" y2="13437.5" stroke-width="8.33333" stroke="rgb(65,170,190)" />
	<line x1="1765" y1="13325" x2="1765" y2="12975" stroke-width="3" stroke="rgb(65,170,190)" />
	<line x1="1765" y1="12975" x2="1985" y2="12975" stroke-width="3" stroke="rgb(65,170,190)" />
	<line x1="1997.5" y1="12962.5" x2="1972.5" y2="12987.5" stroke-width="8.33333" stroke="rgb(65,170,190)" />
	<line x1="1997.5" y1="12987.5" x2="1972.5" y2="12962.5" stroke-width="8.33333" stroke="rgb(65,170,190)" />
	<line x1="1245" y1="12825" x2="1245" y2="11950" stroke-width="3" stroke="rgb(65,170,190)" />
	<line x1="1245" y1="11950" x2="1520" y2="11950" stroke-width="3" stroke="rgb(65,170,190)" />
	<line x1="1532.5" y1="11937.5" x2="1507.5" y2="11962.5" stroke-width="8.33333" stroke="rgb(65,170,190)" />
	<line x1="1532.5" y1="11962.5" x2="1507.5" y2="11937.5" stroke-width="8.33333" stroke="rgb(65,170,190)" />
	<line x1="970" y1="11075" x2="970" y2="6200" stroke-width="3" stroke="rgb(65,170,190)" />
	<line x1="970" y1="6200" x2="1245" y2="6200" stroke-width="3" stroke="rgb(65,170,190)" />
	<line x1="1257.5" y1="6187.5" x2="1232.5" y2="6212.5" stroke-width="8.33333" stroke="rgb(65,170,190)" />
	<line x1="1257.5" y1="6212.5" x2="1232.5" y2="6187.5" stroke-width="8.33333" stroke="rgb(65,170,190)" />
	<line x1="695" y1="4725" x2="695" y2="4550" stroke-width="3" stroke="rgb(65,170,190)" />
	<line x1="695" y1="4550" x2="970" y2="4550" stroke-width="3" stroke="rgb(65,170,190)" />
	<line x1="982.5" y1="4537.5" x2="957.5" y2="4562.5" stroke-width="8.33333" stroke="rgb(65,170,190)" />
	<line x1="982.5" y1="4562.5" x2="957.5" y2="4537.5" stroke-width="8.33333" stroke="rgb(65,170,190)" />
	<line x1="420" y1="4375" x2="420" y2="1600" stroke-width="3" stroke="rgb(65,170,190)" />
	<line x1="420" y1="1600" x2="695" y2="1600" stroke-width="3" stroke="rgb(65,170,190)" />
	<line x1="707.5" y1="1587.5" x2="682.5" y2="1612.5" stroke-width="8.33333" stroke="rgb(65,170,190)" />
	<line x1="707.5" y1="1612.5" x2="682.5" y2="1587.5" stroke-width="8.33333" stroke="rgb(65,170,190)" />
	<rect x="227.5" y="4362.5" width="25" height="25" fill="rgb(65,170,190)" stroke-width="3" stroke="rgb(65,170,190)" />
	<polygon points="255.625,4375 246.32,4370.41 244.828,4360.14 237.586,4367.57 227.359,4365.82 232.188,4375 227.359,4384.18 237.586,4382.43 244.828,4389.86 246.32,4379.59 255.625,4375 " fill="rgb(255,255,255)" stroke-width="6.25" stroke="rgb(65,170,190)" />
</svg>
