<?xml version="1.0" standalone="no" ?>
<!DOCTYPE svg PUBLIC "-//W3C//DTD SVG 1.1//EN" "http://www.w3.org/Graphics/SVG/1.1/DTD/svg11.dtd">
<svg width="2355px" height="18460px" xmlns="http://www.w3.org/2000/svg" version="1.1" >
	<polygon points="50,250 50,450 130,450 130,4250 210,4250 210,4450 320,4450 320,10650 430,10650 430,12100 540,12100 540,14300 650,14300 650,16000 760,16000 760,17100 870,17100 870,17200 950,17200 950,17800 1030,17800 1030,18100 1110,18100 1110,18300 1190,18300 1190,18400 1270,18400 1270,18450 1350,18450 1680,18450 1680,18400 1350,18400 1300,18400 1300,18400 1300,18350 1300,18350 1350,18350 1680,18350 1680,18300 1350,18300 1270,18300 1270,18350 1220,18350 1220,18300 1220,18250 1220,18200 1270,18200 1270,18250 1350,18250 1680,18250 1680,18200 1350,18200 1300,18200 1300,18200 1300,18150 1300,18150 1350,18150 1680,18150 1680,18100 1350,18100 1270,18100 1270,18150 1190,18150 1190,18250 1140,18250 1140,18100 1140,18050 1140,17900 1190,17900 1190,18000 1270,18000 1270,18050 1350,18050 1680,18050 1680,18000 1350,18000 1300,18000 1300,18000 1300,17950 1300,17950 1350,17950 1680,17950 1680,17900 1350,17900 1270,17900 1270,17950 1220,17950 1220,17900 1220,17850 1220,17850 1270,17850 1680,17850 1680,17800 1270,17800 1190,17800 1190,17850 1110,17850 1110,18050 1060,18050 1060,17800 1060,17750 1060,17400 1110,17400 1110,17500 1190,17500 1190,17600 1270,17600 1270,17700 1350,17700 1350,17750 1430,17750 1680,17750 1680,17700 1430,17700 1380,17700 1380,17700 1380,17650 1380,17650 1430,17650 1680,17650 1680,17600 1430,17600 1350,17600 1350,17650 1300,17650 1300,17600 1300,17550 1300,17550 1350,17550 1680,17550 1680,17500 1350,17500 1270,17500 1270,17550 1220,17550 1220,17500 1220,17450 1220,17450 1270,17450 1680,17450 1680,17400 1270,17400 1190,17400 1190,17450 1140,17450 1140,17400 1140,17350 1140,17300 1190,17300 1190,17350 1270,17350 1680,17350 1680,17300 1270,17300 1220,17300 1220,17300 1220,17250 1220,17250 1270,17250 1680,17250 1680,17200 1270,17200 1190,17200 1190,17250 1110,17250 1110,17350 1030,17350 1030,17750 980,17750 980,17200 980,17150 980,17150 1030,17150 1680,17150 1680,17100 1030,17100 950,17100 950,17150 900,17150 900,17100 900,17050 900,16500 950,16500 950,16600 1030,16600 1030,16800 1110,16800 1110,16900 1190,16900 1190,17000 1270,17000 1270,17050 1350,17050 1680,17050 1680,17000 1350,17000 1300,17000 1300,17000 1300,16950 1300,16950 1350,16950 1680,16950 1680,16900 1350,16900 1270,16900 1270,16950 1220,16950 1220,16900 1220,16850 1220,16850 1270,16850 1680,16850 1680,16800 1270,16800 1190,16800 1190,16850 1140,16850 1140,16800 1140,16750 1140,16700 1190,16700 1190,16750 1270,16750 1680,16750 1680,16700 1270,16700 1220,16700 1220,16700 1220,16650 1220,16650 1270,16650 1680,16650 1680,16600 1270,16600 1190,16600 1190,16650 1110,16650 1110,16750 1060,16750 1060,16600 1060,16550 1060,16550 1110,16550 1680,16550 1680,16500 1110,16500 1030,16500 1030,16550 980,16550 980,16500 980,16450 980,16200 1030,16200 1030,16300 1110,16300 1110,16400 1190,16400 1190,16450 1270,16450 1680,16450 1680,16400 1270,16400 1220,16400 1220,16400 1220,16350 1220,16350 1270,16350 1680,16350 1680,16300 1270,16300 1190,16300 1190,16350 1140,16350 1140,16300 1140,16250 1140,16250 1190,16250 1680,16250 1680,16200 1190,16200 1110,16200 1110,16250 1060,16250 1060,16200 1060,16150 1060,16100 1110,16100 1110,16150 1190,16150 1680,16150 1680,16100 1190,16100 1140,16100 1140,16100 1140,16050 1140,16050 1190,16050 1680,16050 1680,16000 1190,16000 1110,16000 1110,16050 1030,16050 1030,16150 950,16150 950,16450 870,16450 870,17050 820,17050 820,16000 820,15950 820,14900 870,14900 870,15000 950,15000 950,15100 1030,15100 1030,15400 1110,15400 1110,15500 1190,15500 1190,15600 1270,15600 1270,15800 1350,15800 1350,15900 1430,15900 1430,15950 1510,15950 1680,15950 1680,15900 1510,15900 1460,15900 1460,15900 1460,15850 1460,15850 1510,15850 1680,15850 1680,15800 1510,15800 1430,15800 1430,15850 1380,15850 1380,15800 1380,15750 1380,15700 1430,15700 1430,15750 1510,15750 1680,15750 1680,15700 1510,15700 1460,15700 1460,15700 1460,15650 1460,15650 1510,15650 1680,15650 1680,15600 1510,15600 1430,15600 1430,15650 1350,15650 1350,15750 1300,15750 1300,15600 1300,15550 1300,15550 1350,15550 1680,15550 1680,15500 1350,15500 1270,15500 1270,15550 1220,15550 1220,15500 1220,15450 1220,15450 1270,15450 1680,15450 1680,15400 1270,15400 1190,15400 1190,15450 1140,15450 1140,15400 1140,15350 1140,15200 1190,15200 1190,15300 1270,15300 1270,15350 1350,15350 1680,15350 1680,15300 1350,15300 1300,15300 1300,15300 1300,15250 1300,15250 1350,15250 1680,15250 1680,15200 1350,15200 1270,15200 1270,15250 1220,15250 1220,15200 1220,15150 1220,15150 1270,15150 1680,15150 1680,15100 1270,15100 1190,15100 1190,15150 1110,15150 1110,15350 1060,15350 1060,15100 1060,15050 1060,15050 1110,15050 1680,15050 1680,15000 1110,15000 1030,15000 1030,15050 980,15050 980,15000 980,14950 980,14950 1030,14950 1680,14950 1680,14900 1030,14900 950,14900 950,14950 900,14950 900,14900 900,14850 900,14400 950,14400 950,14600 1030,14600 1030,14700 1110,14700 1110,14800 1190,14800 1190,14850 1270,14850 1680,14850 1680,14800 1270,14800 1220,14800 1220,14800 1220,14750 1220,14750 1270,14750 1680,14750 1680,14700 1270,14700 1190,14700 1190,14750 1140,14750 1140,14700 1140,14650 1140,14650 1190,14650 1680,14650 1680,14600 1190,14600 1110,14600 1110,14650 1060,14650 1060,14600 1060,14550 1060,14500 1110,14500 1110,14550 1190,14550 1680,14550 1680,14500 1190,14500 1140,14500 1140,14500 1140,14450 1140,14450 1190,14450 1680,14450 1680,14400 1190,14400 1110,14400 1110,14450 1030,14450 1030,14550 980,14550 980,14400 980,14350 980,14350 1030,14350 1680,14350 1680,14300 1030,14300 950,14300 950,14350 870,14350 870,14850 760,14850 760,15950 710,15950 710,14300 710,14250 710,12500 760,12500 760,12700 870,12700 870,13400 980,13400 980,13700 1090,13700 1090,14000 1200,14000 1200,14100 1310,14100 1310,14200 1420,14200 1420,14250 1530,14250 1680,14250 1680,14200 1530,14200 1480,14200 1480,14200 1480,14150 1480,14150 1530,14150 1680,14150 1680,14100 1530,14100 1420,14100 1420,14150 1370,14150 1370,14100 1370,14050 1370,14050 1420,14050 1680,14050 1680,14000 1420,14000 1310,14000 1310,14050 1260,14050 1260,14000 1260,13950 1260,13800 1310,13800 1310,13900 1420,13900 1420,13950 1500,13950 1680,13950 1680,13900 1500,13900 1450,13900 1450,13900 1450,13850 1450,13850 1500,13850 1680,13850 1680,13800 1500,13800 1420,13800 1420,13850 1370,13850 1370,13800 1370,13750 1370,13750 1420,13750 1680,13750 1680,13700 1420,13700 1310,13700 1310,13750 1200,13750 1200,13950 1150,13950 1150,13700 1150,13650 1150,13500 1200,13500 1200,13600 1310,13600 1310,13650 1390,13650 1680,13650 1680,13600 1390,13600 1340,13600 1340,13600 1340,13550 1340,13550 1390,13550 1680,13550 1680,13500 1390,13500 1310,13500 1310,13550 1260,13550 1260,13500 1260,13450 1260,13450 1310,13450 1680,13450 1680,13400 1310,13400 1200,13400 1200,13450 1090,13450 1090,13650 1040,13650 1040,13400 1040,13350 1040,13000 1090,13000 1090,13100 1200,13100 1200,13200 1310,13200 1310,13300 1390,13300 1390,13350 1470,13350 1680,13350 1680,13300 1470,13300 1420,13300 1420,13300 1420,13250 1420,13250 1470,13250 1680,13250 1680,13200 1470,13200 1390,13200 1390,13250 1340,13250 1340,13200 1340,13150 1340,13150 1390,13150 1680,13150 1680,13100 1390,13100 1310,13100 1310,13150 1260,13150 1260,13100 1260,13050 1260,13050 1310,13050 1680,13050 1680,13000 1310,13000 1200,13000 1200,13050 1150,13050 1150,13000 1150,12950 1150,12800 1200,12800 1200,12900 1310,12900 1310,12950 1420,12950 1680,12950 1680,12900 1420,12900 1370,12900 1370,12900 1370,12850 1370,12850 1420,12850 1680,12850 1680,12800 1420,12800 1310,12800 1310,12850 1260,12850 1260,12800 1260,12750 1260,12750 1310,12750 1680,12750 1680,12700 1310,12700 1200,12700 1200,12750 1090,12750 1090,12950 980,12950 980,13350 930,13350 930,12700 930,12650 930,12600 980,12600 980,12650 1090,12650 1680,12650 1680,12600 1090,12600 1040,12600 1040,12600 1040,12550 1040,12550 1090,12550 1680,12550 1680,12500 1090,12500 980,12500 980,12550 870,12550 870,12650 820,12650 820,12500 820,12450 820,12200 870,12200 870,12300 980,12300 980,12400 1090,12400 1090,12450 1170,12450 1680,12450 1680,12400 1170,12400 1120,12400 1120,12400 1120,12350 1120,12350 1170,12350 1680,12350 1680,12300 1170,12300 1090,12300 1090,12350 1040,12350 1040,12300 1040,12250 1040,12250 1090,12250 1680,12250 1680,12200 1090,12200 980,12200 980,12250 930,12250 930,12200 930,12150 930,12150 980,12150 1680,12150 1680,12100 980,12100 870,12100 870,12150 760,12150 760,12450 650,12450 650,14250 600,14250 600,12100 600,12050 600,11300 650,11300 650,11700 760,11700 760,11800 870,11800 870,11900 950,11900 950,12000 1030,12000 1030,12050 1110,12050 1680,12050 1680,12000 1110,12000 1060,12000 1060,12000 1060,11950 1060,11950 1110,11950 1680,11950 1680,11900 1110,11900 1030,11900 1030,11950 980,11950 980,11900 980,11850 980,11850 1030,11850 1680,11850 1680,11800 1030,11800 950,11800 950,11850 900,11850 900,11800 900,11750 900,11750 950,11750 1680,11750 1680,11700 950,11700 870,11700 870,11750 820,11750 820,11700 820,11650 820,11500 870,11500 870,11600 950,11600 950,11650 1030,11650 1680,11650 1680,11600 1030,11600 980,11600 980,11600 980,11550 980,11550 1030,11550 1680,11550 1680,11500 1030,11500 950,11500 950,11550 900,11550 900,11500 900,11450 900,11400 950,11400 950,11450 1030,11450 1680,11450 1680,11400 1030,11400 980,11400 980,11400 980,11350 980,11350 1030,11350 1680,11350 1680,11300 1030,11300 950,11300 950,11350 870,11350 870,11450 760,11450 760,11650 710,11650 710,11300 710,11250 710,10900 760,10900 760,11000 870,11000 870,11100 980,11100 980,11200 1060,11200 1060,11250 1140,11250 1680,11250 1680,11200 1140,11200 1090,11200 1090,11200 1090,11150 1090,11150 1140,11150 1680,11150 1680,11100 1140,11100 1060,11100 1060,11150 1010,11150 1010,11100 1010,11050 1010,11050 1060,11050 1680,11050 1680,11000 1060,11000 980,11000 980,11050 930,11050 930,11000 930,10950 930,10950 980,10950 1680,10950 1680,10900 980,10900 870,10900 870,10950 820,10950 820,10900 820,10850 820,10750 870,10750 870,10850 980,10850 1680,10850 1680,10750 980,10750 930,10750 930,10750 930,10700 930,10700 980,10700 1680,10700 1680,10650 980,10650 870,10650 870,10700 760,10700 760,10850 650,10850 650,11250 540,11250 540,12050 490,12050 490,10650 490,10600 490,5850 540,5850 540,7250 650,7250 650,8250 760,8250 760,8650 870,8650 870,9550 980,9550 980,9750 1090,9750 1090,9850 1170,9850 1170,10150 1250,10150 1250,10250 1330,10250 1330,10350 1410,10350 1410,10450 1490,10450 1490,10550 1570,10550 1570,10600 1650,10600 1680,10600 1680,10550 1650,10550 1600,10550 1600,10550 1600,10500 1600,10500 1650,10500 1680,10500 1680,10450 1650,10450 1570,10450 1570,10500 1520,10500 1520,10450 1520,10400 1520,10400 1570,10400 1680,10400 1680,10350 1570,10350 1490,10350 1490,10400 1440,10400 1440,10350 1440,10300 1440,10300 1490,10300 1680,10300 1680,10250 1490,10250 1410,10250 1410,10300 1360,10300 1360,10250 1360,10200 1360,10200 1410,10200 1680,10200 1680,10150 1410,10150 1330,10150 1330,10200 1280,10200 1280,10150 1280,10100 1280,9950 1330,9950 1330,10050 1410,10050 1410,10100 1490,10100 1680,10100 1680,10050 1490,10050 1440,10050 1440,10050 1440,10000 1440,10000 1490,10000 1680,10000 1680,9950 1490,9950 1410,9950 1410,10000 1360,10000 1360,9950 1360,9900 1360,9900 1410,9900 1680,9900 1680,9850 1410,9850 1330,9850 1330,9900 1250,9900 1250,10100 1200,10100 1200,9850 1200,9800 1200,9800 1250,9800 1680,9800 1680,9750 1250,9750 1170,9750 1170,9800 1120,9800 1120,9750 1120,9700 1120,9650 1170,9650 1170,9700 1250,9700 1680,9700 1680,9650 1250,9650 1200,9650 1200,9650 1200,9600 1200,9600 1250,9600 1680,9600 1680,9550 1250,9550 1170,9550 1170,9600 1090,9600 1090,9700 1040,9700 1040,9550 1040,9500 1040,8750 1090,8750 1090,9050 1170,9050 1170,9250 1250,9250 1250,9350 1330,9350 1330,9450 1410,9450 1410,9500 1490,9500 1680,9500 1680,9450 1490,9450 1440,9450 1440,9450 1440,9400 1440,9400 1490,9400 1680,9400 1680,9350 1490,9350 1410,9350 1410,9400 1360,9400 1360,9350 1360,9300 1360,9300 1410,9300 1680,9300 1680,9250 1410,9250 1330,9250 1330,9300 1280,9300 1280,9250 1280,9200 1280,9150 1330,9150 1330,9200 1410,9200 1680,9200 1680,9150 1410,9150 1360,9150 1360,9150 1360,9100 1360,9100 1410,9100 1680,9100 1680,9050 1410,9050 1330,9050 1330,9100 1250,9100 1250,9200 1200,9200 1200,9050 1200,9000 1200,8850 1250,8850 1250,8950 1330,8950 1330,9000 1410,9000 1680,9000 1680,8950 1410,8950 1360,8950 1360,8950 1360,8900 1360,8900 1410,8900 1680,8900 1680,8850 1410,8850 1330,8850 1330,8900 1280,8900 1280,8850 1280,8800 1280,8800 1330,8800 1680,8800 1680,8750 1330,8750 1250,8750 1250,8800 1170,8800 1170,9000 1120,9000 1120,8750 1120,8700 1120,8700 1170,8700 1680,8700 1680,8650 1170,8650 1090,8650 1090,8700 980,8700 980,9500 930,9500 930,8650 930,8600 930,8450 980,8450 980,8550 1090,8550 1090,8600 1200,8600 1680,8600 1680,8550 1200,8550 1150,8550 1150,8550 1150,8500 1150,8500 1200,8500 1680,8500 1680,8450 1200,8450 1090,8450 1090,8500 1040,8500 1040,8450 1040,8400 1040,8350 1090,8350 1090,8400 1200,8400 1680,8400 1680,8350 1200,8350 1150,8350 1150,8350 1150,8300 1150,8300 1200,8300 1680,8300 1680,8250 1200,8250 1090,8250 1090,8300 980,8300 980,8400 870,8400 870,8600 820,8600 820,8250 820,8200 820,7650 870,7650 870,7950 980,7950 980,8050 1060,8050 1060,8150 1140,8150 1140,8200 1220,8200 1680,8200 1680,8150 1220,8150 1170,8150 1170,8150 1170,8100 1170,8100 1220,8100 1680,8100 1680,8050 1220,8050 1140,8050 1140,8100 1090,8100 1090,8050 1090,8000 1090,8000 1140,8000 1680,8000 1680,7950 1140,7950 1060,7950 1060,8000 1010,8000 1010,7950 1010,7900 1010,7750 1060,7750 1060,7850 1140,7850 1140,7900 1220,7900 1680,7900 1680,7850 1220,7850 1170,7850 1170,7850 1170,7800 1170,7800 1220,7800 1680,7800 1680,7750 1220,7750 1140,7750 1140,7800 1090,7800 1090,7750 1090,7700 1090,7700 1140,7700 1680,7700 1680,7650 1140,7650 1060,7650 1060,7700 980,7700 980,7900 930,7900 930,7650 930,7600 930,7350 980,7350 980,7450 1060,7450 1060,7550 1140,7550 1140,7600 1220,7600 1680,7600 1680,7550 1220,7550 1170,7550 1170,7550 1170,7500 1170,7500 1220,7500 1680,7500 1680,7450 1220,7450 1140,7450 1140,7500 1090,7500 1090,7450 1090,7400 1090,7400 1140,7400 1680,7400 1680,7350 1140,7350 1060,7350 1060,7400 1010,7400 1010,7350 1010,7300 1010,7300 1060,7300 1680,7300 1680,7250 1060,7250 980,7250 980,7300 870,7300 870,7600 760,7600 760,8200 710,8200 710,7250 710,7200 710,6250 760,6250 760,6650 870,6650 870,6850 950,6850 950,6950 1030,6950 1030,7050 1110,7050 1110,7150 1190,7150 1190,7200 1270,7200 1680,7200 1680,7150 1270,7150 1220,7150 1220,7150 1220,7100 1220,7100 1270,7100 1680,7100 1680,7050 1270,7050 1190,7050 1190,7100 1140,7100 1140,7050 1140,7000 1140,7000 1190,7000 1680,7000 1680,6950 1190,6950 1110,6950 1110,7000 1060,7000 1060,6950 1060,6900 1060,6900 1110,6900 1680,6900 1680,6850 1110,6850 1030,6850 1030,6900 980,6900 980,6850 980,6800 980,6750 1030,6750 1030,6800 1110,6800 1680,6800 1680,6750 1110,6750 1060,6750 1060,6750 1060,6700 1060,6700 1110,6700 1680,6700 1680,6650 1110,6650 1030,6650 1030,6700 950,6700 950,6800 900,6800 900,6650 900,6600 900,6450 950,6450 950,6550 1030,6550 1030,6600 1110,6600 1680,6600 1680,6550 1110,6550 1060,6550 1060,6550 1060,6500 1060,6500 1110,6500 1680,6500 1680,6450 1110,6450 1030,6450 1030,6500 980,6500 980,6450 980,6400 980,6350 1030,6350 1030,6400 1110,6400 1680,6400 1680,6350 1110,6350 1060,6350 1060,6350 1060,6300 1060,6300 1110,6300 1680,6300 1680,6250 1110,6250 1030,6250 1030,6300 950,6300 950,6400 870,6400 870,6600 820,6600 820,6250 820,6200 820,5950 870,5950 870,6050 950,6050 950,6150 1030,6150 1030,6200 1110,6200 1680,6200 1680,6150 1110,6150 1060,6150 1060,6150 1060,6100 1060,6100 1110,6100 1680,6100 1680,6050 1110,6050 1030,6050 1030,6100 980,6100 980,6050 980,6000 980,6000 1030,6000 1680,6000 1680,5950 1030,5950 950,5950 950,6000 900,6000 900,5950 900,5900 900,5900 950,5900 1680,5900 1680,5850 950,5850 870,5850 870,5900 760,5900 760,6200 650,6200 650,7200 600,7200 600,5850 600,5800 600,5050 650,5050 650,5350 760,5350 760,5550 840,5550 840,5650 920,5650 920,5750 1000,5750 1000,5800 1080,5800 1680,5800 1680,5750 1080,5750 1030,5750 1030,5750 1030,5700 1030,5700 1080,5700 1680,5700 1680,5650 1080,5650 1000,5650 1000,5700 950,5700 950,5650 950,5600 950,5600 1000,5600 1680,5600 1680,5550 1000,5550 920,5550 920,5600 870,5600 870,5550 870,5500 870,5450 920,5450 920,5500 1000,5500 1680,5500 1680,5450 1000,5450 950,5450 950,5450 950,5400 950,5400 1000,5400 1680,5400 1680,5350 1000,5350 920,5350 920,5400 840,5400 840,5500 790,5500 790,5350 790,5300 790,5150 840,5150 840,5250 920,5250 920,5300 1000,5300 1680,5300 1680,5250 1000,5250 950,5250 950,5250 950,5200 950,5200 1000,5200 1680,5200 1680,5150 1000,5150 920,5150 920,5200 870,5200 870,5150 870,5100 870,5100 920,5100 1680,5100 1680,5050 920,5050 840,5050 840,5100 760,5100 760,5300 710,5300 710,5050 710,5000 710,4650 760,4650 760,4850 840,4850 840,4950 920,4950 920,5000 1000,5000 1680,5000 1680,4950 1000,4950 950,4950 950,4950 950,4900 950,4900 1000,4900 1680,4900 1680,4850 1000,4850 920,4850 920,4900 870,4900 870,4850 870,4800 870,4750 920,4750 920,4800 1000,4800 1680,4800 1680,4750 1000,4750 950,4750 950,4750 950,4700 950,4700 1000,4700 1680,4700 1680,4650 1000,4650 920,4650 920,4700 840,4700 840,4800 790,4800 790,4650 790,4600 790,4550 840,4550 840,4600 920,4600 1680,4600 1680,4550 920,4550 870,4550 870,4550 870,4500 870,4500 920,4500 1680,4500 1680,4450 920,4450 840,4450 840,4500 760,4500 760,4600 650,4600 650,5000 540,5000 540,5800 430,5800 430,10600 380,10600 380,4450 380,4400 380,4350 430,4350 430,4400 540,4400 1680,4400 1680,4350 540,4350 490,4350 490,4350 490,4300 490,4300 540,4300 1680,4300 1680,4250 540,4250 430,4250 430,4300 320,4300 320,4400 270,4400 270,4250 270,4200 270,1550 320,1550 320,1650 430,1650 430,2950 540,2950 540,3050 650,3050 650,3350 760,3350 760,3450 870,3450 870,3650 980,3650 980,3750 1060,3750 1060,3950 1140,3950 1140,4050 1220,4050 1220,4150 1300,4150 1300,4200 1380,4200 1680,4200 1680,4150 1380,4150 1330,4150 1330,4150 1330,4100 1330,4100 1380,4100 1680,4100 1680,4050 1380,4050 1300,4050 1300,4100 1250,4100 1250,4050 1250,4000 1250,4000 1300,4000 1680,4000 1680,3950 1300,3950 1220,3950 1220,4000 1170,4000 1170,3950 1170,3900 1170,3850 1220,3850 1220,3900 1300,3900 1680,3900 1680,3850 1300,3850 1250,3850 1250,3850 1250,3800 1250,3800 1300,3800 1680,3800 1680,3750 1300,3750 1220,3750 1220,3800 1140,3800 1140,3900 1090,3900 1090,3750 1090,3700 1090,3700 1140,3700 1680,3700 1680,3650 1140,3650 1060,3650 1060,3700 1010,3700 1010,3650 1010,3600 1010,3550 1060,3550 1060,3600 1140,3600 1680,3600 1680,3550 1140,3550 1090,3550 1090,3550 1090,3500 1090,3500 1140,3500 1680,3500 1680,3450 1140,3450 1060,3450 1060,3500 980,3500 980,3600 930,3600 930,3450 930,3400 930,3400 980,3400 1680,3400 1680,3350 980,3350 870,3350 870,3400 820,3400 820,3350 820,3300 820,3150 870,3150 870,3250 980,3250 980,3300 1090,3300 1680,3300 1680,3250 1090,3250 1040,3250 1040,3250 1040,3200 1040,3200 1090,3200 1680,3200 1680,3150 1090,3150 980,3150 980,3200 930,3200 930,3150 930,3100 930,3100 980,3100 1680,3100 1680,3050 980,3050 870,3050 870,3100 760,3100 760,3300 710,3300 710,3050 710,3000 710,3000 760,3000 1680,3000 1680,2950 760,2950 650,2950 650,3000 600,3000 600,2950 600,2900 600,2150 650,2150 650,2450 760,2450 760,2550 870,2550 870,2650 980,2650 980,2750 1060,2750 1060,2850 1140,2850 1140,2900 1220,2900 1680,2900 1680,2850 1220,2850 1170,2850 1170,2850 1170,2800 1170,2800 1220,2800 1680,2800 1680,2750 1220,2750 1140,2750 1140,2800 1090,2800 1090,2750 1090,2700 1090,2700 1140,2700 1680,2700 1680,2650 1140,2650 1060,2650 1060,2700 1010,2700 1010,2650 1010,2600 1010,2600 1060,2600 1680,2600 1680,2550 1060,2550 980,2550 980,2600 930,2600 930,2550 930,2500 930,2500 980,2500 1680,2500 1680,2450 980,2450 870,2450 870,2500 820,2500 820,2450 820,2400 820,2250 870,2250 870,2350 980,2350 980,2400 1090,2400 1680,2400 1680,2350 1090,2350 1040,2350 1040,2350 1040,2300 1040,2300 1090,2300 1680,2300 1680,2250 1090,2250 980,2250 980,2300 930,2300 930,2250 930,2200 930,2200 980,2200 1680,2200 1680,2150 980,2150 870,2150 870,2200 760,2200 760,2400 710,2400 710,2150 710,2100 710,1750 760,1750 760,1950 870,1950 870,2050 950,2050 950,2100 1030,2100 1680,2100 1680,2050 1030,2050 980,2050 980,2050 980,2000 980,2000 1030,2000 1680,2000 1680,1950 1030,1950 950,1950 950,2000 900,2000 900,1950 900,1900 900,1850 950,1850 950,1900 1030,1900 1680,1900 1680,1850 1030,1850 980,1850 980,1850 980,1800 980,1800 1030,1800 1680,1800 1680,1750 1030,1750 950,1750 950,1800 870,1800 870,1900 820,1900 820,1750 820,1700 820,1700 870,1700 1680,1700 1680,1650 870,1650 760,1650 760,1700 650,1700 650,2100 540,2100 540,2900 490,2900 490,1650 490,1600 490,1600 540,1600 1680,1600 1680,1550 540,1550 430,1550 430,1600 380,1600 380,1550 380,1500 380,950 430,950 430,1150 540,1150 540,1250 620,1250 620,1350 700,1350 700,1450 780,1450 780,1500 860,1500 1680,1500 1680,1450 860,1450 810,1450 810,1450 810,1400 810,1400 860,1400 1680,1400 1680,1350 860,1350 780,1350 780,1400 730,1400 730,1350 730,1300 730,1300 780,1300 1680,1300 1680,1250 780,1250 700,1250 700,1300 650,1300 650,1250 650,1200 650,1200 700,1200 1680,1200 1680,1150 700,1150 620,1150 620,1200 570,1200 570,1150 570,1100 570,1050 620,1050 620,1100 700,1100 1680,1100 1680,1050 700,1050 650,1050 650,1050 650,1000 650,1000 700,1000 1680,1000 1680,950 700,950 620,950 620,1000 540,1000 540,1100 490,1100 490,950 490,900 490,550 540,550 540,750 620,750 620,850 700,850 700,900 780,900 1680,900 1680,850 780,850 730,850 730,850 730,800 730,800 780,800 1680,800 1680,750 780,750 700,750 700,800 650,800 650,750 650,700 650,650 700,650 700,700 780,700 1680,700 1680,650 780,650 730,650 730,650 730,600 730,600 780,600 1680,600 1680,550 780,550 700,550 700,600 620,600 620,700 570,700 570,550 570,500 570,500 620,500 1680,500 1680,450 620,450 540,450 540,500 430,500 430,900 320,900 320,1500 210,1500 210,4200 160,4200 160,450 160,400 160,350 210,350 210,400 290,400 1680,400 1680,350 290,350 240,350 240,350 240,300 240,300 290,300 1680,300 1680,250 290,250 210,250 210,300 130,300 130,400 80,400 80,250 80,200 80,150 130,150 130,200 210,200 1680,200 1680,150 210,150 160,150 160,150 160,100 160,100 210,100 1680,100 1680,50 210,50 130,50 130,100 50,100 50,200 " fill="rgb(255,255,255)" stroke-width="10" stroke="rgb(120,120,120)" />
	<text x="1602" y="18382" fill="rgb(0,0,0)" font-size="24" font-family="Verdana" >macNig</text>
	<text x="1602" y="18282" fill="rgb(0,0,0)" font-size="24" font-family="Verdana" >macOrc</text>
	<text x="1602" y="18182" fill="rgb(0,0,0)" font-size="24" font-family="Verdana" >macMau</text>
	<text x="1602" y="18082" fill="rgb(0,0,0)" font-size="24" font-family="Verdana" >macTon</text>
	<text x="1602" y="17982" fill="rgb(0,0,0)" font-size="24" font-family="Verdana" >macNem</text>
	<text x="1602" y="17882" fill="rgb(0,0,0)" font-size="24" font-family="Verdana" >macSil</text>
	<text x="1602" y="17782" fill="rgb(0,0,0)" font-size="24" font-family="Verdana" >macSib</text>
	<text x="1602" y="17682" fill="rgb(0,0,0)" font-size="24" font-family="Verdana" >macMul</text>
	<text x="1602" y="17582" fill="rgb(0,0,0)" font-size="24" font-family="Verdana" >macFus</text>
	<text x="1602" y="17482" fill="rgb(0,0,0)" font-size="24" font-family="Verdana" >macCyc</text>
	<text x="1602" y="17382" fill="rgb(0,0,0)" font-size="24" font-family="Verdana" >macFas</text>
	<text x="1602" y="17282" fill="rgb(0,0,0)" font-size="24" font-family="Verdana" >macArc</text>
	<text x="1602" y="17182" fill="rgb(0,0,0)" font-size="24" font-family="Verdana" >macThi</text>
	<text x="1602" y="17082" fill="rgb(0,0,0)" font-size="24" font-family="Verdana" >macSyl</text>
	<text x="1602" y="16982" fill="rgb(0,0,0)" font-size="24" font-family="Verdana" >papHam</text>
	<text x="1602" y="16882" fill="rgb(0,0,0)" font-size="24" font-family="Verdana" >papAnu</text>
	<text x="1602" y="16782" fill="rgb(0,0,0)" font-size="24" font-family="Verdana" >papPap</text>
	<text x="1602" y="16682" fill="rgb(0,0,0)" font-size="24" font-family="Verdana" >lopAte</text>
	<text x="1602" y="16582" fill="rgb(0,0,0)" font-size="24" font-family="Verdana" >lopAlb</text>
	<text x="1602" y="16482" fill="rgb(0,0,0)" font-size="24" font-family="Verdana" >theGel</text>
	<text x="1602" y="16382" fill="rgb(0,0,0)" font-size="24" font-family="Verdana" >cerAgi</text>
	<text x="1602" y="16282" fill="rgb(0,0,0)" font-size="24" font-family="Verdana" >cerChr</text>
	<text x="1602" y="16182" fill="rgb(0,0,0)" font-size="24" font-family="Verdana" >cerTor</text>
	<text x="1602" y="16082" fill="rgb(0,0,0)" font-size="24" font-family="Verdana" >manLeu</text>
	<text x="1602" y="15982" fill="rgb(0,0,0)" font-size="24" font-family="Verdana" >manSph</text>
	<text x="1602" y="15882" fill="rgb(0,0,0)" font-size="24" font-family="Verdana" >cerMit</text>
	<text x="1602" y="15782" fill="rgb(0,0,0)" font-size="24" font-family="Verdana" >cerAlb</text>
	<text x="1602" y="15682" fill="rgb(0,0,0)" font-size="24" font-family="Verdana" >cerCep</text>
	<text x="1602" y="15582" fill="rgb(0,0,0)" font-size="24" font-family="Verdana" >cerAsc</text>
	<text x="1602" y="15482" fill="rgb(0,0,0)" font-size="24" font-family="Verdana" >cerPet</text>
	<text x="1602" y="15382" fill="rgb(0,0,0)" font-size="24" font-family="Verdana" >cerDia</text>
	<text x="1602" y="15282" fill="rgb(0,0,0)" font-size="24" font-family="Verdana" >cerWol</text>
	<text x="1602" y="15182" fill="rgb(0,0,0)" font-size="24" font-family="Verdana" >cerMon</text>
	<text x="1602" y="15082" fill="rgb(0,0,0)" font-size="24" font-family="Verdana" >cerNeg</text>
	<text x="1602" y="14982" fill="rgb(0,0,0)" font-size="24" font-family="Verdana" >cerHam</text>
	<text x="1602" y="14882" fill="rgb(0,0,0)" font-size="24" font-family="Verdana" >mioOgo</text>
	<text x="1602" y="14782" fill="rgb(0,0,0)" font-size="24" font-family="Verdana" >chlAet</text>
	<text x="1602" y="14682" fill="rgb(0,0,0)" font-size="24" font-family="Verdana" >chlSab</text>
	<text x="1602" y="14582" fill="rgb(0,0,0)" font-size="24" font-family="Verdana" >chlCyn</text>
	<text x="1602" y="14482" fill="rgb(0,0,0)" font-size="24" font-family="Verdana" >eryPat</text>
	<text x="1602" y="14382" fill="rgb(0,0,0)" font-size="24" font-family="Verdana" >cerLho</text>
	<text x="1602" y="14282" fill="rgb(0,0,0)" font-size="24" font-family="Verdana" >allNig</text>
	<text x="1602" y="14182" fill="rgb(0,0,0)" font-size="24" font-family="Verdana" >traFra</text>
	<text x="1602" y="14082" fill="rgb(0,0,0)" font-size="24" font-family="Verdana" >traDel</text>
	<text x="1602" y="13982" fill="rgb(0,0,0)" font-size="24" font-family="Verdana" >traHat</text>
	<text x="1602" y="13882" fill="rgb(0,0,0)" font-size="24" font-family="Verdana" >traObs</text>
	<text x="1602" y="13782" fill="rgb(0,0,0)" font-size="24" font-family="Verdana" >traPha</text>
	<text x="1602" y="13682" fill="rgb(0,0,0)" font-size="24" font-family="Verdana" >traAur</text>
	<text x="1602" y="13582" fill="rgb(0,0,0)" font-size="24" font-family="Verdana" >semHec</text>
	<text x="1602" y="13482" fill="rgb(0,0,0)" font-size="24" font-family="Verdana" >semEnt</text>
	<text x="1602" y="13382" fill="rgb(0,0,0)" font-size="24" font-family="Verdana" >traVet</text>
	<text x="1602" y="13282" fill="rgb(0,0,0)" font-size="24" font-family="Verdana" >pygCin</text>
	<text x="1602" y="13182" fill="rgb(0,0,0)" font-size="24" font-family="Verdana" >pygNem</text>
	<text x="1602" y="13082" fill="rgb(0,0,0)" font-size="24" font-family="Verdana" >pygNig</text>
	<text x="1602" y="12982" fill="rgb(0,0,0)" font-size="24" font-family="Verdana" >nasLar</text>
	<text x="1602" y="12882" fill="rgb(0,0,0)" font-size="24" font-family="Verdana" >rhiRox</text>
	<text x="1602" y="12782" fill="rgb(0,0,0)" font-size="24" font-family="Verdana" >rhiBie</text>
	<text x="1602" y="12682" fill="rgb(0,0,0)" font-size="24" font-family="Verdana" >rhiBre</text>
	<text x="1602" y="12582" fill="rgb(0,0,0)" font-size="24" font-family="Verdana" >preMel</text>
	<text x="1602" y="12482" fill="rgb(0,0,0)" font-size="24" font-family="Verdana" >preCom</text>
	<text x="1602" y="12382" fill="rgb(0,0,0)" font-size="24" font-family="Verdana" >colGue</text>
	<text x="1602" y="12282" fill="rgb(0,0,0)" font-size="24" font-family="Verdana" >colPol</text>
	<text x="1602" y="12182" fill="rgb(0,0,0)" font-size="24" font-family="Verdana" >colAng</text>
	<text x="1602" y="12082" fill="rgb(0,0,0)" font-size="24" font-family="Verdana" >pilTep</text>
	<text x="1602" y="11982" fill="rgb(0,0,0)" font-size="24" font-family="Verdana" >hylMue</text>
	<text x="1602" y="11882" fill="rgb(0,0,0)" font-size="24" font-family="Verdana" >hylAgi</text>
	<text x="1602" y="11782" fill="rgb(0,0,0)" font-size="24" font-family="Verdana" >hylLar</text>
	<text x="1602" y="11682" fill="rgb(0,0,0)" font-size="24" font-family="Verdana" >symSyn</text>
	<text x="1602" y="11582" fill="rgb(0,0,0)" font-size="24" font-family="Verdana" >nomLeu</text>
	<text x="1602" y="11482" fill="rgb(0,0,0)" font-size="24" font-family="Verdana" >nomSik</text>
	<text x="1602" y="11382" fill="rgb(0,0,0)" font-size="24" font-family="Verdana" >nomGab</text>
	<text x="1602" y="11282" fill="rgb(0,0,0)" font-size="24" font-family="Verdana" >nomCon</text>
	<text x="1602" y="11182" fill="rgb(0,0,0)" font-size="24" font-family="Verdana" >panTro</text>
	<text x="1602" y="11082" fill="rgb(0,0,0)" font-size="24" font-family="Verdana" >panPan</text>
	<text x="1602" y="10982" fill="rgb(0,0,0)" font-size="24" font-family="Verdana" >homSap</text>
	<text x="1602" y="10882" fill="rgb(0,0,0)" font-size="24" font-family="Verdana" >gorGor</text>
	<text x="1602" y="10732" fill="rgb(0,0,0)" font-size="24" font-family="Verdana" >ponPyg</text>
	<text x="1602" y="10632" fill="rgb(0,0,0)" font-size="24" font-family="Verdana" >ponAbe</text>
	<text x="1602" y="10532" fill="rgb(0,0,0)" font-size="24" font-family="Verdana" >calJac</text>
	<text x="1602" y="10432" fill="rgb(0,0,0)" font-size="24" font-family="Verdana" >calPen</text>
	<text x="1602" y="10332" fill="rgb(0,0,0)" font-size="24" font-family="Verdana" >calKuh</text>
	<text x="1602" y="10232" fill="rgb(0,0,0)" font-size="24" font-family="Verdana" >calGeo</text>
	<text x="1602" y="10132" fill="rgb(0,0,0)" font-size="24" font-family="Verdana" >calAur</text>
	<text x="1602" y="10032" fill="rgb(0,0,0)" font-size="24" font-family="Verdana" >micArg</text>
	<text x="1602" y="9932" fill="rgb(0,0,0)" font-size="24" font-family="Verdana" >micHum</text>
	<text x="1602" y="9832" fill="rgb(0,0,0)" font-size="24" font-family="Verdana" >cebPyg</text>
	<text x="1602" y="9732" fill="rgb(0,0,0)" font-size="24" font-family="Verdana" >calGoe</text>
	<text x="1602" y="9632" fill="rgb(0,0,0)" font-size="24" font-family="Verdana" >leoRos</text>
	<text x="1602" y="9532" fill="rgb(0,0,0)" font-size="24" font-family="Verdana" >leoChr</text>
	<text x="1602" y="9432" fill="rgb(0,0,0)" font-size="24" font-family="Verdana" >sagMar</text>
	<text x="1602" y="9332" fill="rgb(0,0,0)" font-size="24" font-family="Verdana" >sagBic</text>
	<text x="1602" y="9232" fill="rgb(0,0,0)" font-size="24" font-family="Verdana" >sagMid</text>
	<text x="1602" y="9132" fill="rgb(0,0,0)" font-size="24" font-family="Verdana" >sagOed</text>
	<text x="1602" y="9032" fill="rgb(0,0,0)" font-size="24" font-family="Verdana" >sagGeo</text>
	<text x="1602" y="8932" fill="rgb(0,0,0)" font-size="24" font-family="Verdana" >sagMys</text>
	<text x="1602" y="8832" fill="rgb(0,0,0)" font-size="24" font-family="Verdana" >sagLab</text>
	<text x="1602" y="8732" fill="rgb(0,0,0)" font-size="24" font-family="Verdana" >sagImp</text>
	<text x="1602" y="8632" fill="rgb(0,0,0)" font-size="24" font-family="Verdana" >sagFus</text>
	<text x="1602" y="8532" fill="rgb(0,0,0)" font-size="24" font-family="Verdana" >aotAza</text>
	<text x="1602" y="8432" fill="rgb(0,0,0)" font-size="24" font-family="Verdana" >aotNan</text>
	<text x="1602" y="8332" fill="rgb(0,0,0)" font-size="24" font-family="Verdana" >aotTri</text>
	<text x="1602" y="8232" fill="rgb(0,0,0)" font-size="24" font-family="Verdana" >aotLem</text>
	<text x="1602" y="8132" fill="rgb(0,0,0)" font-size="24" font-family="Verdana" >cebXan</text>
	<text x="1602" y="8032" fill="rgb(0,0,0)" font-size="24" font-family="Verdana" >cebRob</text>
	<text x="1602" y="7932" fill="rgb(0,0,0)" font-size="24" font-family="Verdana" >cebApe</text>
	<text x="1602" y="7832" fill="rgb(0,0,0)" font-size="24" font-family="Verdana" >cebCap</text>
	<text x="1602" y="7732" fill="rgb(0,0,0)" font-size="24" font-family="Verdana" >cebAlb</text>
	<text x="1602" y="7632" fill="rgb(0,0,0)" font-size="24" font-family="Verdana" >cebOli</text>
	<text x="1602" y="7532" fill="rgb(0,0,0)" font-size="24" font-family="Verdana" >saiOer</text>
	<text x="1602" y="7432" fill="rgb(0,0,0)" font-size="24" font-family="Verdana" >saiSci</text>
	<text x="1602" y="7332" fill="rgb(0,0,0)" font-size="24" font-family="Verdana" >saiUst</text>
	<text x="1602" y="7232" fill="rgb(0,0,0)" font-size="24" font-family="Verdana" >saiBol</text>
	<text x="1602" y="7132" fill="rgb(0,0,0)" font-size="24" font-family="Verdana" >ateBel</text>
	<text x="1602" y="7032" fill="rgb(0,0,0)" font-size="24" font-family="Verdana" >ateGeo</text>
	<text x="1602" y="6932" fill="rgb(0,0,0)" font-size="24" font-family="Verdana" >ateHyb</text>
	<text x="1602" y="6832" fill="rgb(0,0,0)" font-size="24" font-family="Verdana" >ateFus</text>
	<text x="1602" y="6732" fill="rgb(0,0,0)" font-size="24" font-family="Verdana" >ateCha</text>
	<text x="1602" y="6632" fill="rgb(0,0,0)" font-size="24" font-family="Verdana" >atePan</text>
	<text x="1602" y="6532" fill="rgb(0,0,0)" font-size="24" font-family="Verdana" >braHyp</text>
	<text x="1602" y="6432" fill="rgb(0,0,0)" font-size="24" font-family="Verdana" >braAra</text>
	<text x="1602" y="6332" fill="rgb(0,0,0)" font-size="24" font-family="Verdana" >lagLag</text>
	<text x="1602" y="6232" fill="rgb(0,0,0)" font-size="24" font-family="Verdana" >lagCan</text>
	<text x="1602" y="6132" fill="rgb(0,0,0)" font-size="24" font-family="Verdana" >aloSar</text>
	<text x="1602" y="6032" fill="rgb(0,0,0)" font-size="24" font-family="Verdana" >aloCar</text>
	<text x="1602" y="5932" fill="rgb(0,0,0)" font-size="24" font-family="Verdana" >aloBel</text>
	<text x="1602" y="5832" fill="rgb(0,0,0)" font-size="24" font-family="Verdana" >aloPal</text>
	<text x="1602" y="5732" fill="rgb(0,0,0)" font-size="24" font-family="Verdana" >calMol</text>
	<text x="1602" y="5632" fill="rgb(0,0,0)" font-size="24" font-family="Verdana" >calBru</text>
	<text x="1602" y="5532" fill="rgb(0,0,0)" font-size="24" font-family="Verdana" >calCup</text>
	<text x="1602" y="5432" fill="rgb(0,0,0)" font-size="24" font-family="Verdana" >calCal</text>
	<text x="1602" y="5332" fill="rgb(0,0,0)" font-size="24" font-family="Verdana" >calDon</text>
	<text x="1602" y="5232" fill="rgb(0,0,0)" font-size="24" font-family="Verdana" >calCoi</text>
	<text x="1602" y="5132" fill="rgb(0,0,0)" font-size="24" font-family="Verdana" >calPer</text>
	<text x="1602" y="5032" fill="rgb(0,0,0)" font-size="24" font-family="Verdana" >calNig</text>
	<text x="1602" y="4932" fill="rgb(0,0,0)" font-size="24" font-family="Verdana" >chiIsr</text>
	<text x="1602" y="4832" fill="rgb(0,0,0)" font-size="24" font-family="Verdana" >chiSat</text>
	<text x="1602" y="4732" fill="rgb(0,0,0)" font-size="24" font-family="Verdana" >cacMel</text>
	<text x="1602" y="4632" fill="rgb(0,0,0)" font-size="24" font-family="Verdana" >cacCal</text>
	<text x="1602" y="4532" fill="rgb(0,0,0)" font-size="24" font-family="Verdana" >pitIrr</text>
	<text x="1602" y="4432" fill="rgb(0,0,0)" font-size="24" font-family="Verdana" >pitPit</text>
	<text x="1602" y="4332" fill="rgb(0,0,0)" font-size="24" font-family="Verdana" >carSyr</text>
	<text x="1602" y="4232" fill="rgb(0,0,0)" font-size="24" font-family="Verdana" >tarBan</text>
	<text x="1602" y="4132" fill="rgb(0,0,0)" font-size="24" font-family="Verdana" >eulRuf</text>
	<text x="1602" y="4032" fill="rgb(0,0,0)" font-size="24" font-family="Verdana" >eulCol</text>
	<text x="1602" y="3932" fill="rgb(0,0,0)" font-size="24" font-family="Verdana" >eulFul</text>
	<text x="1602" y="3832" fill="rgb(0,0,0)" font-size="24" font-family="Verdana" >eulSan</text>
	<text x="1602" y="3732" fill="rgb(0,0,0)" font-size="24" font-family="Verdana" >eulAlb</text>
	<text x="1602" y="3632" fill="rgb(0,0,0)" font-size="24" font-family="Verdana" >eulMon</text>
	<text x="1602" y="3532" fill="rgb(0,0,0)" font-size="24" font-family="Verdana" >eulMac</text>
	<text x="1602" y="3432" fill="rgb(0,0,0)" font-size="24" font-family="Verdana" >eulCor</text>
	<text x="1602" y="3332" fill="rgb(0,0,0)" font-size="24" font-family="Verdana" >eulRub</text>
	<text x="1602" y="3232" fill="rgb(0,0,0)" font-size="24" font-family="Verdana" >hapOcc</text>
	<text x="1602" y="3132" fill="rgb(0,0,0)" font-size="24" font-family="Verdana" >hapGri</text>
	<text x="1602" y="3032" fill="rgb(0,0,0)" font-size="24" font-family="Verdana" >lemCat</text>
	<text x="1602" y="2932" fill="rgb(0,0,0)" font-size="24" font-family="Verdana" >varVar</text>
	<text x="1602" y="2832" fill="rgb(0,0,0)" font-size="24" font-family="Verdana" >lepSep</text>
	<text x="1602" y="2732" fill="rgb(0,0,0)" font-size="24" font-family="Verdana" >lepAnk</text>
	<text x="1602" y="2632" fill="rgb(0,0,0)" font-size="24" font-family="Verdana" >lepDor</text>
	<text x="1602" y="2532" fill="rgb(0,0,0)" font-size="24" font-family="Verdana" >lepRuf</text>
	<text x="1602" y="2432" fill="rgb(0,0,0)" font-size="24" font-family="Verdana" >lepJam</text>
	<text x="1602" y="2332" fill="rgb(0,0,0)" font-size="24" font-family="Verdana" >micMur</text>
	<text x="1602" y="2232" fill="rgb(0,0,0)" font-size="24" font-family="Verdana" >mirZaz</text>
	<text x="1602" y="2132" fill="rgb(0,0,0)" font-size="24" font-family="Verdana" >cheMed</text>
	<text x="1602" y="2032" fill="rgb(0,0,0)" font-size="24" font-family="Verdana" >proVer</text>
	<text x="1602" y="1932" fill="rgb(0,0,0)" font-size="24" font-family="Verdana" >proTat</text>
	<text x="1602" y="1832" fill="rgb(0,0,0)" font-size="24" font-family="Verdana" >proDia</text>
	<text x="1602" y="1732" fill="rgb(0,0,0)" font-size="24" font-family="Verdana" >proEdw</text>
	<text x="1602" y="1632" fill="rgb(0,0,0)" font-size="24" font-family="Verdana" >avaLan</text>
	<text x="1602" y="1532" fill="rgb(0,0,0)" font-size="24" font-family="Verdana" >dauMad</text>
	<text x="1602" y="1432" fill="rgb(0,0,0)" font-size="24" font-family="Verdana" >nycBen</text>
	<text x="1602" y="1332" fill="rgb(0,0,0)" font-size="24" font-family="Verdana" >nycCou</text>
	<text x="1602" y="1232" fill="rgb(0,0,0)" font-size="24" font-family="Verdana" >nycPyg</text>
	<text x="1602" y="1132" fill="rgb(0,0,0)" font-size="24" font-family="Verdana" >lorTar</text>
	<text x="1602" y="1032" fill="rgb(0,0,0)" font-size="24" font-family="Verdana" >arcCal</text>
	<text x="1602" y="932" fill="rgb(0,0,0)" font-size="24" font-family="Verdana" >perPot</text>
	<text x="1602" y="832" fill="rgb(0,0,0)" font-size="24" font-family="Verdana" >galSen</text>
	<text x="1602" y="732" fill="rgb(0,0,0)" font-size="24" font-family="Verdana" >galMoh</text>
	<text x="1602" y="632" fill="rgb(0,0,0)" font-size="24" font-family="Verdana" >otoGar</text>
	<text x="1602" y="532" fill="rgb(0,0,0)" font-size="24" font-family="Verdana" >otoCra</text>
	<text x="1602" y="432" fill="rgb(0,0,0)" font-size="24" font-family="Verdana" >galTho</text>
	<text x="1602" y="332" fill="rgb(0,0,0)" font-size="24" font-family="Verdana" >galVar</text>
	<text x="1602" y="232" fill="rgb(0,0,0)" font-size="24" font-family="Verdana" >cynVol</text>
	<text x="1602" y="132" fill="rgb(0,0,0)" font-size="24" font-family="Verdana" >tupGli</text>
	<text x="1602" y="32" fill="rgb(0,0,0)" font-size="24" font-family="Verdana" >tupMin</text>
	<line x1="240" y1="4225" x2="240" y2="4425" stroke-width="3" stroke="rgb(65,170,190)" />
	<line x1="240" y1="4425" x2="350" y2="4425" stroke-width="3" stroke="rgb(65,170,190)" />
	<line x1="350" y1="4425" x2="350" y2="10625" stroke-width="3" stroke="rgb(65,170,190)" />
	<line x1="350" y1="10625" x2="460" y2="10625" stroke-width="3" stroke="rgb(65,170,190)" />
	<line x1="460" y1="10625" x2="460" y2="12075" stroke-width="3" stroke="rgb(65,170,190)" />
	<line x1="460" y1="12075" x2="570" y2="12075" stroke-width="3" stroke="rgb(65,170,190)" />
	<line x1="570" y1="12075" x2="570" y2="14275" stroke-width="3" stroke="rgb(65,170,190)" />
	<line x1="570" y1="14275" x2="680" y2="14275" stroke-width="3" stroke="rgb(65,170,190)" />
	<line x1="680" y1="14275" x2="680" y2="12475" stroke-width="3" stroke="rgb(65,170,190)" />
	<line x1="680" y1="12475" x2="790" y2="12475" stroke-width="3" stroke="rgb(65,170,190)" />
	<line x1="790" y1="12475" x2="790" y2="12675" stroke-width="3" stroke="rgb(65,170,190)" />
	<line x1="790" y1="12675" x2="900" y2="12675" stroke-width="3" stroke="rgb(65,170,190)" />
	<line x1="900" y1="12675" x2="900" y2="13375" stroke-width="3" stroke="rgb(65,170,190)" />
	<line x1="900" y1="13375" x2="1010" y2="13375" stroke-width="3" stroke="rgb(65,170,190)" />
	<line x1="1010" y1="13375" x2="1010" y2="13675" stroke-width="3" stroke="rgb(65,170,190)" />
	<line x1="1010" y1="13675" x2="1120" y2="13675" stroke-width="3" stroke="rgb(65,170,190)" />
	<line x1="1120" y1="13675" x2="1120" y2="13975" stroke-width="3" stroke="rgb(65,170,190)" />
	<line x1="1120" y1="13975" x2="1230" y2="13975" stroke-width="3" stroke="rgb(65,170,190)" />
	<line x1="1230" y1="13975" x2="1230" y2="14075" stroke-width="3" stroke="rgb(65,170,190)" />
	<line x1="1230" y1="14075" x2="1340" y2="14075" stroke-width="3" stroke="rgb(65,170,190)" />
	<line x1="1340" y1="14075" x2="1340" y2="14175" stroke-width="3" stroke="rgb(65,170,190)" />
	<line x1="1340" y1="14175" x2="1450" y2="14175" stroke-width="3" stroke="rgb(65,170,190)" />
	<line x1="1450" y1="14175" x2="1450" y2="14225" stroke-width="3" stroke="rgb(65,170,190)" />
	<line x1="1450" y1="14225" x2="1680" y2="14225" stroke-width="3" stroke="rgb(65,170,190)" />
	<text x="1705" y="14225" fill="rgb(65,170,190)" font-size="18" font-family="Verdana" >traFra_FOXP2_XM_033192941</text>
	<line x1="1450" y1="14175" x2="1450" y2="14125" stroke-width="3" stroke="rgb(65,170,190)" />
	<line x1="1450" y1="14125" x2="1560" y2="14125" stroke-width="3" stroke="rgb(65,170,190)" />
	<line x1="1572.5" y1="14112.5" x2="1547.5" y2="14137.5" stroke-width="8.33333" stroke="rgb(65,170,190)" />
	<line x1="1572.5" y1="14137.5" x2="1547.5" y2="14112.5" stroke-width="8.33333" stroke="rgb(65,170,190)" />
	<line x1="1340" y1="14075" x2="1340" y2="14025" stroke-width="3" stroke="rgb(65,170,190)" />
	<line x1="1340" y1="14025" x2="1450" y2="14025" stroke-width="3" stroke="rgb(65,170,190)" />
	<line x1="1462.5" y1="14012.5" x2="1437.5" y2="14037.5" stroke-width="8.33333" stroke="rgb(65,170,190)" />
	<line x1="1462.5" y1="14037.5" x2="1437.5" y2="14012.5" stroke-width="8.33333" stroke="rgb(65,170,190)" />
	<line x1="1230" y1="13975" x2="1230" y2="13775" stroke-width="3" stroke="rgb(65,170,190)" />
	<line x1="1230" y1="13775" x2="1340" y2="13775" stroke-width="3" stroke="rgb(65,170,190)" />
	<line x1="1352.5" y1="13762.5" x2="1327.5" y2="13787.5" stroke-width="8.33333" stroke="rgb(65,170,190)" />
	<line x1="1352.5" y1="13787.5" x2="1327.5" y2="13762.5" stroke-width="8.33333" stroke="rgb(65,170,190)" />
	<line x1="1120" y1="13675" x2="1120" y2="13475" stroke-width="3" stroke="rgb(65,170,190)" />
	<line x1="1120" y1="13475" x2="1230" y2="13475" stroke-width="3" stroke="rgb(65,170,190)" />
	<line x1="1242.5" y1="13462.5" x2="1217.5" y2="13487.5" stroke-width="8.33333" stroke="rgb(65,170,190)" />
	<line x1="1242.5" y1="13487.5" x2="1217.5" y2="13462.5" stroke-width="8.33333" stroke="rgb(65,170,190)" />
	<line x1="1010" y1="13375" x2="1010" y2="12975" stroke-width="3" stroke="rgb(65,170,190)" />
	<line x1="1010" y1="12975" x2="1120" y2="12975" stroke-width="3" stroke="rgb(65,170,190)" />
	<line x1="1120" y1="12975" x2="1120" y2="13075" stroke-width="3" stroke="rgb(65,170,190)" />
	<line x1="1120" y1="13075" x2="1230" y2="13075" stroke-width="3" stroke="rgb(65,170,190)" />
	<line x1="1242.5" y1="13062.5" x2="1217.5" y2="13087.5" stroke-width="8.33333" stroke="rgb(65,170,190)" />
	<line x1="1242.5" y1="13087.5" x2="1217.5" y2="13062.5" stroke-width="8.33333" stroke="rgb(65,170,190)" />
	<line x1="1120" y1="12975" x2="1120" y2="12775" stroke-width="3" stroke="rgb(65,170,190)" />
	<line x1="1120" y1="12775" x2="1230" y2="12775" stroke-width="3" stroke="rgb(65,170,190)" />
	<line x1="1230" y1="12775" x2="1230" y2="12875" stroke-width="3" stroke="rgb(65,170,190)" />
	<line x1="1230" y1="12875" x2="1340" y2="12875" stroke-width="3" stroke="rgb(65,170,190)" />
	<line x1="1340" y1="12875" x2="1340" y2="12825" stroke-width="3" stroke="rgb(65,170,190)" />
	<line x1="1340" y1="12825" x2="1680" y2="12825" stroke-width="3" stroke="rgb(65,170,190)" />
	<text x="1705" y="12825" fill="rgb(65,170,190)" font-size="18" font-family="Verdana" >rhiBie_FOXP2_XM_017864605</text>
	<line x1="1340" y1="12875" x2="1340" y2="12925" stroke-width="3" stroke="rgb(65,170,190)" />
	<line x1="1340" y1="12925" x2="1680" y2="12925" stroke-width="3" stroke="rgb(65,170,190)" />
	<text x="1705" y="12925" fill="rgb(65,170,190)" font-size="18" font-family="Verdana" >rhiRox_FOXP2_XM_030933310</text>
	<line x1="1230" y1="12775" x2="1230" y2="12725" stroke-width="3" stroke="rgb(65,170,190)" />
	<line x1="1230" y1="12725" x2="1340" y2="12725" stroke-width="3" stroke="rgb(65,170,190)" />
	<line x1="1352.5" y1="12712.5" x2="1327.5" y2="12737.5" stroke-width="8.33333" stroke="rgb(65,170,190)" />
	<line x1="1352.5" y1="12737.5" x2="1327.5" y2="12712.5" stroke-width="8.33333" stroke="rgb(65,170,190)" />
	<line x1="900" y1="12675" x2="900" y2="12575" stroke-width="3" stroke="rgb(65,170,190)" />
	<line x1="900" y1="12575" x2="1010" y2="12575" stroke-width="3" stroke="rgb(65,170,190)" />
	<line x1="1022.5" y1="12562.5" x2="997.5" y2="12587.5" stroke-width="8.33333" stroke="rgb(65,170,190)" />
	<line x1="1022.5" y1="12587.5" x2="997.5" y2="12562.5" stroke-width="8.33333" stroke="rgb(65,170,190)" />
	<line x1="790" y1="12475" x2="790" y2="12175" stroke-width="3" stroke="rgb(65,170,190)" />
	<line x1="790" y1="12175" x2="900" y2="12175" stroke-width="3" stroke="rgb(65,170,190)" />
	<line x1="900" y1="12175" x2="900" y2="12125" stroke-width="3" stroke="rgb(65,170,190)" />
	<line x1="900" y1="12125" x2="1680" y2="12125" stroke-width="3" stroke="rgb(65,170,190)" />
	<text x="1705" y="12125" fill="rgb(65,170,190)" font-size="18" font-family="Verdana" >pilTep_FOXP2_XM_023228239</text>
	<line x1="900" y1="12175" x2="900" y2="12275" stroke-width="3" stroke="rgb(65,170,190)" />
	<line x1="900" y1="12275" x2="1010" y2="12275" stroke-width="3" stroke="rgb(65,170,190)" />
	<line x1="1022.5" y1="12262.5" x2="997.5" y2="12287.5" stroke-width="8.33333" stroke="rgb(65,170,190)" />
	<line x1="1022.5" y1="12287.5" x2="997.5" y2="12262.5" stroke-width="8.33333" stroke="rgb(65,170,190)" />
	<line x1="680" y1="14275" x2="680" y2="15975" stroke-width="3" stroke="rgb(65,170,190)" />
	<line x1="680" y1="15975" x2="790" y2="15975" stroke-width="3" stroke="rgb(65,170,190)" />
	<line x1="802.5" y1="15962.5" x2="777.5" y2="15987.5" stroke-width="8.33333" stroke="rgb(65,170,190)" />
	<line x1="802.5" y1="15987.5" x2="777.5" y2="15962.5" stroke-width="8.33333" stroke="rgb(65,170,190)" />
	<line x1="570" y1="12075" x2="570" y2="11275" stroke-width="3" stroke="rgb(65,170,190)" />
	<line x1="570" y1="11275" x2="680" y2="11275" stroke-width="3" stroke="rgb(65,170,190)" />
	<line x1="680" y1="11275" x2="680" y2="11675" stroke-width="3" stroke="rgb(65,170,190)" />
	<line x1="680" y1="11675" x2="790" y2="11675" stroke-width="3" stroke="rgb(65,170,190)" />
	<line x1="802.5" y1="11662.5" x2="777.5" y2="11687.5" stroke-width="8.33333" stroke="rgb(65,170,190)" />
	<line x1="802.5" y1="11687.5" x2="777.5" y2="11662.5" stroke-width="8.33333" stroke="rgb(65,170,190)" />
	<line x1="680" y1="11275" x2="680" y2="10875" stroke-width="3" stroke="rgb(65,170,190)" />
	<line x1="680" y1="10875" x2="790" y2="10875" stroke-width="3" stroke="rgb(65,170,190)" />
	<line x1="790" y1="10875" x2="790" y2="10725" stroke-width="3" stroke="rgb(65,170,190)" />
	<line x1="790" y1="10725" x2="900" y2="10725" stroke-width="3" stroke="rgb(65,170,190)" />
	<line x1="900" y1="10725" x2="900" y2="10675" stroke-width="3" stroke="rgb(65,170,190)" />
	<line x1="900" y1="10675" x2="1680" y2="10675" stroke-width="3" stroke="rgb(65,170,190)" />
	<text x="1705" y="10675" fill="rgb(65,170,190)" font-size="18" font-family="Verdana" >ponAbe_FOXP2_XM_024250289</text>
	<line x1="900" y1="10725" x2="900" y2="10825" stroke-width="3" stroke="rgb(65,170,190)" />
	<line x1="900" y1="10825" x2="1010" y2="10825" stroke-width="3" stroke="rgb(65,170,190)" />
	<line x1="1010" y1="10825" x2="1010" y2="10775" stroke-width="3" stroke="rgb(65,170,190)" />
	<line x1="1010" y1="10775" x2="1680" y2="10775" stroke-width="3" stroke="rgb(65,170,190)" />
	<text x="1705" y="10775" fill="rgb(65,170,190)" font-size="18" font-family="Verdana" >ponPyg_FOXP2_AY064615</text>
	<line x1="1010" y1="10825" x2="1010" y2="10825" stroke-width="3" stroke="rgb(65,170,190)" />
	<line x1="1010" y1="10825" x2="1040" y2="10825" stroke-width="3" stroke="rgb(65,170,190)" />
	<line x1="1040" y1="10825" x2="1040" y2="10800" stroke-width="3" stroke="rgb(65,170,190)" />
	<line x1="1040" y1="10800" x2="1680" y2="10800" stroke-width="3" stroke="rgb(65,170,190)" />
	<text x="1705" y="10800" fill="rgb(65,170,190)" font-size="18" font-family="Verdana" >ponPyg_FOXP2_AY143181</text>
	<line x1="1040" y1="10825" x2="1040" y2="10825" stroke-width="3" stroke="rgb(65,170,190)" />
	<line x1="1040" y1="10825" x2="1680" y2="10825" stroke-width="3" stroke="rgb(65,170,190)" />
	<text x="1705" y="10825" fill="rgb(65,170,190)" font-size="18" font-family="Verdana" >ponPyg_FOXP2_AF512949</text>
	<rect x="1027.5" y="10812.5" width="25" height="25" fill="rgb(65,170,190)" stroke-width="3" stroke="rgb(65,170,190)" />
	<rect x="997.5" y="10812.5" width="25" height="25" fill="rgb(65,170,190)" stroke-width="3" stroke="rgb(65,170,190)" />
	<line x1="790" y1="10875" x2="790" y2="10975" stroke-width="3" stroke="rgb(65,170,190)" />
	<line x1="790" y1="10975" x2="900" y2="10975" stroke-width="3" stroke="rgb(65,170,190)" />
	<line x1="912.5" y1="10962.5" x2="887.5" y2="10987.5" stroke-width="8.33333" stroke="rgb(65,170,190)" />
	<line x1="912.5" y1="10987.5" x2="887.5" y2="10962.5" stroke-width="8.33333" stroke="rgb(65,170,190)" />
	<line x1="460" y1="10625" x2="460" y2="5825" stroke-width="3" stroke="rgb(65,170,190)" />
	<line x1="460" y1="5825" x2="570" y2="5825" stroke-width="3" stroke="rgb(65,170,190)" />
	<line x1="570" y1="5825" x2="570" y2="7225" stroke-width="3" stroke="rgb(65,170,190)" />
	<line x1="570" y1="7225" x2="680" y2="7225" stroke-width="3" stroke="rgb(65,170,190)" />
	<line x1="680" y1="7225" x2="680" y2="8225" stroke-width="3" stroke="rgb(65,170,190)" />
	<line x1="680" y1="8225" x2="790" y2="8225" stroke-width="3" stroke="rgb(65,170,190)" />
	<line x1="790" y1="8225" x2="790" y2="8625" stroke-width="3" stroke="rgb(65,170,190)" />
	<line x1="790" y1="8625" x2="900" y2="8625" stroke-width="3" stroke="rgb(65,170,190)" />
	<line x1="900" y1="8625" x2="900" y2="9525" stroke-width="3" stroke="rgb(65,170,190)" />
	<line x1="900" y1="9525" x2="1010" y2="9525" stroke-width="3" stroke="rgb(65,170,190)" />
	<line x1="1022.5" y1="9512.5" x2="997.5" y2="9537.5" stroke-width="8.33333" stroke="rgb(65,170,190)" />
	<line x1="1022.5" y1="9537.5" x2="997.5" y2="9512.5" stroke-width="8.33333" stroke="rgb(65,170,190)" />
	<line x1="900" y1="8625" x2="900" y2="8425" stroke-width="3" stroke="rgb(65,170,190)" />
	<line x1="900" y1="8425" x2="1010" y2="8425" stroke-width="3" stroke="rgb(65,170,190)" />
	<line x1="1010" y1="8425" x2="1010" y2="8525" stroke-width="3" stroke="rgb(65,170,190)" />
	<line x1="1010" y1="8525" x2="1120" y2="8525" stroke-width="3" stroke="rgb(65,170,190)" />
	<line x1="1120" y1="8525" x2="1120" y2="8475" stroke-width="3" stroke="rgb(65,170,190)" />
	<line x1="1120" y1="8475" x2="1680" y2="8475" stroke-width="3" stroke="rgb(65,170,190)" />
	<text x="1705" y="8475" fill="rgb(65,170,190)" font-size="18" font-family="Verdana" >aotNan_FOXP2_XM_012456997</text>
	<line x1="1120" y1="8525" x2="1120" y2="8575" stroke-width="3" stroke="rgb(65,170,190)" />
	<line x1="1120" y1="8575" x2="1230" y2="8575" stroke-width="3" stroke="rgb(65,170,190)" />
	<line x1="1242.5" y1="8562.5" x2="1217.5" y2="8587.5" stroke-width="8.33333" stroke="rgb(65,170,190)" />
	<line x1="1242.5" y1="8587.5" x2="1217.5" y2="8562.5" stroke-width="8.33333" stroke="rgb(65,170,190)" />
	<line x1="1010" y1="8425" x2="1010" y2="8325" stroke-width="3" stroke="rgb(65,170,190)" />
	<line x1="1010" y1="8325" x2="1120" y2="8325" stroke-width="3" stroke="rgb(65,170,190)" />
	<line x1="1132.5" y1="8312.5" x2="1107.5" y2="8337.5" stroke-width="8.33333" stroke="rgb(65,170,190)" />
	<line x1="1132.5" y1="8337.5" x2="1107.5" y2="8312.5" stroke-width="8.33333" stroke="rgb(65,170,190)" />
	<line x1="790" y1="8225" x2="790" y2="7625" stroke-width="3" stroke="rgb(65,170,190)" />
	<line x1="790" y1="7625" x2="900" y2="7625" stroke-width="3" stroke="rgb(65,170,190)" />
	<line x1="912.5" y1="7612.5" x2="887.5" y2="7637.5" stroke-width="8.33333" stroke="rgb(65,170,190)" />
	<line x1="912.5" y1="7637.5" x2="887.5" y2="7612.5" stroke-width="8.33333" stroke="rgb(65,170,190)" />
	<line x1="680" y1="7225" x2="680" y2="6225" stroke-width="3" stroke="rgb(65,170,190)" />
	<line x1="680" y1="6225" x2="790" y2="6225" stroke-width="3" stroke="rgb(65,170,190)" />
	<line x1="802.5" y1="6212.5" x2="777.5" y2="6237.5" stroke-width="8.33333" stroke="rgb(65,170,190)" />
	<line x1="802.5" y1="6237.5" x2="777.5" y2="6212.5" stroke-width="8.33333" stroke="rgb(65,170,190)" />
	<line x1="570" y1="5825" x2="570" y2="5025" stroke-width="3" stroke="rgb(65,170,190)" />
	<line x1="570" y1="5025" x2="680" y2="5025" stroke-width="3" stroke="rgb(65,170,190)" />
	<line x1="692.5" y1="5012.5" x2="667.5" y2="5037.5" stroke-width="8.33333" stroke="rgb(65,170,190)" />
	<line x1="692.5" y1="5037.5" x2="667.5" y2="5012.5" stroke-width="8.33333" stroke="rgb(65,170,190)" />
	<line x1="350" y1="4425" x2="350" y2="4325" stroke-width="3" stroke="rgb(65,170,190)" />
	<line x1="350" y1="4325" x2="460" y2="4325" stroke-width="3" stroke="rgb(65,170,190)" />
	<line x1="472.5" y1="4312.5" x2="447.5" y2="4337.5" stroke-width="8.33333" stroke="rgb(65,170,190)" />
	<line x1="472.5" y1="4337.5" x2="447.5" y2="4312.5" stroke-width="8.33333" stroke="rgb(65,170,190)" />
	<line x1="240" y1="4225" x2="240" y2="1525" stroke-width="3" stroke="rgb(65,170,190)" />
	<line x1="240" y1="1525" x2="350" y2="1525" stroke-width="3" stroke="rgb(65,170,190)" />
	<line x1="350" y1="1525" x2="350" y2="1625" stroke-width="3" stroke="rgb(65,170,190)" />
	<line x1="350" y1="1625" x2="460" y2="1625" stroke-width="3" stroke="rgb(65,170,190)" />
	<line x1="460" y1="1625" x2="460" y2="2925" stroke-width="3" stroke="rgb(65,170,190)" />
	<line x1="460" y1="2925" x2="570" y2="2925" stroke-width="3" stroke="rgb(65,170,190)" />
	<line x1="570" y1="2925" x2="570" y2="3025" stroke-width="3" stroke="rgb(65,170,190)" />
	<line x1="570" y1="3025" x2="680" y2="3025" stroke-width="3" stroke="rgb(65,170,190)" />
	<line x1="680" y1="3025" x2="680" y2="3325" stroke-width="3" stroke="rgb(65,170,190)" />
	<line x1="680" y1="3325" x2="790" y2="3325" stroke-width="3" stroke="rgb(65,170,190)" />
	<line x1="790" y1="3325" x2="790" y2="3425" stroke-width="3" stroke="rgb(65,170,190)" />
	<line x1="790" y1="3425" x2="900" y2="3425" stroke-width="3" stroke="rgb(65,170,190)" />
	<line x1="912.5" y1="3412.5" x2="887.5" y2="3437.5" stroke-width="8.33333" stroke="rgb(65,170,190)" />
	<line x1="912.5" y1="3437.5" x2="887.5" y2="3412.5" stroke-width="8.33333" stroke="rgb(65,170,190)" />
	<line x1="790" y1="3325" x2="790" y2="3125" stroke-width="3" stroke="rgb(65,170,190)" />
	<line x1="790" y1="3125" x2="900" y2="3125" stroke-width="3" stroke="rgb(65,170,190)" />
	<line x1="900" y1="3125" x2="900" y2="3075" stroke-width="3" stroke="rgb(65,170,190)" />
	<line x1="900" y1="3075" x2="1680" y2="3075" stroke-width="3" stroke="rgb(65,170,190)" />
	<text x="1705" y="3075" fill="rgb(65,170,190)" font-size="18" font-family="Verdana" >lemCat_FOXP2_XM_045564484</text>
	<line x1="900" y1="3125" x2="900" y2="3225" stroke-width="3" stroke="rgb(65,170,190)" />
	<line x1="900" y1="3225" x2="1010" y2="3225" stroke-width="3" stroke="rgb(65,170,190)" />
	<line x1="1022.5" y1="3212.5" x2="997.5" y2="3237.5" stroke-width="8.33333" stroke="rgb(65,170,190)" />
	<line x1="1022.5" y1="3237.5" x2="997.5" y2="3212.5" stroke-width="8.33333" stroke="rgb(65,170,190)" />
	<line x1="680" y1="3025" x2="680" y2="2975" stroke-width="3" stroke="rgb(65,170,190)" />
	<line x1="680" y1="2975" x2="790" y2="2975" stroke-width="3" stroke="rgb(65,170,190)" />
	<line x1="802.5" y1="2962.5" x2="777.5" y2="2987.5" stroke-width="8.33333" stroke="rgb(65,170,190)" />
	<line x1="802.5" y1="2987.5" x2="777.5" y2="2962.5" stroke-width="8.33333" stroke="rgb(65,170,190)" />
	<line x1="570" y1="2925" x2="570" y2="2125" stroke-width="3" stroke="rgb(65,170,190)" />
	<line x1="570" y1="2125" x2="680" y2="2125" stroke-width="3" stroke="rgb(65,170,190)" />
	<line x1="680" y1="2125" x2="680" y2="2425" stroke-width="3" stroke="rgb(65,170,190)" />
	<line x1="680" y1="2425" x2="790" y2="2425" stroke-width="3" stroke="rgb(65,170,190)" />
	<line x1="790" y1="2425" x2="790" y2="2525" stroke-width="3" stroke="rgb(65,170,190)" />
	<line x1="790" y1="2525" x2="900" y2="2525" stroke-width="3" stroke="rgb(65,170,190)" />
	<line x1="912.5" y1="2512.5" x2="887.5" y2="2537.5" stroke-width="8.33333" stroke="rgb(65,170,190)" />
	<line x1="912.5" y1="2537.5" x2="887.5" y2="2512.5" stroke-width="8.33333" stroke="rgb(65,170,190)" />
	<line x1="790" y1="2425" x2="790" y2="2225" stroke-width="3" stroke="rgb(65,170,190)" />
	<line x1="790" y1="2225" x2="900" y2="2225" stroke-width="3" stroke="rgb(65,170,190)" />
	<line x1="900" y1="2225" x2="900" y2="2325" stroke-width="3" stroke="rgb(65,170,190)" />
	<line x1="900" y1="2325" x2="1010" y2="2325" stroke-width="3" stroke="rgb(65,170,190)" />
	<line x1="1010" y1="2325" x2="1010" y2="2375" stroke-width="3" stroke="rgb(65,170,190)" />
	<line x1="1010" y1="2375" x2="1680" y2="2375" stroke-width="3" stroke="rgb(65,170,190)" />
	<text x="1705" y="2375" fill="rgb(65,170,190)" font-size="18" font-family="Verdana" >micMur_FOXP2_XM_020289760</text>
	<line x1="1010" y1="2325" x2="1010" y2="2275" stroke-width="3" stroke="rgb(65,170,190)" />
	<line x1="1010" y1="2275" x2="1120" y2="2275" stroke-width="3" stroke="rgb(65,170,190)" />
	<line x1="1132.5" y1="2262.5" x2="1107.5" y2="2287.5" stroke-width="8.33333" stroke="rgb(65,170,190)" />
	<line x1="1132.5" y1="2287.5" x2="1107.5" y2="2262.5" stroke-width="8.33333" stroke="rgb(65,170,190)" />
	<line x1="900" y1="2225" x2="900" y2="2175" stroke-width="3" stroke="rgb(65,170,190)" />
	<line x1="900" y1="2175" x2="1010" y2="2175" stroke-width="3" stroke="rgb(65,170,190)" />
	<line x1="1022.5" y1="2162.5" x2="997.5" y2="2187.5" stroke-width="8.33333" stroke="rgb(65,170,190)" />
	<line x1="1022.5" y1="2187.5" x2="997.5" y2="2162.5" stroke-width="8.33333" stroke="rgb(65,170,190)" />
	<line x1="680" y1="2125" x2="680" y2="1725" stroke-width="3" stroke="rgb(65,170,190)" />
	<line x1="680" y1="1725" x2="790" y2="1725" stroke-width="3" stroke="rgb(65,170,190)" />
	<line x1="802.5" y1="1712.5" x2="777.5" y2="1737.5" stroke-width="8.33333" stroke="rgb(65,170,190)" />
	<line x1="802.5" y1="1737.5" x2="777.5" y2="1712.5" stroke-width="8.33333" stroke="rgb(65,170,190)" />
	<line x1="460" y1="1625" x2="460" y2="1575" stroke-width="3" stroke="rgb(65,170,190)" />
	<line x1="460" y1="1575" x2="570" y2="1575" stroke-width="3" stroke="rgb(65,170,190)" />
	<line x1="582.5" y1="1562.5" x2="557.5" y2="1587.5" stroke-width="8.33333" stroke="rgb(65,170,190)" />
	<line x1="582.5" y1="1587.5" x2="557.5" y2="1562.5" stroke-width="8.33333" stroke="rgb(65,170,190)" />
	<line x1="350" y1="1525" x2="350" y2="925" stroke-width="3" stroke="rgb(65,170,190)" />
	<line x1="350" y1="925" x2="460" y2="925" stroke-width="3" stroke="rgb(65,170,190)" />
	<line x1="472.5" y1="912.5" x2="447.5" y2="937.5" stroke-width="8.33333" stroke="rgb(65,170,190)" />
	<line x1="472.5" y1="937.5" x2="447.5" y2="912.5" stroke-width="8.33333" stroke="rgb(65,170,190)" />
	<polygon points="255.625,4225 246.32,4220.41 244.828,4210.14 237.586,4217.57 227.359,4215.82 232.188,4225 227.359,4234.18 237.586,4232.43 244.828,4239.86 246.32,4229.59 255.625,4225 " fill="rgb(255,255,255)" stroke-width="6.25" stroke="rgb(65,170,190)" />
</svg>
