<?xml version="1.0" standalone="no" ?>
<!DOCTYPE svg PUBLIC "-//W3C//DTD SVG 1.1//EN" "http://www.w3.org/Graphics/SVG/1.1/DTD/svg11.dtd">
<svg width="2770px" height="18410px" xmlns="http://www.w3.org/2000/svg" version="1.1" >
	<polygon points="50,250 50,450 130,450 130,4250 210,4250 210,4450 320,4450 320,10650 430,10650 430,12050 540,12050 540,14250 650,14250 650,15950 760,15950 760,17050 870,17050 870,17150 980,17150 980,17750 1090,17750 1090,18050 1200,18050 1200,18250 1310,18250 1310,18350 1390,18350 1390,18400 1470,18400 1920,18400 1920,18350 1470,18350 1420,18350 1420,18350 1420,18300 1420,18300 1470,18300 1920,18300 1920,18250 1470,18250 1390,18250 1390,18300 1340,18300 1340,18250 1340,18200 1340,18150 1390,18150 1390,18200 1470,18200 1920,18200 1920,18150 1470,18150 1420,18150 1420,18150 1420,18100 1420,18100 1470,18100 1920,18100 1920,18050 1470,18050 1390,18050 1390,18100 1310,18100 1310,18200 1260,18200 1260,18050 1260,18000 1260,17850 1310,17850 1310,17950 1390,17950 1390,18000 1470,18000 1920,18000 1920,17950 1470,17950 1420,17950 1420,17950 1420,17900 1420,17900 1470,17900 1920,17900 1920,17850 1470,17850 1390,17850 1390,17900 1340,17900 1340,17850 1340,17800 1340,17800 1390,17800 1920,17800 1920,17750 1390,17750 1310,17750 1310,17800 1200,17800 1200,18000 1150,18000 1150,17750 1150,17700 1150,17350 1200,17350 1200,17450 1310,17450 1310,17550 1420,17550 1420,17650 1530,17650 1530,17700 1610,17700 1920,17700 1920,17650 1610,17650 1560,17650 1560,17650 1560,17600 1560,17600 1610,17600 1920,17600 1920,17550 1610,17550 1530,17550 1530,17600 1480,17600 1480,17550 1480,17500 1480,17500 1530,17500 1920,17500 1920,17450 1530,17450 1420,17450 1420,17500 1370,17500 1370,17450 1370,17400 1370,17400 1420,17400 1920,17400 1920,17350 1420,17350 1310,17350 1310,17400 1260,17400 1260,17350 1260,17300 1260,17250 1310,17250 1310,17300 1420,17300 1920,17300 1920,17250 1420,17250 1370,17250 1370,17250 1370,17200 1370,17200 1420,17200 1920,17200 1920,17150 1420,17150 1310,17150 1310,17200 1200,17200 1200,17300 1090,17300 1090,17700 1040,17700 1040,17150 1040,17100 1040,17100 1090,17100 1920,17100 1920,17050 1090,17050 980,17050 980,17100 930,17100 930,17050 930,17000 930,16450 980,16450 980,16550 1090,16550 1090,16750 1170,16750 1170,16850 1250,16850 1250,16950 1330,16950 1330,17000 1410,17000 1920,17000 1920,16950 1410,16950 1360,16950 1360,16950 1360,16900 1360,16900 1410,16900 1920,16900 1920,16850 1410,16850 1330,16850 1330,16900 1280,16900 1280,16850 1280,16800 1280,16800 1330,16800 1920,16800 1920,16750 1330,16750 1250,16750 1250,16800 1200,16800 1200,16750 1200,16700 1200,16650 1250,16650 1250,16700 1330,16700 1920,16700 1920,16650 1330,16650 1280,16650 1280,16650 1280,16600 1280,16600 1330,16600 1920,16600 1920,16550 1330,16550 1250,16550 1250,16600 1170,16600 1170,16700 1120,16700 1120,16550 1120,16500 1120,16500 1170,16500 1920,16500 1920,16450 1170,16450 1090,16450 1090,16500 1040,16500 1040,16450 1040,16400 1040,16150 1090,16150 1090,16250 1170,16250 1170,16350 1250,16350 1250,16400 1330,16400 1920,16400 1920,16350 1330,16350 1280,16350 1280,16350 1280,16300 1280,16300 1330,16300 1920,16300 1920,16250 1330,16250 1250,16250 1250,16300 1200,16300 1200,16250 1200,16200 1200,16200 1250,16200 1920,16200 1920,16150 1250,16150 1170,16150 1170,16200 1120,16200 1120,16150 1120,16100 1120,16050 1170,16050 1170,16100 1250,16100 1920,16100 1920,16050 1250,16050 1200,16050 1200,16050 1200,16000 1200,16000 1250,16000 1920,16000 1920,15950 1250,15950 1170,15950 1170,16000 1090,16000 1090,16100 980,16100 980,16400 870,16400 870,17000 820,17000 820,15950 820,15900 820,14850 870,14850 870,14950 980,14950 980,15050 1090,15050 1090,15350 1170,15350 1170,15450 1250,15450 1250,15550 1330,15550 1330,15750 1410,15750 1410,15850 1490,15850 1490,15900 1570,15900 1920,15900 1920,15850 1570,15850 1520,15850 1520,15850 1520,15800 1520,15800 1570,15800 1920,15800 1920,15750 1570,15750 1490,15750 1490,15800 1440,15800 1440,15750 1440,15700 1440,15650 1490,15650 1490,15700 1570,15700 1920,15700 1920,15650 1570,15650 1520,15650 1520,15650 1520,15600 1520,15600 1570,15600 1920,15600 1920,15550 1570,15550 1490,15550 1490,15600 1410,15600 1410,15700 1360,15700 1360,15550 1360,15500 1360,15500 1410,15500 1920,15500 1920,15450 1410,15450 1330,15450 1330,15500 1280,15500 1280,15450 1280,15400 1280,15400 1330,15400 1920,15400 1920,15350 1330,15350 1250,15350 1250,15400 1200,15400 1200,15350 1200,15300 1200,15150 1250,15150 1250,15250 1330,15250 1330,15300 1410,15300 1920,15300 1920,15250 1410,15250 1360,15250 1360,15250 1360,15200 1360,15200 1410,15200 1920,15200 1920,15150 1410,15150 1330,15150 1330,15200 1280,15200 1280,15150 1280,15100 1280,15100 1330,15100 1920,15100 1920,15050 1330,15050 1250,15050 1250,15100 1170,15100 1170,15300 1120,15300 1120,15050 1120,15000 1120,15000 1170,15000 1920,15000 1920,14950 1170,14950 1090,14950 1090,15000 1040,15000 1040,14950 1040,14900 1040,14900 1090,14900 1920,14900 1920,14850 1090,14850 980,14850 980,14900 930,14900 930,14850 930,14800 930,14350 980,14350 980,14550 1090,14550 1090,14650 1200,14650 1200,14750 1310,14750 1310,14800 1420,14800 1920,14800 1920,14750 1420,14750 1370,14750 1370,14750 1370,14700 1370,14700 1420,14700 1920,14700 1920,14650 1420,14650 1310,14650 1310,14700 1260,14700 1260,14650 1260,14600 1260,14600 1310,14600 1920,14600 1920,14550 1310,14550 1200,14550 1200,14600 1150,14600 1150,14550 1150,14500 1150,14450 1200,14450 1200,14500 1310,14500 1920,14500 1920,14450 1310,14450 1260,14450 1260,14450 1260,14400 1260,14400 1310,14400 1920,14400 1920,14350 1310,14350 1200,14350 1200,14400 1090,14400 1090,14500 1040,14500 1040,14350 1040,14300 1040,14300 1090,14300 1920,14300 1920,14250 1090,14250 980,14250 980,14300 870,14300 870,14800 760,14800 760,15900 710,15900 710,14250 710,14200 710,12450 760,12450 760,12650 870,12650 870,13350 980,13350 980,13650 1090,13650 1090,13950 1200,13950 1200,14050 1310,14050 1310,14150 1420,14150 1420,14200 1530,14200 1920,14200 1920,14150 1530,14150 1480,14150 1480,14150 1480,14100 1480,14100 1530,14100 1920,14100 1920,14050 1530,14050 1420,14050 1420,14100 1370,14100 1370,14050 1370,14000 1370,14000 1420,14000 1920,14000 1920,13950 1420,13950 1310,13950 1310,14000 1260,14000 1260,13950 1260,13900 1260,13750 1310,13750 1310,13850 1420,13850 1420,13900 1500,13900 1920,13900 1920,13850 1500,13850 1450,13850 1450,13850 1450,13800 1450,13800 1500,13800 1920,13800 1920,13750 1500,13750 1420,13750 1420,13800 1370,13800 1370,13750 1370,13700 1370,13700 1420,13700 1920,13700 1920,13650 1420,13650 1310,13650 1310,13700 1200,13700 1200,13900 1150,13900 1150,13650 1150,13600 1150,13450 1200,13450 1200,13550 1310,13550 1310,13600 1390,13600 1920,13600 1920,13550 1390,13550 1340,13550 1340,13550 1340,13500 1340,13500 1390,13500 1920,13500 1920,13450 1390,13450 1310,13450 1310,13500 1260,13500 1260,13450 1260,13400 1260,13400 1310,13400 1920,13400 1920,13350 1310,13350 1200,13350 1200,13400 1090,13400 1090,13600 1040,13600 1040,13350 1040,13300 1040,12950 1090,12950 1090,13050 1200,13050 1200,13150 1310,13150 1310,13250 1390,13250 1390,13300 1470,13300 1920,13300 1920,13250 1470,13250 1420,13250 1420,13250 1420,13200 1420,13200 1470,13200 1920,13200 1920,13150 1470,13150 1390,13150 1390,13200 1340,13200 1340,13150 1340,13100 1340,13100 1390,13100 1920,13100 1920,13050 1390,13050 1310,13050 1310,13100 1260,13100 1260,13050 1260,13000 1260,13000 1310,13000 1920,13000 1920,12950 1310,12950 1200,12950 1200,13000 1150,13000 1150,12950 1150,12900 1150,12750 1200,12750 1200,12850 1310,12850 1310,12900 1420,12900 1920,12900 1920,12850 1420,12850 1370,12850 1370,12850 1370,12800 1370,12800 1420,12800 1920,12800 1920,12750 1420,12750 1310,12750 1310,12800 1260,12800 1260,12750 1260,12700 1260,12700 1310,12700 1920,12700 1920,12650 1310,12650 1200,12650 1200,12700 1090,12700 1090,12900 980,12900 980,13300 930,13300 930,12650 930,12600 930,12550 980,12550 980,12600 1090,12600 1920,12600 1920,12550 1090,12550 1040,12550 1040,12550 1040,12500 1040,12500 1090,12500 1920,12500 1920,12450 1090,12450 980,12450 980,12500 870,12500 870,12600 820,12600 820,12450 820,12400 820,12150 870,12150 870,12250 980,12250 980,12350 1060,12350 1060,12400 1140,12400 1920,12400 1920,12350 1140,12350 1090,12350 1090,12350 1090,12300 1090,12300 1140,12300 1920,12300 1920,12250 1140,12250 1060,12250 1060,12300 1010,12300 1010,12250 1010,12200 1010,12200 1060,12200 1920,12200 1920,12150 1060,12150 980,12150 980,12200 930,12200 930,12150 930,12100 930,12100 980,12100 1920,12100 1920,12050 980,12050 870,12050 870,12100 760,12100 760,12400 650,12400 650,14200 600,14200 600,12050 600,12000 600,11250 650,11250 650,11650 760,11650 760,11750 870,11750 870,11850 950,11850 950,11950 1030,11950 1030,12000 1110,12000 1920,12000 1920,11950 1110,11950 1060,11950 1060,11950 1060,11900 1060,11900 1110,11900 1920,11900 1920,11850 1110,11850 1030,11850 1030,11900 980,11900 980,11850 980,11800 980,11800 1030,11800 1920,11800 1920,11750 1030,11750 950,11750 950,11800 900,11800 900,11750 900,11700 900,11700 950,11700 1920,11700 1920,11650 950,11650 870,11650 870,11700 820,11700 820,11650 820,11600 820,11450 870,11450 870,11550 950,11550 950,11600 1030,11600 1920,11600 1920,11550 1030,11550 980,11550 980,11550 980,11500 980,11500 1030,11500 1920,11500 1920,11450 1030,11450 950,11450 950,11500 900,11500 900,11450 900,11400 900,11350 950,11350 950,11400 1030,11400 1920,11400 1920,11350 1030,11350 980,11350 980,11350 980,11300 980,11300 1030,11300 1920,11300 1920,11250 1030,11250 950,11250 950,11300 870,11300 870,11400 760,11400 760,11600 710,11600 710,11250 710,11200 710,10850 760,10850 760,10950 870,10950 870,11050 980,11050 980,11150 1090,11150 1090,11200 1200,11200 1920,11200 1920,11150 1200,11150 1150,11150 1150,11150 1150,11100 1150,11100 1200,11100 1920,11100 1920,11050 1200,11050 1090,11050 1090,11100 1040,11100 1040,11050 1040,11000 1040,11000 1090,11000 1920,11000 1920,10950 1090,10950 980,10950 980,11000 930,11000 930,10950 930,10900 930,10900 980,10900 1920,10900 1920,10850 980,10850 870,10850 870,10900 820,10900 820,10850 820,10800 820,10750 870,10750 870,10800 980,10800 1920,10800 1920,10750 980,10750 930,10750 930,10750 930,10700 930,10700 980,10700 1920,10700 1920,10650 980,10650 870,10650 870,10700 760,10700 760,10800 650,10800 650,11200 540,11200 540,12000 490,12000 490,10650 490,10600 490,5850 540,5850 540,7250 650,7250 650,8250 760,8250 760,8650 870,8650 870,9550 980,9550 980,9750 1090,9750 1090,9850 1200,9850 1200,10150 1310,10150 1310,10250 1420,10250 1420,10350 1530,10350 1530,10450 1640,10450 1640,10550 1750,10550 1750,10600 1860,10600 1920,10600 1920,10550 1860,10550 1810,10550 1810,10550 1810,10500 1810,10500 1860,10500 1920,10500 1920,10450 1860,10450 1750,10450 1750,10500 1700,10500 1700,10450 1700,10400 1700,10400 1750,10400 1920,10400 1920,10350 1750,10350 1640,10350 1640,10400 1590,10400 1590,10350 1590,10300 1590,10300 1640,10300 1920,10300 1920,10250 1640,10250 1530,10250 1530,10300 1480,10300 1480,10250 1480,10200 1480,10200 1530,10200 1920,10200 1920,10150 1530,10150 1420,10150 1420,10200 1370,10200 1370,10150 1370,10100 1370,9950 1420,9950 1420,10050 1530,10050 1530,10100 1610,10100 1920,10100 1920,10050 1610,10050 1560,10050 1560,10050 1560,10000 1560,10000 1610,10000 1920,10000 1920,9950 1610,9950 1530,9950 1530,10000 1480,10000 1480,9950 1480,9900 1480,9900 1530,9900 1920,9900 1920,9850 1530,9850 1420,9850 1420,9900 1310,9900 1310,10100 1260,10100 1260,9850 1260,9800 1260,9800 1310,9800 1920,9800 1920,9750 1310,9750 1200,9750 1200,9800 1150,9800 1150,9750 1150,9700 1150,9650 1200,9650 1200,9700 1310,9700 1920,9700 1920,9650 1310,9650 1260,9650 1260,9650 1260,9600 1260,9600 1310,9600 1920,9600 1920,9550 1310,9550 1200,9550 1200,9600 1090,9600 1090,9700 1040,9700 1040,9550 1040,9500 1040,8750 1090,8750 1090,9050 1200,9050 1200,9250 1280,9250 1280,9350 1360,9350 1360,9450 1440,9450 1440,9500 1520,9500 1920,9500 1920,9450 1520,9450 1470,9450 1470,9450 1470,9400 1470,9400 1520,9400 1920,9400 1920,9350 1520,9350 1440,9350 1440,9400 1390,9400 1390,9350 1390,9300 1390,9300 1440,9300 1920,9300 1920,9250 1440,9250 1360,9250 1360,9300 1310,9300 1310,9250 1310,9200 1310,9150 1360,9150 1360,9200 1440,9200 1920,9200 1920,9150 1440,9150 1390,9150 1390,9150 1390,9100 1390,9100 1440,9100 1920,9100 1920,9050 1440,9050 1360,9050 1360,9100 1280,9100 1280,9200 1230,9200 1230,9050 1230,9000 1230,8850 1280,8850 1280,8950 1360,8950 1360,9000 1440,9000 1920,9000 1920,8950 1440,8950 1390,8950 1390,8950 1390,8900 1390,8900 1440,8900 1920,8900 1920,8850 1440,8850 1360,8850 1360,8900 1310,8900 1310,8850 1310,8800 1310,8800 1360,8800 1920,8800 1920,8750 1360,8750 1280,8750 1280,8800 1200,8800 1200,9000 1150,9000 1150,8750 1150,8700 1150,8700 1200,8700 1920,8700 1920,8650 1200,8650 1090,8650 1090,8700 980,8700 980,9500 930,9500 930,8650 930,8600 930,8450 980,8450 980,8550 1090,8550 1090,8600 1170,8600 1920,8600 1920,8550 1170,8550 1120,8550 1120,8550 1120,8500 1120,8500 1170,8500 1920,8500 1920,8450 1170,8450 1090,8450 1090,8500 1040,8500 1040,8450 1040,8400 1040,8350 1090,8350 1090,8400 1170,8400 1920,8400 1920,8350 1170,8350 1120,8350 1120,8350 1120,8300 1120,8300 1170,8300 1920,8300 1920,8250 1170,8250 1090,8250 1090,8300 980,8300 980,8400 870,8400 870,8600 820,8600 820,8250 820,8200 820,7650 870,7650 870,7950 980,7950 980,8050 1090,8050 1090,8150 1170,8150 1170,8200 1250,8200 1920,8200 1920,8150 1250,8150 1200,8150 1200,8150 1200,8100 1200,8100 1250,8100 1920,8100 1920,8050 1250,8050 1170,8050 1170,8100 1120,8100 1120,8050 1120,8000 1120,8000 1170,8000 1920,8000 1920,7950 1170,7950 1090,7950 1090,8000 1040,8000 1040,7950 1040,7900 1040,7750 1090,7750 1090,7850 1170,7850 1170,7900 1250,7900 1920,7900 1920,7850 1250,7850 1200,7850 1200,7850 1200,7800 1200,7800 1250,7800 1920,7800 1920,7750 1250,7750 1170,7750 1170,7800 1120,7800 1120,7750 1120,7700 1120,7700 1170,7700 1920,7700 1920,7650 1170,7650 1090,7650 1090,7700 980,7700 980,7900 930,7900 930,7650 930,7600 930,7350 980,7350 980,7450 1090,7450 1090,7550 1200,7550 1200,7600 1280,7600 1920,7600 1920,7550 1280,7550 1230,7550 1230,7550 1230,7500 1230,7500 1280,7500 1920,7500 1920,7450 1280,7450 1200,7450 1200,7500 1150,7500 1150,7450 1150,7400 1150,7400 1200,7400 1920,7400 1920,7350 1200,7350 1090,7350 1090,7400 1040,7400 1040,7350 1040,7300 1040,7300 1090,7300 1920,7300 1920,7250 1090,7250 980,7250 980,7300 870,7300 870,7600 760,7600 760,8200 710,8200 710,7250 710,7200 710,6250 760,6250 760,6650 870,6650 870,6850 950,6850 950,6950 1030,6950 1030,7050 1110,7050 1110,7150 1190,7150 1190,7200 1270,7200 1920,7200 1920,7150 1270,7150 1220,7150 1220,7150 1220,7100 1220,7100 1270,7100 1920,7100 1920,7050 1270,7050 1190,7050 1190,7100 1140,7100 1140,7050 1140,7000 1140,7000 1190,7000 1920,7000 1920,6950 1190,6950 1110,6950 1110,7000 1060,7000 1060,6950 1060,6900 1060,6900 1110,6900 1920,6900 1920,6850 1110,6850 1030,6850 1030,6900 980,6900 980,6850 980,6800 980,6750 1030,6750 1030,6800 1110,6800 1920,6800 1920,6750 1110,6750 1060,6750 1060,6750 1060,6700 1060,6700 1110,6700 1920,6700 1920,6650 1110,6650 1030,6650 1030,6700 950,6700 950,6800 900,6800 900,6650 900,6600 900,6450 950,6450 950,6550 1030,6550 1030,6600 1110,6600 1920,6600 1920,6550 1110,6550 1060,6550 1060,6550 1060,6500 1060,6500 1110,6500 1920,6500 1920,6450 1110,6450 1030,6450 1030,6500 980,6500 980,6450 980,6400 980,6350 1030,6350 1030,6400 1110,6400 1920,6400 1920,6350 1110,6350 1060,6350 1060,6350 1060,6300 1060,6300 1110,6300 1920,6300 1920,6250 1110,6250 1030,6250 1030,6300 950,6300 950,6400 870,6400 870,6600 820,6600 820,6250 820,6200 820,5950 870,5950 870,6050 950,6050 950,6150 1030,6150 1030,6200 1110,6200 1920,6200 1920,6150 1110,6150 1060,6150 1060,6150 1060,6100 1060,6100 1110,6100 1920,6100 1920,6050 1110,6050 1030,6050 1030,6100 980,6100 980,6050 980,6000 980,6000 1030,6000 1920,6000 1920,5950 1030,5950 950,5950 950,6000 900,6000 900,5950 900,5900 900,5900 950,5900 1920,5900 1920,5850 950,5850 870,5850 870,5900 760,5900 760,6200 650,6200 650,7200 600,7200 600,5850 600,5800 600,5050 650,5050 650,5350 760,5350 760,5550 840,5550 840,5650 920,5650 920,5750 1000,5750 1000,5800 1080,5800 1920,5800 1920,5750 1080,5750 1030,5750 1030,5750 1030,5700 1030,5700 1080,5700 1920,5700 1920,5650 1080,5650 1000,5650 1000,5700 950,5700 950,5650 950,5600 950,5600 1000,5600 1920,5600 1920,5550 1000,5550 920,5550 920,5600 870,5600 870,5550 870,5500 870,5450 920,5450 920,5500 1000,5500 1920,5500 1920,5450 1000,5450 950,5450 950,5450 950,5400 950,5400 1000,5400 1920,5400 1920,5350 1000,5350 920,5350 920,5400 840,5400 840,5500 790,5500 790,5350 790,5300 790,5150 840,5150 840,5250 920,5250 920,5300 1000,5300 1920,5300 1920,5250 1000,5250 950,5250 950,5250 950,5200 950,5200 1000,5200 1920,5200 1920,5150 1000,5150 920,5150 920,5200 870,5200 870,5150 870,5100 870,5100 920,5100 1920,5100 1920,5050 920,5050 840,5050 840,5100 760,5100 760,5300 710,5300 710,5050 710,5000 710,4650 760,4650 760,4850 840,4850 840,4950 920,4950 920,5000 1000,5000 1920,5000 1920,4950 1000,4950 950,4950 950,4950 950,4900 950,4900 1000,4900 1920,4900 1920,4850 1000,4850 920,4850 920,4900 870,4900 870,4850 870,4800 870,4750 920,4750 920,4800 1000,4800 1920,4800 1920,4750 1000,4750 950,4750 950,4750 950,4700 950,4700 1000,4700 1920,4700 1920,4650 1000,4650 920,4650 920,4700 840,4700 840,4800 790,4800 790,4650 790,4600 790,4550 840,4550 840,4600 920,4600 1920,4600 1920,4550 920,4550 870,4550 870,4550 870,4500 870,4500 920,4500 1920,4500 1920,4450 920,4450 840,4450 840,4500 760,4500 760,4600 650,4600 650,5000 540,5000 540,5800 430,5800 430,10600 380,10600 380,4450 380,4400 380,4350 430,4350 430,4400 540,4400 1920,4400 1920,4350 540,4350 490,4350 490,4350 490,4300 490,4300 540,4300 1920,4300 1920,4250 540,4250 430,4250 430,4300 320,4300 320,4400 270,4400 270,4250 270,4200 270,1550 320,1550 320,1650 430,1650 430,2950 540,2950 540,3050 650,3050 650,3350 760,3350 760,3450 870,3450 870,3650 980,3650 980,3750 1060,3750 1060,3950 1140,3950 1140,4050 1220,4050 1220,4150 1300,4150 1300,4200 1380,4200 1920,4200 1920,4150 1380,4150 1330,4150 1330,4150 1330,4100 1330,4100 1380,4100 1920,4100 1920,4050 1380,4050 1300,4050 1300,4100 1250,4100 1250,4050 1250,4000 1250,4000 1300,4000 1920,4000 1920,3950 1300,3950 1220,3950 1220,4000 1170,4000 1170,3950 1170,3900 1170,3850 1220,3850 1220,3900 1300,3900 1920,3900 1920,3850 1300,3850 1250,3850 1250,3850 1250,3800 1250,3800 1300,3800 1920,3800 1920,3750 1300,3750 1220,3750 1220,3800 1140,3800 1140,3900 1090,3900 1090,3750 1090,3700 1090,3700 1140,3700 1920,3700 1920,3650 1140,3650 1060,3650 1060,3700 1010,3700 1010,3650 1010,3600 1010,3550 1060,3550 1060,3600 1140,3600 1920,3600 1920,3550 1140,3550 1090,3550 1090,3550 1090,3500 1090,3500 1140,3500 1920,3500 1920,3450 1140,3450 1060,3450 1060,3500 980,3500 980,3600 930,3600 930,3450 930,3400 930,3400 980,3400 1920,3400 1920,3350 980,3350 870,3350 870,3400 820,3400 820,3350 820,3300 820,3150 870,3150 870,3250 980,3250 980,3300 1090,3300 1920,3300 1920,3250 1090,3250 1040,3250 1040,3250 1040,3200 1040,3200 1090,3200 1920,3200 1920,3150 1090,3150 980,3150 980,3200 930,3200 930,3150 930,3100 930,3100 980,3100 1920,3100 1920,3050 980,3050 870,3050 870,3100 760,3100 760,3300 710,3300 710,3050 710,3000 710,3000 760,3000 1920,3000 1920,2950 760,2950 650,2950 650,3000 600,3000 600,2950 600,2900 600,2150 650,2150 650,2450 760,2450 760,2550 840,2550 840,2650 920,2650 920,2750 1000,2750 1000,2850 1080,2850 1080,2900 1160,2900 1920,2900 1920,2850 1160,2850 1110,2850 1110,2850 1110,2800 1110,2800 1160,2800 1920,2800 1920,2750 1160,2750 1080,2750 1080,2800 1030,2800 1030,2750 1030,2700 1030,2700 1080,2700 1920,2700 1920,2650 1080,2650 1000,2650 1000,2700 950,2700 950,2650 950,2600 950,2600 1000,2600 1920,2600 1920,2550 1000,2550 920,2550 920,2600 870,2600 870,2550 870,2500 870,2500 920,2500 1920,2500 1920,2450 920,2450 840,2450 840,2500 790,2500 790,2450 790,2400 790,2250 840,2250 840,2350 920,2350 920,2400 1000,2400 1920,2400 1920,2350 1000,2350 950,2350 950,2350 950,2300 950,2300 1000,2300 1920,2300 1920,2250 1000,2250 920,2250 920,2300 870,2300 870,2250 870,2200 870,2200 920,2200 1920,2200 1920,2150 920,2150 840,2150 840,2200 760,2200 760,2400 710,2400 710,2150 710,2100 710,1750 760,1750 760,1950 840,1950 840,2050 920,2050 920,2100 1000,2100 1920,2100 1920,2050 1000,2050 950,2050 950,2050 950,2000 950,2000 1000,2000 1920,2000 1920,1950 1000,1950 920,1950 920,2000 870,2000 870,1950 870,1900 870,1850 920,1850 920,1900 1000,1900 1920,1900 1920,1850 1000,1850 950,1850 950,1850 950,1800 950,1800 1000,1800 1920,1800 1920,1750 1000,1750 920,1750 920,1800 840,1800 840,1900 790,1900 790,1750 790,1700 790,1700 840,1700 1920,1700 1920,1650 840,1650 760,1650 760,1700 650,1700 650,2100 540,2100 540,2900 490,2900 490,1650 490,1600 490,1600 540,1600 1920,1600 1920,1550 540,1550 430,1550 430,1600 380,1600 380,1550 380,1500 380,950 430,950 430,1150 540,1150 540,1250 620,1250 620,1350 700,1350 700,1450 780,1450 780,1500 860,1500 1920,1500 1920,1450 860,1450 810,1450 810,1450 810,1400 810,1400 860,1400 1920,1400 1920,1350 860,1350 780,1350 780,1400 730,1400 730,1350 730,1300 730,1300 780,1300 1920,1300 1920,1250 780,1250 700,1250 700,1300 650,1300 650,1250 650,1200 650,1200 700,1200 1920,1200 1920,1150 700,1150 620,1150 620,1200 570,1200 570,1150 570,1100 570,1050 620,1050 620,1100 700,1100 1920,1100 1920,1050 700,1050 650,1050 650,1050 650,1000 650,1000 700,1000 1920,1000 1920,950 700,950 620,950 620,1000 540,1000 540,1100 490,1100 490,950 490,900 490,550 540,550 540,750 620,750 620,850 700,850 700,900 780,900 1920,900 1920,850 780,850 730,850 730,850 730,800 730,800 780,800 1920,800 1920,750 780,750 700,750 700,800 650,800 650,750 650,700 650,650 700,650 700,700 780,700 1920,700 1920,650 780,650 730,650 730,650 730,600 730,600 780,600 1920,600 1920,550 780,550 700,550 700,600 620,600 620,700 570,700 570,550 570,500 570,500 620,500 1920,500 1920,450 620,450 540,450 540,500 430,500 430,900 320,900 320,1500 210,1500 210,4200 160,4200 160,450 160,400 160,350 210,350 210,400 290,400 1920,400 1920,350 290,350 240,350 240,350 240,300 240,300 290,300 1920,300 1920,250 290,250 210,250 210,300 130,300 130,400 80,400 80,250 80,200 80,150 130,150 130,200 210,200 1920,200 1920,150 210,150 160,150 160,150 160,100 160,100 210,100 1920,100 1920,50 210,50 130,50 130,100 50,100 50,200 " fill="rgb(255,255,255)" stroke-width="10" stroke="rgb(120,120,120)" />
	<text x="1842" y="18332" fill="rgb(0,0,0)" font-size="24" font-family="Verdana" >macNig</text>
	<text x="1842" y="18232" fill="rgb(0,0,0)" font-size="24" font-family="Verdana" >macOrc</text>
	<text x="1842" y="18132" fill="rgb(0,0,0)" font-size="24" font-family="Verdana" >macMau</text>
	<text x="1842" y="18032" fill="rgb(0,0,0)" font-size="24" font-family="Verdana" >macTon</text>
	<text x="1842" y="17932" fill="rgb(0,0,0)" font-size="24" font-family="Verdana" >macNem</text>
	<text x="1842" y="17832" fill="rgb(0,0,0)" font-size="24" font-family="Verdana" >macSil</text>
	<text x="1842" y="17732" fill="rgb(0,0,0)" font-size="24" font-family="Verdana" >macSib</text>
	<text x="1842" y="17632" fill="rgb(0,0,0)" font-size="24" font-family="Verdana" >macMul</text>
	<text x="1842" y="17532" fill="rgb(0,0,0)" font-size="24" font-family="Verdana" >macFus</text>
	<text x="1842" y="17432" fill="rgb(0,0,0)" font-size="24" font-family="Verdana" >macCyc</text>
	<text x="1842" y="17332" fill="rgb(0,0,0)" font-size="24" font-family="Verdana" >macFas</text>
	<text x="1842" y="17232" fill="rgb(0,0,0)" font-size="24" font-family="Verdana" >macArc</text>
	<text x="1842" y="17132" fill="rgb(0,0,0)" font-size="24" font-family="Verdana" >macThi</text>
	<text x="1842" y="17032" fill="rgb(0,0,0)" font-size="24" font-family="Verdana" >macSyl</text>
	<text x="1842" y="16932" fill="rgb(0,0,0)" font-size="24" font-family="Verdana" >papHam</text>
	<text x="1842" y="16832" fill="rgb(0,0,0)" font-size="24" font-family="Verdana" >papAnu</text>
	<text x="1842" y="16732" fill="rgb(0,0,0)" font-size="24" font-family="Verdana" >papPap</text>
	<text x="1842" y="16632" fill="rgb(0,0,0)" font-size="24" font-family="Verdana" >lopAte</text>
	<text x="1842" y="16532" fill="rgb(0,0,0)" font-size="24" font-family="Verdana" >lopAlb</text>
	<text x="1842" y="16432" fill="rgb(0,0,0)" font-size="24" font-family="Verdana" >theGel</text>
	<text x="1842" y="16332" fill="rgb(0,0,0)" font-size="24" font-family="Verdana" >cerAgi</text>
	<text x="1842" y="16232" fill="rgb(0,0,0)" font-size="24" font-family="Verdana" >cerChr</text>
	<text x="1842" y="16132" fill="rgb(0,0,0)" font-size="24" font-family="Verdana" >cerTor</text>
	<text x="1842" y="16032" fill="rgb(0,0,0)" font-size="24" font-family="Verdana" >manLeu</text>
	<text x="1842" y="15932" fill="rgb(0,0,0)" font-size="24" font-family="Verdana" >manSph</text>
	<text x="1842" y="15832" fill="rgb(0,0,0)" font-size="24" font-family="Verdana" >cerMit</text>
	<text x="1842" y="15732" fill="rgb(0,0,0)" font-size="24" font-family="Verdana" >cerAlb</text>
	<text x="1842" y="15632" fill="rgb(0,0,0)" font-size="24" font-family="Verdana" >cerCep</text>
	<text x="1842" y="15532" fill="rgb(0,0,0)" font-size="24" font-family="Verdana" >cerAsc</text>
	<text x="1842" y="15432" fill="rgb(0,0,0)" font-size="24" font-family="Verdana" >cerPet</text>
	<text x="1842" y="15332" fill="rgb(0,0,0)" font-size="24" font-family="Verdana" >cerDia</text>
	<text x="1842" y="15232" fill="rgb(0,0,0)" font-size="24" font-family="Verdana" >cerWol</text>
	<text x="1842" y="15132" fill="rgb(0,0,0)" font-size="24" font-family="Verdana" >cerMon</text>
	<text x="1842" y="15032" fill="rgb(0,0,0)" font-size="24" font-family="Verdana" >cerNeg</text>
	<text x="1842" y="14932" fill="rgb(0,0,0)" font-size="24" font-family="Verdana" >cerHam</text>
	<text x="1842" y="14832" fill="rgb(0,0,0)" font-size="24" font-family="Verdana" >mioOgo</text>
	<text x="1842" y="14732" fill="rgb(0,0,0)" font-size="24" font-family="Verdana" >chlAet</text>
	<text x="1842" y="14632" fill="rgb(0,0,0)" font-size="24" font-family="Verdana" >chlSab</text>
	<text x="1842" y="14532" fill="rgb(0,0,0)" font-size="24" font-family="Verdana" >chlCyn</text>
	<text x="1842" y="14432" fill="rgb(0,0,0)" font-size="24" font-family="Verdana" >eryPat</text>
	<text x="1842" y="14332" fill="rgb(0,0,0)" font-size="24" font-family="Verdana" >cerLho</text>
	<text x="1842" y="14232" fill="rgb(0,0,0)" font-size="24" font-family="Verdana" >allNig</text>
	<text x="1842" y="14132" fill="rgb(0,0,0)" font-size="24" font-family="Verdana" >traFra</text>
	<text x="1842" y="14032" fill="rgb(0,0,0)" font-size="24" font-family="Verdana" >traDel</text>
	<text x="1842" y="13932" fill="rgb(0,0,0)" font-size="24" font-family="Verdana" >traHat</text>
	<text x="1842" y="13832" fill="rgb(0,0,0)" font-size="24" font-family="Verdana" >traObs</text>
	<text x="1842" y="13732" fill="rgb(0,0,0)" font-size="24" font-family="Verdana" >traPha</text>
	<text x="1842" y="13632" fill="rgb(0,0,0)" font-size="24" font-family="Verdana" >traAur</text>
	<text x="1842" y="13532" fill="rgb(0,0,0)" font-size="24" font-family="Verdana" >semHec</text>
	<text x="1842" y="13432" fill="rgb(0,0,0)" font-size="24" font-family="Verdana" >semEnt</text>
	<text x="1842" y="13332" fill="rgb(0,0,0)" font-size="24" font-family="Verdana" >traVet</text>
	<text x="1842" y="13232" fill="rgb(0,0,0)" font-size="24" font-family="Verdana" >pygCin</text>
	<text x="1842" y="13132" fill="rgb(0,0,0)" font-size="24" font-family="Verdana" >pygNem</text>
	<text x="1842" y="13032" fill="rgb(0,0,0)" font-size="24" font-family="Verdana" >pygNig</text>
	<text x="1842" y="12932" fill="rgb(0,0,0)" font-size="24" font-family="Verdana" >nasLar</text>
	<text x="1842" y="12832" fill="rgb(0,0,0)" font-size="24" font-family="Verdana" >rhiRox</text>
	<text x="1842" y="12732" fill="rgb(0,0,0)" font-size="24" font-family="Verdana" >rhiBie</text>
	<text x="1842" y="12632" fill="rgb(0,0,0)" font-size="24" font-family="Verdana" >rhiBre</text>
	<text x="1842" y="12532" fill="rgb(0,0,0)" font-size="24" font-family="Verdana" >preMel</text>
	<text x="1842" y="12432" fill="rgb(0,0,0)" font-size="24" font-family="Verdana" >preCom</text>
	<text x="1842" y="12332" fill="rgb(0,0,0)" font-size="24" font-family="Verdana" >colGue</text>
	<text x="1842" y="12232" fill="rgb(0,0,0)" font-size="24" font-family="Verdana" >colPol</text>
	<text x="1842" y="12132" fill="rgb(0,0,0)" font-size="24" font-family="Verdana" >colAng</text>
	<text x="1842" y="12032" fill="rgb(0,0,0)" font-size="24" font-family="Verdana" >pilTep</text>
	<text x="1842" y="11932" fill="rgb(0,0,0)" font-size="24" font-family="Verdana" >hylMue</text>
	<text x="1842" y="11832" fill="rgb(0,0,0)" font-size="24" font-family="Verdana" >hylAgi</text>
	<text x="1842" y="11732" fill="rgb(0,0,0)" font-size="24" font-family="Verdana" >hylLar</text>
	<text x="1842" y="11632" fill="rgb(0,0,0)" font-size="24" font-family="Verdana" >symSyn</text>
	<text x="1842" y="11532" fill="rgb(0,0,0)" font-size="24" font-family="Verdana" >nomLeu</text>
	<text x="1842" y="11432" fill="rgb(0,0,0)" font-size="24" font-family="Verdana" >nomSik</text>
	<text x="1842" y="11332" fill="rgb(0,0,0)" font-size="24" font-family="Verdana" >nomGab</text>
	<text x="1842" y="11232" fill="rgb(0,0,0)" font-size="24" font-family="Verdana" >nomCon</text>
	<text x="1842" y="11132" fill="rgb(0,0,0)" font-size="24" font-family="Verdana" >panTro</text>
	<text x="1842" y="11032" fill="rgb(0,0,0)" font-size="24" font-family="Verdana" >panPan</text>
	<text x="1842" y="10932" fill="rgb(0,0,0)" font-size="24" font-family="Verdana" >homSap</text>
	<text x="1842" y="10832" fill="rgb(0,0,0)" font-size="24" font-family="Verdana" >gorGor</text>
	<text x="1842" y="10732" fill="rgb(0,0,0)" font-size="24" font-family="Verdana" >ponPyg</text>
	<text x="1842" y="10632" fill="rgb(0,0,0)" font-size="24" font-family="Verdana" >ponAbe</text>
	<text x="1842" y="10532" fill="rgb(0,0,0)" font-size="24" font-family="Verdana" >calJac</text>
	<text x="1842" y="10432" fill="rgb(0,0,0)" font-size="24" font-family="Verdana" >calPen</text>
	<text x="1842" y="10332" fill="rgb(0,0,0)" font-size="24" font-family="Verdana" >calKuh</text>
	<text x="1842" y="10232" fill="rgb(0,0,0)" font-size="24" font-family="Verdana" >calGeo</text>
	<text x="1842" y="10132" fill="rgb(0,0,0)" font-size="24" font-family="Verdana" >calAur</text>
	<text x="1842" y="10032" fill="rgb(0,0,0)" font-size="24" font-family="Verdana" >micArg</text>
	<text x="1842" y="9932" fill="rgb(0,0,0)" font-size="24" font-family="Verdana" >micHum</text>
	<text x="1842" y="9832" fill="rgb(0,0,0)" font-size="24" font-family="Verdana" >cebPyg</text>
	<text x="1842" y="9732" fill="rgb(0,0,0)" font-size="24" font-family="Verdana" >calGoe</text>
	<text x="1842" y="9632" fill="rgb(0,0,0)" font-size="24" font-family="Verdana" >leoRos</text>
	<text x="1842" y="9532" fill="rgb(0,0,0)" font-size="24" font-family="Verdana" >leoChr</text>
	<text x="1842" y="9432" fill="rgb(0,0,0)" font-size="24" font-family="Verdana" >sagMar</text>
	<text x="1842" y="9332" fill="rgb(0,0,0)" font-size="24" font-family="Verdana" >sagBic</text>
	<text x="1842" y="9232" fill="rgb(0,0,0)" font-size="24" font-family="Verdana" >sagMid</text>
	<text x="1842" y="9132" fill="rgb(0,0,0)" font-size="24" font-family="Verdana" >sagOed</text>
	<text x="1842" y="9032" fill="rgb(0,0,0)" font-size="24" font-family="Verdana" >sagGeo</text>
	<text x="1842" y="8932" fill="rgb(0,0,0)" font-size="24" font-family="Verdana" >sagMys</text>
	<text x="1842" y="8832" fill="rgb(0,0,0)" font-size="24" font-family="Verdana" >sagLab</text>
	<text x="1842" y="8732" fill="rgb(0,0,0)" font-size="24" font-family="Verdana" >sagImp</text>
	<text x="1842" y="8632" fill="rgb(0,0,0)" font-size="24" font-family="Verdana" >sagFus</text>
	<text x="1842" y="8532" fill="rgb(0,0,0)" font-size="24" font-family="Verdana" >aotAza</text>
	<text x="1842" y="8432" fill="rgb(0,0,0)" font-size="24" font-family="Verdana" >aotNan</text>
	<text x="1842" y="8332" fill="rgb(0,0,0)" font-size="24" font-family="Verdana" >aotTri</text>
	<text x="1842" y="8232" fill="rgb(0,0,0)" font-size="24" font-family="Verdana" >aotLem</text>
	<text x="1842" y="8132" fill="rgb(0,0,0)" font-size="24" font-family="Verdana" >cebXan</text>
	<text x="1842" y="8032" fill="rgb(0,0,0)" font-size="24" font-family="Verdana" >cebRob</text>
	<text x="1842" y="7932" fill="rgb(0,0,0)" font-size="24" font-family="Verdana" >cebApe</text>
	<text x="1842" y="7832" fill="rgb(0,0,0)" font-size="24" font-family="Verdana" >cebCap</text>
	<text x="1842" y="7732" fill="rgb(0,0,0)" font-size="24" font-family="Verdana" >cebAlb</text>
	<text x="1842" y="7632" fill="rgb(0,0,0)" font-size="24" font-family="Verdana" >cebOli</text>
	<text x="1842" y="7532" fill="rgb(0,0,0)" font-size="24" font-family="Verdana" >saiOer</text>
	<text x="1842" y="7432" fill="rgb(0,0,0)" font-size="24" font-family="Verdana" >saiSci</text>
	<text x="1842" y="7332" fill="rgb(0,0,0)" font-size="24" font-family="Verdana" >saiUst</text>
	<text x="1842" y="7232" fill="rgb(0,0,0)" font-size="24" font-family="Verdana" >saiBol</text>
	<text x="1842" y="7132" fill="rgb(0,0,0)" font-size="24" font-family="Verdana" >ateBel</text>
	<text x="1842" y="7032" fill="rgb(0,0,0)" font-size="24" font-family="Verdana" >ateGeo</text>
	<text x="1842" y="6932" fill="rgb(0,0,0)" font-size="24" font-family="Verdana" >ateHyb</text>
	<text x="1842" y="6832" fill="rgb(0,0,0)" font-size="24" font-family="Verdana" >ateFus</text>
	<text x="1842" y="6732" fill="rgb(0,0,0)" font-size="24" font-family="Verdana" >ateCha</text>
	<text x="1842" y="6632" fill="rgb(0,0,0)" font-size="24" font-family="Verdana" >atePan</text>
	<text x="1842" y="6532" fill="rgb(0,0,0)" font-size="24" font-family="Verdana" >braHyp</text>
	<text x="1842" y="6432" fill="rgb(0,0,0)" font-size="24" font-family="Verdana" >braAra</text>
	<text x="1842" y="6332" fill="rgb(0,0,0)" font-size="24" font-family="Verdana" >lagLag</text>
	<text x="1842" y="6232" fill="rgb(0,0,0)" font-size="24" font-family="Verdana" >lagCan</text>
	<text x="1842" y="6132" fill="rgb(0,0,0)" font-size="24" font-family="Verdana" >aloSar</text>
	<text x="1842" y="6032" fill="rgb(0,0,0)" font-size="24" font-family="Verdana" >aloCar</text>
	<text x="1842" y="5932" fill="rgb(0,0,0)" font-size="24" font-family="Verdana" >aloBel</text>
	<text x="1842" y="5832" fill="rgb(0,0,0)" font-size="24" font-family="Verdana" >aloPal</text>
	<text x="1842" y="5732" fill="rgb(0,0,0)" font-size="24" font-family="Verdana" >calMol</text>
	<text x="1842" y="5632" fill="rgb(0,0,0)" font-size="24" font-family="Verdana" >calBru</text>
	<text x="1842" y="5532" fill="rgb(0,0,0)" font-size="24" font-family="Verdana" >calCup</text>
	<text x="1842" y="5432" fill="rgb(0,0,0)" font-size="24" font-family="Verdana" >calCal</text>
	<text x="1842" y="5332" fill="rgb(0,0,0)" font-size="24" font-family="Verdana" >calDon</text>
	<text x="1842" y="5232" fill="rgb(0,0,0)" font-size="24" font-family="Verdana" >calCoi</text>
	<text x="1842" y="5132" fill="rgb(0,0,0)" font-size="24" font-family="Verdana" >calPer</text>
	<text x="1842" y="5032" fill="rgb(0,0,0)" font-size="24" font-family="Verdana" >calNig</text>
	<text x="1842" y="4932" fill="rgb(0,0,0)" font-size="24" font-family="Verdana" >chiIsr</text>
	<text x="1842" y="4832" fill="rgb(0,0,0)" font-size="24" font-family="Verdana" >chiSat</text>
	<text x="1842" y="4732" fill="rgb(0,0,0)" font-size="24" font-family="Verdana" >cacMel</text>
	<text x="1842" y="4632" fill="rgb(0,0,0)" font-size="24" font-family="Verdana" >cacCal</text>
	<text x="1842" y="4532" fill="rgb(0,0,0)" font-size="24" font-family="Verdana" >pitIrr</text>
	<text x="1842" y="4432" fill="rgb(0,0,0)" font-size="24" font-family="Verdana" >pitPit</text>
	<text x="1842" y="4332" fill="rgb(0,0,0)" font-size="24" font-family="Verdana" >carSyr</text>
	<text x="1842" y="4232" fill="rgb(0,0,0)" font-size="24" font-family="Verdana" >tarBan</text>
	<text x="1842" y="4132" fill="rgb(0,0,0)" font-size="24" font-family="Verdana" >eulRuf</text>
	<text x="1842" y="4032" fill="rgb(0,0,0)" font-size="24" font-family="Verdana" >eulCol</text>
	<text x="1842" y="3932" fill="rgb(0,0,0)" font-size="24" font-family="Verdana" >eulFul</text>
	<text x="1842" y="3832" fill="rgb(0,0,0)" font-size="24" font-family="Verdana" >eulSan</text>
	<text x="1842" y="3732" fill="rgb(0,0,0)" font-size="24" font-family="Verdana" >eulAlb</text>
	<text x="1842" y="3632" fill="rgb(0,0,0)" font-size="24" font-family="Verdana" >eulMon</text>
	<text x="1842" y="3532" fill="rgb(0,0,0)" font-size="24" font-family="Verdana" >eulMac</text>
	<text x="1842" y="3432" fill="rgb(0,0,0)" font-size="24" font-family="Verdana" >eulCor</text>
	<text x="1842" y="3332" fill="rgb(0,0,0)" font-size="24" font-family="Verdana" >eulRub</text>
	<text x="1842" y="3232" fill="rgb(0,0,0)" font-size="24" font-family="Verdana" >hapOcc</text>
	<text x="1842" y="3132" fill="rgb(0,0,0)" font-size="24" font-family="Verdana" >hapGri</text>
	<text x="1842" y="3032" fill="rgb(0,0,0)" font-size="24" font-family="Verdana" >lemCat</text>
	<text x="1842" y="2932" fill="rgb(0,0,0)" font-size="24" font-family="Verdana" >varVar</text>
	<text x="1842" y="2832" fill="rgb(0,0,0)" font-size="24" font-family="Verdana" >lepSep</text>
	<text x="1842" y="2732" fill="rgb(0,0,0)" font-size="24" font-family="Verdana" >lepAnk</text>
	<text x="1842" y="2632" fill="rgb(0,0,0)" font-size="24" font-family="Verdana" >lepDor</text>
	<text x="1842" y="2532" fill="rgb(0,0,0)" font-size="24" font-family="Verdana" >lepRuf</text>
	<text x="1842" y="2432" fill="rgb(0,0,0)" font-size="24" font-family="Verdana" >lepJam</text>
	<text x="1842" y="2332" fill="rgb(0,0,0)" font-size="24" font-family="Verdana" >micMur</text>
	<text x="1842" y="2232" fill="rgb(0,0,0)" font-size="24" font-family="Verdana" >mirZaz</text>
	<text x="1842" y="2132" fill="rgb(0,0,0)" font-size="24" font-family="Verdana" >cheMed</text>
	<text x="1842" y="2032" fill="rgb(0,0,0)" font-size="24" font-family="Verdana" >proVer</text>
	<text x="1842" y="1932" fill="rgb(0,0,0)" font-size="24" font-family="Verdana" >proTat</text>
	<text x="1842" y="1832" fill="rgb(0,0,0)" font-size="24" font-family="Verdana" >proDia</text>
	<text x="1842" y="1732" fill="rgb(0,0,0)" font-size="24" font-family="Verdana" >proEdw</text>
	<text x="1842" y="1632" fill="rgb(0,0,0)" font-size="24" font-family="Verdana" >avaLan</text>
	<text x="1842" y="1532" fill="rgb(0,0,0)" font-size="24" font-family="Verdana" >dauMad</text>
	<text x="1842" y="1432" fill="rgb(0,0,0)" font-size="24" font-family="Verdana" >nycBen</text>
	<text x="1842" y="1332" fill="rgb(0,0,0)" font-size="24" font-family="Verdana" >nycCou</text>
	<text x="1842" y="1232" fill="rgb(0,0,0)" font-size="24" font-family="Verdana" >nycPyg</text>
	<text x="1842" y="1132" fill="rgb(0,0,0)" font-size="24" font-family="Verdana" >lorTar</text>
	<text x="1842" y="1032" fill="rgb(0,0,0)" font-size="24" font-family="Verdana" >arcCal</text>
	<text x="1842" y="932" fill="rgb(0,0,0)" font-size="24" font-family="Verdana" >perPot</text>
	<text x="1842" y="832" fill="rgb(0,0,0)" font-size="24" font-family="Verdana" >galSen</text>
	<text x="1842" y="732" fill="rgb(0,0,0)" font-size="24" font-family="Verdana" >galMoh</text>
	<text x="1842" y="632" fill="rgb(0,0,0)" font-size="24" font-family="Verdana" >otoGar</text>
	<text x="1842" y="532" fill="rgb(0,0,0)" font-size="24" font-family="Verdana" >otoCra</text>
	<text x="1842" y="432" fill="rgb(0,0,0)" font-size="24" font-family="Verdana" >galTho</text>
	<text x="1842" y="332" fill="rgb(0,0,0)" font-size="24" font-family="Verdana" >galVar</text>
	<text x="1842" y="232" fill="rgb(0,0,0)" font-size="24" font-family="Verdana" >cynVol</text>
	<text x="1842" y="132" fill="rgb(0,0,0)" font-size="24" font-family="Verdana" >tupGli</text>
	<text x="1842" y="32" fill="rgb(0,0,0)" font-size="24" font-family="Verdana" >tupMin</text>
	<line x1="240" y1="4225" x2="240" y2="4425" stroke-width="3" stroke="rgb(65,170,190)" />
	<line x1="240" y1="4425" x2="350" y2="4425" stroke-width="3" stroke="rgb(65,170,190)" />
	<line x1="350" y1="4425" x2="350" y2="10625" stroke-width="3" stroke="rgb(65,170,190)" />
	<line x1="350" y1="10625" x2="460" y2="10625" stroke-width="3" stroke="rgb(65,170,190)" />
	<line x1="460" y1="10625" x2="460" y2="12025" stroke-width="3" stroke="rgb(65,170,190)" />
	<line x1="460" y1="12025" x2="570" y2="12025" stroke-width="3" stroke="rgb(65,170,190)" />
	<line x1="570" y1="12025" x2="570" y2="14225" stroke-width="3" stroke="rgb(65,170,190)" />
	<line x1="570" y1="14225" x2="680" y2="14225" stroke-width="3" stroke="rgb(65,170,190)" />
	<line x1="680" y1="14225" x2="680" y2="15925" stroke-width="3" stroke="rgb(65,170,190)" />
	<line x1="680" y1="15925" x2="790" y2="15925" stroke-width="3" stroke="rgb(65,170,190)" />
	<line x1="790" y1="15925" x2="790" y2="17025" stroke-width="3" stroke="rgb(65,170,190)" />
	<line x1="790" y1="17025" x2="900" y2="17025" stroke-width="3" stroke="rgb(65,170,190)" />
	<line x1="900" y1="17025" x2="900" y2="17125" stroke-width="3" stroke="rgb(65,170,190)" />
	<line x1="900" y1="17125" x2="1010" y2="17125" stroke-width="3" stroke="rgb(65,170,190)" />
	<line x1="1010" y1="17125" x2="1010" y2="17725" stroke-width="3" stroke="rgb(65,170,190)" />
	<line x1="1010" y1="17725" x2="1120" y2="17725" stroke-width="3" stroke="rgb(65,170,190)" />
	<line x1="1120" y1="17725" x2="1120" y2="18025" stroke-width="3" stroke="rgb(65,170,190)" />
	<line x1="1120" y1="18025" x2="1230" y2="18025" stroke-width="3" stroke="rgb(65,170,190)" />
	<line x1="1242.5" y1="18012.5" x2="1217.5" y2="18037.5" stroke-width="8.33333" stroke="rgb(65,170,190)" />
	<line x1="1242.5" y1="18037.5" x2="1217.5" y2="18012.5" stroke-width="8.33333" stroke="rgb(65,170,190)" />
	<line x1="1120" y1="17725" x2="1120" y2="17325" stroke-width="3" stroke="rgb(65,170,190)" />
	<line x1="1120" y1="17325" x2="1230" y2="17325" stroke-width="3" stroke="rgb(65,170,190)" />
	<line x1="1230" y1="17325" x2="1230" y2="17425" stroke-width="3" stroke="rgb(65,170,190)" />
	<line x1="1230" y1="17425" x2="1340" y2="17425" stroke-width="3" stroke="rgb(65,170,190)" />
	<line x1="1340" y1="17425" x2="1340" y2="17375" stroke-width="3" stroke="rgb(65,170,190)" />
	<line x1="1340" y1="17375" x2="1920" y2="17375" stroke-width="3" stroke="rgb(65,170,190)" />
	<text x="1945" y="17375" fill="rgb(65,170,190)" font-size="18" font-family="Verdana" >macFas_NFILZ_XM_045379968</text>
	<line x1="1340" y1="17425" x2="1340" y2="17525" stroke-width="3" stroke="rgb(65,170,190)" />
	<line x1="1340" y1="17525" x2="1450" y2="17525" stroke-width="3" stroke="rgb(65,170,190)" />
	<line x1="1462.5" y1="17512.5" x2="1437.5" y2="17537.5" stroke-width="8.33333" stroke="rgb(65,170,190)" />
	<line x1="1462.5" y1="17537.5" x2="1437.5" y2="17512.5" stroke-width="8.33333" stroke="rgb(65,170,190)" />
	<line x1="1230" y1="17325" x2="1230" y2="17225" stroke-width="3" stroke="rgb(65,170,190)" />
	<line x1="1230" y1="17225" x2="1340" y2="17225" stroke-width="3" stroke="rgb(65,170,190)" />
	<line x1="1352.5" y1="17212.5" x2="1327.5" y2="17237.5" stroke-width="8.33333" stroke="rgb(65,170,190)" />
	<line x1="1352.5" y1="17237.5" x2="1327.5" y2="17212.5" stroke-width="8.33333" stroke="rgb(65,170,190)" />
	<line x1="1010" y1="17125" x2="1010" y2="17075" stroke-width="3" stroke="rgb(65,170,190)" />
	<line x1="1010" y1="17075" x2="1120" y2="17075" stroke-width="3" stroke="rgb(65,170,190)" />
	<line x1="1132.5" y1="17062.5" x2="1107.5" y2="17087.5" stroke-width="8.33333" stroke="rgb(65,170,190)" />
	<line x1="1132.5" y1="17087.5" x2="1107.5" y2="17062.5" stroke-width="8.33333" stroke="rgb(65,170,190)" />
	<line x1="900" y1="17025" x2="900" y2="16425" stroke-width="3" stroke="rgb(65,170,190)" />
	<line x1="900" y1="16425" x2="1010" y2="16425" stroke-width="3" stroke="rgb(65,170,190)" />
	<line x1="1022.5" y1="16412.5" x2="997.5" y2="16437.5" stroke-width="8.33333" stroke="rgb(65,170,190)" />
	<line x1="1022.5" y1="16437.5" x2="997.5" y2="16412.5" stroke-width="8.33333" stroke="rgb(65,170,190)" />
	<line x1="790" y1="15925" x2="790" y2="14825" stroke-width="3" stroke="rgb(65,170,190)" />
	<line x1="790" y1="14825" x2="900" y2="14825" stroke-width="3" stroke="rgb(65,170,190)" />
	<line x1="900" y1="14825" x2="900" y2="14925" stroke-width="3" stroke="rgb(65,170,190)" />
	<line x1="900" y1="14925" x2="1010" y2="14925" stroke-width="3" stroke="rgb(65,170,190)" />
	<line x1="1022.5" y1="14912.5" x2="997.5" y2="14937.5" stroke-width="8.33333" stroke="rgb(65,170,190)" />
	<line x1="1022.5" y1="14937.5" x2="997.5" y2="14912.5" stroke-width="8.33333" stroke="rgb(65,170,190)" />
	<line x1="900" y1="14825" x2="900" y2="14325" stroke-width="3" stroke="rgb(65,170,190)" />
	<line x1="900" y1="14325" x2="1010" y2="14325" stroke-width="3" stroke="rgb(65,170,190)" />
	<line x1="1010" y1="14325" x2="1010" y2="14525" stroke-width="3" stroke="rgb(65,170,190)" />
	<line x1="1010" y1="14525" x2="1120" y2="14525" stroke-width="3" stroke="rgb(65,170,190)" />
	<line x1="1120" y1="14525" x2="1120" y2="14625" stroke-width="3" stroke="rgb(65,170,190)" />
	<line x1="1120" y1="14625" x2="1230" y2="14625" stroke-width="3" stroke="rgb(65,170,190)" />
	<line x1="1230" y1="14625" x2="1230" y2="14725" stroke-width="3" stroke="rgb(65,170,190)" />
	<line x1="1230" y1="14725" x2="1340" y2="14725" stroke-width="3" stroke="rgb(65,170,190)" />
	<line x1="1340" y1="14725" x2="1340" y2="14675" stroke-width="3" stroke="rgb(65,170,190)" />
	<line x1="1340" y1="14675" x2="1920" y2="14675" stroke-width="3" stroke="rgb(65,170,190)" />
	<text x="1945" y="14675" fill="rgb(65,170,190)" font-size="18" font-family="Verdana" >chlSab_NFILZ_XM_037992418</text>
	<line x1="1340" y1="14725" x2="1340" y2="14775" stroke-width="3" stroke="rgb(65,170,190)" />
	<line x1="1340" y1="14775" x2="1450" y2="14775" stroke-width="3" stroke="rgb(65,170,190)" />
	<line x1="1462.5" y1="14762.5" x2="1437.5" y2="14787.5" stroke-width="8.33333" stroke="rgb(65,170,190)" />
	<line x1="1462.5" y1="14787.5" x2="1437.5" y2="14762.5" stroke-width="8.33333" stroke="rgb(65,170,190)" />
	<line x1="1230" y1="14625" x2="1230" y2="14575" stroke-width="3" stroke="rgb(65,170,190)" />
	<line x1="1230" y1="14575" x2="1340" y2="14575" stroke-width="3" stroke="rgb(65,170,190)" />
	<line x1="1352.5" y1="14562.5" x2="1327.5" y2="14587.5" stroke-width="8.33333" stroke="rgb(65,170,190)" />
	<line x1="1352.5" y1="14587.5" x2="1327.5" y2="14562.5" stroke-width="8.33333" stroke="rgb(65,170,190)" />
	<line x1="1120" y1="14525" x2="1120" y2="14425" stroke-width="3" stroke="rgb(65,170,190)" />
	<line x1="1120" y1="14425" x2="1230" y2="14425" stroke-width="3" stroke="rgb(65,170,190)" />
	<line x1="1242.5" y1="14412.5" x2="1217.5" y2="14437.5" stroke-width="8.33333" stroke="rgb(65,170,190)" />
	<line x1="1242.5" y1="14437.5" x2="1217.5" y2="14412.5" stroke-width="8.33333" stroke="rgb(65,170,190)" />
	<line x1="1010" y1="14325" x2="1010" y2="14275" stroke-width="3" stroke="rgb(65,170,190)" />
	<line x1="1010" y1="14275" x2="1120" y2="14275" stroke-width="3" stroke="rgb(65,170,190)" />
	<line x1="1132.5" y1="14262.5" x2="1107.5" y2="14287.5" stroke-width="8.33333" stroke="rgb(65,170,190)" />
	<line x1="1132.5" y1="14287.5" x2="1107.5" y2="14262.5" stroke-width="8.33333" stroke="rgb(65,170,190)" />
	<line x1="680" y1="14225" x2="680" y2="12425" stroke-width="3" stroke="rgb(65,170,190)" />
	<line x1="680" y1="12425" x2="790" y2="12425" stroke-width="3" stroke="rgb(65,170,190)" />
	<line x1="790" y1="12425" x2="790" y2="12625" stroke-width="3" stroke="rgb(65,170,190)" />
	<line x1="790" y1="12625" x2="900" y2="12625" stroke-width="3" stroke="rgb(65,170,190)" />
	<line x1="900" y1="12625" x2="900" y2="13325" stroke-width="3" stroke="rgb(65,170,190)" />
	<line x1="900" y1="13325" x2="1010" y2="13325" stroke-width="3" stroke="rgb(65,170,190)" />
	<line x1="1010" y1="13325" x2="1010" y2="13625" stroke-width="3" stroke="rgb(65,170,190)" />
	<line x1="1010" y1="13625" x2="1120" y2="13625" stroke-width="3" stroke="rgb(65,170,190)" />
	<line x1="1120" y1="13625" x2="1120" y2="13925" stroke-width="3" stroke="rgb(65,170,190)" />
	<line x1="1120" y1="13925" x2="1230" y2="13925" stroke-width="3" stroke="rgb(65,170,190)" />
	<line x1="1230" y1="13925" x2="1230" y2="14025" stroke-width="3" stroke="rgb(65,170,190)" />
	<line x1="1230" y1="14025" x2="1340" y2="14025" stroke-width="3" stroke="rgb(65,170,190)" />
	<line x1="1340" y1="14025" x2="1340" y2="14125" stroke-width="3" stroke="rgb(65,170,190)" />
	<line x1="1340" y1="14125" x2="1450" y2="14125" stroke-width="3" stroke="rgb(65,170,190)" />
	<line x1="1450" y1="14125" x2="1450" y2="14175" stroke-width="3" stroke="rgb(65,170,190)" />
	<line x1="1450" y1="14175" x2="1920" y2="14175" stroke-width="3" stroke="rgb(65,170,190)" />
	<text x="1945" y="14175" fill="rgb(65,170,190)" font-size="18" font-family="Verdana" >traFra_NFILZ_XM_033197231</text>
	<line x1="1450" y1="14125" x2="1450" y2="14075" stroke-width="3" stroke="rgb(65,170,190)" />
	<line x1="1450" y1="14075" x2="1560" y2="14075" stroke-width="3" stroke="rgb(65,170,190)" />
	<line x1="1572.5" y1="14062.5" x2="1547.5" y2="14087.5" stroke-width="8.33333" stroke="rgb(65,170,190)" />
	<line x1="1572.5" y1="14087.5" x2="1547.5" y2="14062.5" stroke-width="8.33333" stroke="rgb(65,170,190)" />
	<line x1="1340" y1="14025" x2="1340" y2="13975" stroke-width="3" stroke="rgb(65,170,190)" />
	<line x1="1340" y1="13975" x2="1450" y2="13975" stroke-width="3" stroke="rgb(65,170,190)" />
	<line x1="1462.5" y1="13962.5" x2="1437.5" y2="13987.5" stroke-width="8.33333" stroke="rgb(65,170,190)" />
	<line x1="1462.5" y1="13987.5" x2="1437.5" y2="13962.5" stroke-width="8.33333" stroke="rgb(65,170,190)" />
	<line x1="1230" y1="13925" x2="1230" y2="13725" stroke-width="3" stroke="rgb(65,170,190)" />
	<line x1="1230" y1="13725" x2="1340" y2="13725" stroke-width="3" stroke="rgb(65,170,190)" />
	<line x1="1352.5" y1="13712.5" x2="1327.5" y2="13737.5" stroke-width="8.33333" stroke="rgb(65,170,190)" />
	<line x1="1352.5" y1="13737.5" x2="1327.5" y2="13712.5" stroke-width="8.33333" stroke="rgb(65,170,190)" />
	<line x1="1120" y1="13625" x2="1120" y2="13425" stroke-width="3" stroke="rgb(65,170,190)" />
	<line x1="1120" y1="13425" x2="1230" y2="13425" stroke-width="3" stroke="rgb(65,170,190)" />
	<line x1="1242.5" y1="13412.5" x2="1217.5" y2="13437.5" stroke-width="8.33333" stroke="rgb(65,170,190)" />
	<line x1="1242.5" y1="13437.5" x2="1217.5" y2="13412.5" stroke-width="8.33333" stroke="rgb(65,170,190)" />
	<line x1="1010" y1="13325" x2="1010" y2="12925" stroke-width="3" stroke="rgb(65,170,190)" />
	<line x1="1010" y1="12925" x2="1120" y2="12925" stroke-width="3" stroke="rgb(65,170,190)" />
	<line x1="1120" y1="12925" x2="1120" y2="13025" stroke-width="3" stroke="rgb(65,170,190)" />
	<line x1="1120" y1="13025" x2="1230" y2="13025" stroke-width="3" stroke="rgb(65,170,190)" />
	<line x1="1242.5" y1="13012.5" x2="1217.5" y2="13037.5" stroke-width="8.33333" stroke="rgb(65,170,190)" />
	<line x1="1242.5" y1="13037.5" x2="1217.5" y2="13012.5" stroke-width="8.33333" stroke="rgb(65,170,190)" />
	<line x1="1120" y1="12925" x2="1120" y2="12725" stroke-width="3" stroke="rgb(65,170,190)" />
	<line x1="1120" y1="12725" x2="1230" y2="12725" stroke-width="3" stroke="rgb(65,170,190)" />
	<line x1="1230" y1="12725" x2="1230" y2="12825" stroke-width="3" stroke="rgb(65,170,190)" />
	<line x1="1230" y1="12825" x2="1340" y2="12825" stroke-width="3" stroke="rgb(65,170,190)" />
	<line x1="1340" y1="12825" x2="1340" y2="12875" stroke-width="3" stroke="rgb(65,170,190)" />
	<line x1="1340" y1="12875" x2="1920" y2="12875" stroke-width="3" stroke="rgb(65,170,190)" />
	<text x="1945" y="12875" fill="rgb(65,170,190)" font-size="18" font-family="Verdana" >rhiRox_LOC115899017_XM_030934992</text>
	<line x1="1340" y1="12825" x2="1340" y2="12775" stroke-width="3" stroke="rgb(65,170,190)" />
	<line x1="1340" y1="12775" x2="1450" y2="12775" stroke-width="3" stroke="rgb(65,170,190)" />
	<line x1="1462.5" y1="12762.5" x2="1437.5" y2="12787.5" stroke-width="8.33333" stroke="rgb(65,170,190)" />
	<line x1="1462.5" y1="12787.5" x2="1437.5" y2="12762.5" stroke-width="8.33333" stroke="rgb(65,170,190)" />
	<line x1="1230" y1="12725" x2="1230" y2="12675" stroke-width="3" stroke="rgb(65,170,190)" />
	<line x1="1230" y1="12675" x2="1340" y2="12675" stroke-width="3" stroke="rgb(65,170,190)" />
	<line x1="1352.5" y1="12662.5" x2="1327.5" y2="12687.5" stroke-width="8.33333" stroke="rgb(65,170,190)" />
	<line x1="1352.5" y1="12687.5" x2="1327.5" y2="12662.5" stroke-width="8.33333" stroke="rgb(65,170,190)" />
	<line x1="900" y1="12625" x2="900" y2="12525" stroke-width="3" stroke="rgb(65,170,190)" />
	<line x1="900" y1="12525" x2="1010" y2="12525" stroke-width="3" stroke="rgb(65,170,190)" />
	<line x1="1022.5" y1="12512.5" x2="997.5" y2="12537.5" stroke-width="8.33333" stroke="rgb(65,170,190)" />
	<line x1="1022.5" y1="12537.5" x2="997.5" y2="12512.5" stroke-width="8.33333" stroke="rgb(65,170,190)" />
	<line x1="790" y1="12425" x2="790" y2="12125" stroke-width="3" stroke="rgb(65,170,190)" />
	<line x1="790" y1="12125" x2="900" y2="12125" stroke-width="3" stroke="rgb(65,170,190)" />
	<line x1="912.5" y1="12112.5" x2="887.5" y2="12137.5" stroke-width="8.33333" stroke="rgb(65,170,190)" />
	<line x1="912.5" y1="12137.5" x2="887.5" y2="12112.5" stroke-width="8.33333" stroke="rgb(65,170,190)" />
	<line x1="570" y1="12025" x2="570" y2="11225" stroke-width="3" stroke="rgb(65,170,190)" />
	<line x1="570" y1="11225" x2="680" y2="11225" stroke-width="3" stroke="rgb(65,170,190)" />
	<line x1="680" y1="11225" x2="680" y2="11625" stroke-width="3" stroke="rgb(65,170,190)" />
	<line x1="680" y1="11625" x2="790" y2="11625" stroke-width="3" stroke="rgb(65,170,190)" />
	<line x1="802.5" y1="11612.5" x2="777.5" y2="11637.5" stroke-width="8.33333" stroke="rgb(65,170,190)" />
	<line x1="802.5" y1="11637.5" x2="777.5" y2="11612.5" stroke-width="8.33333" stroke="rgb(65,170,190)" />
	<line x1="680" y1="11225" x2="680" y2="10825" stroke-width="3" stroke="rgb(65,170,190)" />
	<line x1="680" y1="10825" x2="790" y2="10825" stroke-width="3" stroke="rgb(65,170,190)" />
	<line x1="790" y1="10825" x2="790" y2="10925" stroke-width="3" stroke="rgb(65,170,190)" />
	<line x1="790" y1="10925" x2="900" y2="10925" stroke-width="3" stroke="rgb(65,170,190)" />
	<line x1="900" y1="10925" x2="900" y2="11025" stroke-width="3" stroke="rgb(65,170,190)" />
	<line x1="900" y1="11025" x2="1010" y2="11025" stroke-width="3" stroke="rgb(65,170,190)" />
	<line x1="1010" y1="11025" x2="1010" y2="10975" stroke-width="3" stroke="rgb(65,170,190)" />
	<line x1="1010" y1="10975" x2="1920" y2="10975" stroke-width="3" stroke="rgb(65,170,190)" />
	<text x="1945" y="10975" fill="rgb(65,170,190)" font-size="18" font-family="Verdana" >homSap_NFIL3_ENSG00000268480</text>
	<line x1="1010" y1="11025" x2="1010" y2="11125" stroke-width="3" stroke="rgb(65,170,190)" />
	<line x1="1010" y1="11125" x2="1120" y2="11125" stroke-width="3" stroke="rgb(65,170,190)" />
	<line x1="1120" y1="11125" x2="1120" y2="11075" stroke-width="3" stroke="rgb(65,170,190)" />
	<line x1="1120" y1="11075" x2="1920" y2="11075" stroke-width="3" stroke="rgb(65,170,190)" />
	<text x="1945" y="11075" fill="rgb(65,170,190)" font-size="18" font-family="Verdana" >panPan_NFILZ_XM_034944102</text>
	<line x1="1120" y1="11125" x2="1120" y2="11175" stroke-width="3" stroke="rgb(65,170,190)" />
	<line x1="1120" y1="11175" x2="1230" y2="11175" stroke-width="3" stroke="rgb(65,170,190)" />
	<line x1="1242.5" y1="11162.5" x2="1217.5" y2="11187.5" stroke-width="8.33333" stroke="rgb(65,170,190)" />
	<line x1="1242.5" y1="11187.5" x2="1217.5" y2="11162.5" stroke-width="8.33333" stroke="rgb(65,170,190)" />
	<line x1="900" y1="10925" x2="900" y2="10875" stroke-width="3" stroke="rgb(65,170,190)" />
	<line x1="900" y1="10875" x2="1010" y2="10875" stroke-width="3" stroke="rgb(65,170,190)" />
	<line x1="1022.5" y1="10862.5" x2="997.5" y2="10887.5" stroke-width="8.33333" stroke="rgb(65,170,190)" />
	<line x1="1022.5" y1="10887.5" x2="997.5" y2="10862.5" stroke-width="8.33333" stroke="rgb(65,170,190)" />
	<line x1="790" y1="10825" x2="790" y2="10725" stroke-width="3" stroke="rgb(65,170,190)" />
	<line x1="790" y1="10725" x2="900" y2="10725" stroke-width="3" stroke="rgb(65,170,190)" />
	<line x1="912.5" y1="10712.5" x2="887.5" y2="10737.5" stroke-width="8.33333" stroke="rgb(65,170,190)" />
	<line x1="912.5" y1="10737.5" x2="887.5" y2="10712.5" stroke-width="8.33333" stroke="rgb(65,170,190)" />
	<line x1="460" y1="10625" x2="460" y2="5825" stroke-width="3" stroke="rgb(65,170,190)" />
	<line x1="460" y1="5825" x2="570" y2="5825" stroke-width="3" stroke="rgb(65,170,190)" />
	<line x1="570" y1="5825" x2="570" y2="7225" stroke-width="3" stroke="rgb(65,170,190)" />
	<line x1="570" y1="7225" x2="680" y2="7225" stroke-width="3" stroke="rgb(65,170,190)" />
	<line x1="680" y1="7225" x2="680" y2="8225" stroke-width="3" stroke="rgb(65,170,190)" />
	<line x1="680" y1="8225" x2="790" y2="8225" stroke-width="3" stroke="rgb(65,170,190)" />
	<line x1="790" y1="8225" x2="790" y2="8625" stroke-width="3" stroke="rgb(65,170,190)" />
	<line x1="790" y1="8625" x2="900" y2="8625" stroke-width="3" stroke="rgb(65,170,190)" />
	<line x1="900" y1="8625" x2="900" y2="9525" stroke-width="3" stroke="rgb(65,170,190)" />
	<line x1="900" y1="9525" x2="1010" y2="9525" stroke-width="3" stroke="rgb(65,170,190)" />
	<line x1="1010" y1="9525" x2="1010" y2="9725" stroke-width="3" stroke="rgb(65,170,190)" />
	<line x1="1010" y1="9725" x2="1120" y2="9725" stroke-width="3" stroke="rgb(65,170,190)" />
	<line x1="1120" y1="9725" x2="1120" y2="9825" stroke-width="3" stroke="rgb(65,170,190)" />
	<line x1="1120" y1="9825" x2="1230" y2="9825" stroke-width="3" stroke="rgb(65,170,190)" />
	<line x1="1230" y1="9825" x2="1230" y2="10125" stroke-width="3" stroke="rgb(65,170,190)" />
	<line x1="1230" y1="10125" x2="1340" y2="10125" stroke-width="3" stroke="rgb(65,170,190)" />
	<line x1="1340" y1="10125" x2="1340" y2="10225" stroke-width="3" stroke="rgb(65,170,190)" />
	<line x1="1340" y1="10225" x2="1450" y2="10225" stroke-width="3" stroke="rgb(65,170,190)" />
	<line x1="1450" y1="10225" x2="1450" y2="10325" stroke-width="3" stroke="rgb(65,170,190)" />
	<line x1="1450" y1="10325" x2="1560" y2="10325" stroke-width="3" stroke="rgb(65,170,190)" />
	<line x1="1560" y1="10325" x2="1560" y2="10425" stroke-width="3" stroke="rgb(65,170,190)" />
	<line x1="1560" y1="10425" x2="1670" y2="10425" stroke-width="3" stroke="rgb(65,170,190)" />
	<line x1="1670" y1="10425" x2="1670" y2="10525" stroke-width="3" stroke="rgb(65,170,190)" />
	<line x1="1670" y1="10525" x2="1780" y2="10525" stroke-width="3" stroke="rgb(65,170,190)" />
	<line x1="1780" y1="10525" x2="1780" y2="10575" stroke-width="3" stroke="rgb(65,170,190)" />
	<line x1="1780" y1="10575" x2="1920" y2="10575" stroke-width="3" stroke="rgb(65,170,190)" />
	<text x="1945" y="10575" fill="rgb(65,170,190)" font-size="18" font-family="Verdana" >calJac_NFILZ_XM_035286919</text>
	<line x1="1780" y1="10525" x2="1780" y2="10475" stroke-width="3" stroke="rgb(65,170,190)" />
	<line x1="1780" y1="10475" x2="1890" y2="10475" stroke-width="3" stroke="rgb(65,170,190)" />
	<line x1="1902.5" y1="10462.5" x2="1877.5" y2="10487.5" stroke-width="8.33333" stroke="rgb(65,170,190)" />
	<line x1="1902.5" y1="10487.5" x2="1877.5" y2="10462.5" stroke-width="8.33333" stroke="rgb(65,170,190)" />
	<line x1="1670" y1="10425" x2="1670" y2="10375" stroke-width="3" stroke="rgb(65,170,190)" />
	<line x1="1670" y1="10375" x2="1780" y2="10375" stroke-width="3" stroke="rgb(65,170,190)" />
	<line x1="1792.5" y1="10362.5" x2="1767.5" y2="10387.5" stroke-width="8.33333" stroke="rgb(65,170,190)" />
	<line x1="1792.5" y1="10387.5" x2="1767.5" y2="10362.5" stroke-width="8.33333" stroke="rgb(65,170,190)" />
	<line x1="1560" y1="10325" x2="1560" y2="10275" stroke-width="3" stroke="rgb(65,170,190)" />
	<line x1="1560" y1="10275" x2="1670" y2="10275" stroke-width="3" stroke="rgb(65,170,190)" />
	<line x1="1682.5" y1="10262.5" x2="1657.5" y2="10287.5" stroke-width="8.33333" stroke="rgb(65,170,190)" />
	<line x1="1682.5" y1="10287.5" x2="1657.5" y2="10262.5" stroke-width="8.33333" stroke="rgb(65,170,190)" />
	<line x1="1450" y1="10225" x2="1450" y2="10175" stroke-width="3" stroke="rgb(65,170,190)" />
	<line x1="1450" y1="10175" x2="1560" y2="10175" stroke-width="3" stroke="rgb(65,170,190)" />
	<line x1="1572.5" y1="10162.5" x2="1547.5" y2="10187.5" stroke-width="8.33333" stroke="rgb(65,170,190)" />
	<line x1="1572.5" y1="10187.5" x2="1547.5" y2="10162.5" stroke-width="8.33333" stroke="rgb(65,170,190)" />
	<line x1="1340" y1="10125" x2="1340" y2="9925" stroke-width="3" stroke="rgb(65,170,190)" />
	<line x1="1340" y1="9925" x2="1450" y2="9925" stroke-width="3" stroke="rgb(65,170,190)" />
	<line x1="1462.5" y1="9912.5" x2="1437.5" y2="9937.5" stroke-width="8.33333" stroke="rgb(65,170,190)" />
	<line x1="1462.5" y1="9937.5" x2="1437.5" y2="9912.5" stroke-width="8.33333" stroke="rgb(65,170,190)" />
	<line x1="1230" y1="9825" x2="1230" y2="9775" stroke-width="3" stroke="rgb(65,170,190)" />
	<line x1="1230" y1="9775" x2="1340" y2="9775" stroke-width="3" stroke="rgb(65,170,190)" />
	<line x1="1352.5" y1="9762.5" x2="1327.5" y2="9787.5" stroke-width="8.33333" stroke="rgb(65,170,190)" />
	<line x1="1352.5" y1="9787.5" x2="1327.5" y2="9762.5" stroke-width="8.33333" stroke="rgb(65,170,190)" />
	<line x1="1120" y1="9725" x2="1120" y2="9625" stroke-width="3" stroke="rgb(65,170,190)" />
	<line x1="1120" y1="9625" x2="1230" y2="9625" stroke-width="3" stroke="rgb(65,170,190)" />
	<line x1="1242.5" y1="9612.5" x2="1217.5" y2="9637.5" stroke-width="8.33333" stroke="rgb(65,170,190)" />
	<line x1="1242.5" y1="9637.5" x2="1217.5" y2="9612.5" stroke-width="8.33333" stroke="rgb(65,170,190)" />
	<line x1="1010" y1="9525" x2="1010" y2="8725" stroke-width="3" stroke="rgb(65,170,190)" />
	<line x1="1010" y1="8725" x2="1120" y2="8725" stroke-width="3" stroke="rgb(65,170,190)" />
	<line x1="1132.5" y1="8712.5" x2="1107.5" y2="8737.5" stroke-width="8.33333" stroke="rgb(65,170,190)" />
	<line x1="1132.5" y1="8737.5" x2="1107.5" y2="8712.5" stroke-width="8.33333" stroke="rgb(65,170,190)" />
	<line x1="900" y1="8625" x2="900" y2="8425" stroke-width="3" stroke="rgb(65,170,190)" />
	<line x1="900" y1="8425" x2="1010" y2="8425" stroke-width="3" stroke="rgb(65,170,190)" />
	<line x1="1022.5" y1="8412.5" x2="997.5" y2="8437.5" stroke-width="8.33333" stroke="rgb(65,170,190)" />
	<line x1="1022.5" y1="8437.5" x2="997.5" y2="8412.5" stroke-width="8.33333" stroke="rgb(65,170,190)" />
	<line x1="790" y1="8225" x2="790" y2="7625" stroke-width="3" stroke="rgb(65,170,190)" />
	<line x1="790" y1="7625" x2="900" y2="7625" stroke-width="3" stroke="rgb(65,170,190)" />
	<line x1="900" y1="7625" x2="900" y2="7925" stroke-width="3" stroke="rgb(65,170,190)" />
	<line x1="900" y1="7925" x2="1010" y2="7925" stroke-width="3" stroke="rgb(65,170,190)" />
	<line x1="1022.5" y1="7912.5" x2="997.5" y2="7937.5" stroke-width="8.33333" stroke="rgb(65,170,190)" />
	<line x1="1022.5" y1="7937.5" x2="997.5" y2="7912.5" stroke-width="8.33333" stroke="rgb(65,170,190)" />
	<line x1="900" y1="7625" x2="900" y2="7325" stroke-width="3" stroke="rgb(65,170,190)" />
	<line x1="900" y1="7325" x2="1010" y2="7325" stroke-width="3" stroke="rgb(65,170,190)" />
	<line x1="1010" y1="7325" x2="1010" y2="7275" stroke-width="3" stroke="rgb(65,170,190)" />
	<line x1="1010" y1="7275" x2="1920" y2="7275" stroke-width="3" stroke="rgb(65,170,190)" />
	<text x="1945" y="7275" fill="rgb(65,170,190)" font-size="18" font-family="Verdana" >saiBolBol_NFILZ_XM_039465724</text>
	<line x1="1010" y1="7325" x2="1010" y2="7425" stroke-width="3" stroke="rgb(65,170,190)" />
	<line x1="1010" y1="7425" x2="1120" y2="7425" stroke-width="3" stroke="rgb(65,170,190)" />
	<line x1="1132.5" y1="7412.5" x2="1107.5" y2="7437.5" stroke-width="8.33333" stroke="rgb(65,170,190)" />
	<line x1="1132.5" y1="7437.5" x2="1107.5" y2="7412.5" stroke-width="8.33333" stroke="rgb(65,170,190)" />
	<line x1="680" y1="7225" x2="680" y2="6225" stroke-width="3" stroke="rgb(65,170,190)" />
	<line x1="680" y1="6225" x2="790" y2="6225" stroke-width="3" stroke="rgb(65,170,190)" />
	<line x1="802.5" y1="6212.5" x2="777.5" y2="6237.5" stroke-width="8.33333" stroke="rgb(65,170,190)" />
	<line x1="802.5" y1="6237.5" x2="777.5" y2="6212.5" stroke-width="8.33333" stroke="rgb(65,170,190)" />
	<line x1="570" y1="5825" x2="570" y2="5025" stroke-width="3" stroke="rgb(65,170,190)" />
	<line x1="570" y1="5025" x2="680" y2="5025" stroke-width="3" stroke="rgb(65,170,190)" />
	<line x1="692.5" y1="5012.5" x2="667.5" y2="5037.5" stroke-width="8.33333" stroke="rgb(65,170,190)" />
	<line x1="692.5" y1="5037.5" x2="667.5" y2="5012.5" stroke-width="8.33333" stroke="rgb(65,170,190)" />
	<line x1="350" y1="4425" x2="350" y2="4325" stroke-width="3" stroke="rgb(65,170,190)" />
	<line x1="350" y1="4325" x2="460" y2="4325" stroke-width="3" stroke="rgb(65,170,190)" />
	<line x1="472.5" y1="4312.5" x2="447.5" y2="4337.5" stroke-width="8.33333" stroke="rgb(65,170,190)" />
	<line x1="472.5" y1="4337.5" x2="447.5" y2="4312.5" stroke-width="8.33333" stroke="rgb(65,170,190)" />
	<line x1="240" y1="4225" x2="240" y2="1525" stroke-width="3" stroke="rgb(65,170,190)" />
	<line x1="240" y1="1525" x2="350" y2="1525" stroke-width="3" stroke="rgb(65,170,190)" />
	<line x1="350" y1="1525" x2="350" y2="1625" stroke-width="3" stroke="rgb(65,170,190)" />
	<line x1="350" y1="1625" x2="460" y2="1625" stroke-width="3" stroke="rgb(65,170,190)" />
	<line x1="460" y1="1625" x2="460" y2="2925" stroke-width="3" stroke="rgb(65,170,190)" />
	<line x1="460" y1="2925" x2="570" y2="2925" stroke-width="3" stroke="rgb(65,170,190)" />
	<line x1="570" y1="2925" x2="570" y2="3025" stroke-width="3" stroke="rgb(65,170,190)" />
	<line x1="570" y1="3025" x2="680" y2="3025" stroke-width="3" stroke="rgb(65,170,190)" />
	<line x1="680" y1="3025" x2="680" y2="3325" stroke-width="3" stroke="rgb(65,170,190)" />
	<line x1="680" y1="3325" x2="790" y2="3325" stroke-width="3" stroke="rgb(65,170,190)" />
	<line x1="790" y1="3325" x2="790" y2="3425" stroke-width="3" stroke="rgb(65,170,190)" />
	<line x1="790" y1="3425" x2="900" y2="3425" stroke-width="3" stroke="rgb(65,170,190)" />
	<line x1="912.5" y1="3412.5" x2="887.5" y2="3437.5" stroke-width="8.33333" stroke="rgb(65,170,190)" />
	<line x1="912.5" y1="3437.5" x2="887.5" y2="3412.5" stroke-width="8.33333" stroke="rgb(65,170,190)" />
	<line x1="790" y1="3325" x2="790" y2="3125" stroke-width="3" stroke="rgb(65,170,190)" />
	<line x1="790" y1="3125" x2="900" y2="3125" stroke-width="3" stroke="rgb(65,170,190)" />
	<line x1="900" y1="3125" x2="900" y2="3075" stroke-width="3" stroke="rgb(65,170,190)" />
	<line x1="900" y1="3075" x2="1920" y2="3075" stroke-width="3" stroke="rgb(65,170,190)" />
	<text x="1945" y="3075" fill="rgb(65,170,190)" font-size="18" font-family="Verdana" >lemCat_NFILZ_XM_045548187</text>
	<line x1="900" y1="3125" x2="900" y2="3225" stroke-width="3" stroke="rgb(65,170,190)" />
	<line x1="900" y1="3225" x2="1010" y2="3225" stroke-width="3" stroke="rgb(65,170,190)" />
	<line x1="1022.5" y1="3212.5" x2="997.5" y2="3237.5" stroke-width="8.33333" stroke="rgb(65,170,190)" />
	<line x1="1022.5" y1="3237.5" x2="997.5" y2="3212.5" stroke-width="8.33333" stroke="rgb(65,170,190)" />
	<line x1="680" y1="3025" x2="680" y2="2975" stroke-width="3" stroke="rgb(65,170,190)" />
	<line x1="680" y1="2975" x2="790" y2="2975" stroke-width="3" stroke="rgb(65,170,190)" />
	<line x1="802.5" y1="2962.5" x2="777.5" y2="2987.5" stroke-width="8.33333" stroke="rgb(65,170,190)" />
	<line x1="802.5" y1="2987.5" x2="777.5" y2="2962.5" stroke-width="8.33333" stroke="rgb(65,170,190)" />
	<line x1="570" y1="2925" x2="570" y2="2125" stroke-width="3" stroke="rgb(65,170,190)" />
	<line x1="570" y1="2125" x2="680" y2="2125" stroke-width="3" stroke="rgb(65,170,190)" />
	<line x1="692.5" y1="2112.5" x2="667.5" y2="2137.5" stroke-width="8.33333" stroke="rgb(65,170,190)" />
	<line x1="692.5" y1="2137.5" x2="667.5" y2="2112.5" stroke-width="8.33333" stroke="rgb(65,170,190)" />
	<line x1="460" y1="1625" x2="460" y2="1575" stroke-width="3" stroke="rgb(65,170,190)" />
	<line x1="460" y1="1575" x2="570" y2="1575" stroke-width="3" stroke="rgb(65,170,190)" />
	<line x1="582.5" y1="1562.5" x2="557.5" y2="1587.5" stroke-width="8.33333" stroke="rgb(65,170,190)" />
	<line x1="582.5" y1="1587.5" x2="557.5" y2="1562.5" stroke-width="8.33333" stroke="rgb(65,170,190)" />
	<line x1="350" y1="1525" x2="350" y2="925" stroke-width="3" stroke="rgb(65,170,190)" />
	<line x1="350" y1="925" x2="460" y2="925" stroke-width="3" stroke="rgb(65,170,190)" />
	<line x1="472.5" y1="912.5" x2="447.5" y2="937.5" stroke-width="8.33333" stroke="rgb(65,170,190)" />
	<line x1="472.5" y1="937.5" x2="447.5" y2="912.5" stroke-width="8.33333" stroke="rgb(65,170,190)" />
	<polygon points="255.625,4225 246.32,4220.41 244.828,4210.14 237.586,4217.57 227.359,4215.82 232.188,4225 227.359,4234.18 237.586,4232.43 244.828,4239.86 246.32,4229.59 255.625,4225 " fill="rgb(255,255,255)" stroke-width="6.25" stroke="rgb(65,170,190)" />
</svg>
