<?xml version="1.0" standalone="no" ?>
<!DOCTYPE svg PUBLIC "-//W3C//DTD SVG 1.1//EN" "http://www.w3.org/Graphics/SVG/1.1/DTD/svg11.dtd">
<svg width="2875px" height="18435px" xmlns="http://www.w3.org/2000/svg" version="1.1" >
	<polygon points="50,250 50,450 130,450 130,4250 210,4250 210,4450 320,4450 320,10675 430,10675 430,12075 540,12075 540,14275 650,14275 650,15975 760,15975 760,17075 870,17075 870,17175 980,17175 980,17775 1090,17775 1090,18075 1200,18075 1200,18275 1310,18275 1310,18375 1420,18375 1420,18425 1500,18425 1950,18425 1950,18375 1500,18375 1450,18375 1450,18375 1450,18325 1450,18325 1500,18325 1950,18325 1950,18275 1500,18275 1420,18275 1420,18325 1370,18325 1370,18275 1370,18225 1370,18175 1420,18175 1420,18225 1500,18225 1950,18225 1950,18175 1500,18175 1450,18175 1450,18175 1450,18125 1450,18125 1500,18125 1950,18125 1950,18075 1500,18075 1420,18075 1420,18125 1310,18125 1310,18225 1260,18225 1260,18075 1260,18025 1260,17875 1310,17875 1310,17975 1420,17975 1420,18025 1530,18025 1950,18025 1950,17975 1530,17975 1480,17975 1480,17975 1480,17925 1480,17925 1530,17925 1950,17925 1950,17875 1530,17875 1420,17875 1420,17925 1370,17925 1370,17875 1370,17825 1370,17825 1420,17825 1950,17825 1950,17775 1420,17775 1310,17775 1310,17825 1200,17825 1200,18025 1150,18025 1150,17775 1150,17725 1150,17375 1200,17375 1200,17475 1310,17475 1310,17575 1420,17575 1420,17675 1530,17675 1530,17725 1640,17725 1950,17725 1950,17675 1640,17675 1590,17675 1590,17675 1590,17625 1590,17625 1640,17625 1950,17625 1950,17575 1640,17575 1530,17575 1530,17625 1480,17625 1480,17575 1480,17525 1480,17525 1530,17525 1950,17525 1950,17475 1530,17475 1420,17475 1420,17525 1370,17525 1370,17475 1370,17425 1370,17425 1420,17425 1950,17425 1950,17375 1420,17375 1310,17375 1310,17425 1260,17425 1260,17375 1260,17325 1260,17275 1310,17275 1310,17325 1420,17325 1950,17325 1950,17275 1420,17275 1370,17275 1370,17275 1370,17225 1370,17225 1420,17225 1950,17225 1950,17175 1420,17175 1310,17175 1310,17225 1200,17225 1200,17325 1090,17325 1090,17725 1040,17725 1040,17175 1040,17125 1040,17125 1090,17125 1950,17125 1950,17075 1090,17075 980,17075 980,17125 930,17125 930,17075 930,17025 930,16475 980,16475 980,16575 1090,16575 1090,16775 1200,16775 1200,16875 1310,16875 1310,16975 1420,16975 1420,17025 1530,17025 1950,17025 1950,16975 1530,16975 1480,16975 1480,16975 1480,16925 1480,16925 1530,16925 1950,16925 1950,16875 1530,16875 1420,16875 1420,16925 1370,16925 1370,16875 1370,16825 1370,16825 1420,16825 1950,16825 1950,16775 1420,16775 1310,16775 1310,16825 1260,16825 1260,16775 1260,16725 1260,16675 1310,16675 1310,16725 1420,16725 1950,16725 1950,16675 1420,16675 1370,16675 1370,16675 1370,16625 1370,16625 1420,16625 1950,16625 1950,16575 1420,16575 1310,16575 1310,16625 1200,16625 1200,16725 1150,16725 1150,16575 1150,16525 1150,16525 1200,16525 1950,16525 1950,16475 1200,16475 1090,16475 1090,16525 1040,16525 1040,16475 1040,16425 1040,16175 1090,16175 1090,16275 1200,16275 1200,16375 1310,16375 1310,16425 1390,16425 1950,16425 1950,16375 1390,16375 1340,16375 1340,16375 1340,16325 1340,16325 1390,16325 1950,16325 1950,16275 1390,16275 1310,16275 1310,16325 1260,16325 1260,16275 1260,16225 1260,16225 1310,16225 1950,16225 1950,16175 1310,16175 1200,16175 1200,16225 1150,16225 1150,16175 1150,16125 1150,16075 1200,16075 1200,16125 1310,16125 1950,16125 1950,16075 1310,16075 1260,16075 1260,16075 1260,16025 1260,16025 1310,16025 1950,16025 1950,15975 1310,15975 1200,15975 1200,16025 1090,16025 1090,16125 980,16125 980,16425 870,16425 870,17025 820,17025 820,15975 820,15925 820,14875 870,14875 870,14975 980,14975 980,15075 1090,15075 1090,15375 1170,15375 1170,15475 1250,15475 1250,15575 1330,15575 1330,15775 1410,15775 1410,15875 1490,15875 1490,15925 1570,15925 1950,15925 1950,15875 1570,15875 1520,15875 1520,15875 1520,15825 1520,15825 1570,15825 1950,15825 1950,15775 1570,15775 1490,15775 1490,15825 1440,15825 1440,15775 1440,15725 1440,15675 1490,15675 1490,15725 1570,15725 1950,15725 1950,15675 1570,15675 1520,15675 1520,15675 1520,15625 1520,15625 1570,15625 1950,15625 1950,15575 1570,15575 1490,15575 1490,15625 1410,15625 1410,15725 1360,15725 1360,15575 1360,15525 1360,15525 1410,15525 1950,15525 1950,15475 1410,15475 1330,15475 1330,15525 1280,15525 1280,15475 1280,15425 1280,15425 1330,15425 1950,15425 1950,15375 1330,15375 1250,15375 1250,15425 1200,15425 1200,15375 1200,15325 1200,15175 1250,15175 1250,15275 1330,15275 1330,15325 1410,15325 1950,15325 1950,15275 1410,15275 1360,15275 1360,15275 1360,15225 1360,15225 1410,15225 1950,15225 1950,15175 1410,15175 1330,15175 1330,15225 1280,15225 1280,15175 1280,15125 1280,15125 1330,15125 1950,15125 1950,15075 1330,15075 1250,15075 1250,15125 1170,15125 1170,15325 1120,15325 1120,15075 1120,15025 1120,15025 1170,15025 1950,15025 1950,14975 1170,14975 1090,14975 1090,15025 1040,15025 1040,14975 1040,14925 1040,14925 1090,14925 1950,14925 1950,14875 1090,14875 980,14875 980,14925 930,14925 930,14875 930,14825 930,14375 980,14375 980,14575 1090,14575 1090,14675 1200,14675 1200,14775 1310,14775 1310,14825 1420,14825 1950,14825 1950,14775 1420,14775 1370,14775 1370,14775 1370,14725 1370,14725 1420,14725 1950,14725 1950,14675 1420,14675 1310,14675 1310,14725 1260,14725 1260,14675 1260,14625 1260,14625 1310,14625 1950,14625 1950,14575 1310,14575 1200,14575 1200,14625 1150,14625 1150,14575 1150,14525 1150,14475 1200,14475 1200,14525 1310,14525 1950,14525 1950,14475 1310,14475 1260,14475 1260,14475 1260,14425 1260,14425 1310,14425 1950,14425 1950,14375 1310,14375 1200,14375 1200,14425 1090,14425 1090,14525 1040,14525 1040,14375 1040,14325 1040,14325 1090,14325 1950,14325 1950,14275 1090,14275 980,14275 980,14325 870,14325 870,14825 760,14825 760,15925 710,15925 710,14275 710,14225 710,12475 760,12475 760,12675 870,12675 870,13375 980,13375 980,13675 1090,13675 1090,13975 1200,13975 1200,14075 1310,14075 1310,14175 1420,14175 1420,14225 1530,14225 1950,14225 1950,14175 1530,14175 1480,14175 1480,14175 1480,14125 1480,14125 1530,14125 1950,14125 1950,14075 1530,14075 1420,14075 1420,14125 1370,14125 1370,14075 1370,14025 1370,14025 1420,14025 1950,14025 1950,13975 1420,13975 1310,13975 1310,14025 1260,14025 1260,13975 1260,13925 1260,13775 1310,13775 1310,13875 1420,13875 1420,13925 1500,13925 1950,13925 1950,13875 1500,13875 1450,13875 1450,13875 1450,13825 1450,13825 1500,13825 1950,13825 1950,13775 1500,13775 1420,13775 1420,13825 1370,13825 1370,13775 1370,13725 1370,13725 1420,13725 1950,13725 1950,13675 1420,13675 1310,13675 1310,13725 1200,13725 1200,13925 1150,13925 1150,13675 1150,13625 1150,13475 1200,13475 1200,13575 1310,13575 1310,13625 1390,13625 1950,13625 1950,13575 1390,13575 1340,13575 1340,13575 1340,13525 1340,13525 1390,13525 1950,13525 1950,13475 1390,13475 1310,13475 1310,13525 1260,13525 1260,13475 1260,13425 1260,13425 1310,13425 1950,13425 1950,13375 1310,13375 1200,13375 1200,13425 1090,13425 1090,13625 1040,13625 1040,13375 1040,13325 1040,12975 1090,12975 1090,13075 1200,13075 1200,13175 1280,13175 1280,13275 1360,13275 1360,13325 1440,13325 1950,13325 1950,13275 1440,13275 1390,13275 1390,13275 1390,13225 1390,13225 1440,13225 1950,13225 1950,13175 1440,13175 1360,13175 1360,13225 1310,13225 1310,13175 1310,13125 1310,13125 1360,13125 1950,13125 1950,13075 1360,13075 1280,13075 1280,13125 1230,13125 1230,13075 1230,13025 1230,13025 1280,13025 1950,13025 1950,12975 1280,12975 1200,12975 1200,13025 1150,13025 1150,12975 1150,12925 1150,12775 1200,12775 1200,12875 1280,12875 1280,12925 1360,12925 1950,12925 1950,12875 1360,12875 1310,12875 1310,12875 1310,12825 1310,12825 1360,12825 1950,12825 1950,12775 1360,12775 1280,12775 1280,12825 1230,12825 1230,12775 1230,12725 1230,12725 1280,12725 1950,12725 1950,12675 1280,12675 1200,12675 1200,12725 1090,12725 1090,12925 980,12925 980,13325 930,13325 930,12675 930,12625 930,12575 980,12575 980,12625 1090,12625 1950,12625 1950,12575 1090,12575 1040,12575 1040,12575 1040,12525 1040,12525 1090,12525 1950,12525 1950,12475 1090,12475 980,12475 980,12525 870,12525 870,12625 820,12625 820,12475 820,12425 820,12175 870,12175 870,12275 980,12275 980,12375 1090,12375 1090,12425 1200,12425 1950,12425 1950,12375 1200,12375 1150,12375 1150,12375 1150,12325 1150,12325 1200,12325 1950,12325 1950,12275 1200,12275 1090,12275 1090,12325 1040,12325 1040,12275 1040,12225 1040,12225 1090,12225 1950,12225 1950,12175 1090,12175 980,12175 980,12225 930,12225 930,12175 930,12125 930,12125 980,12125 1950,12125 1950,12075 980,12075 870,12075 870,12125 760,12125 760,12425 650,12425 650,14225 600,14225 600,12075 600,12025 600,11275 650,11275 650,11675 760,11675 760,11775 870,11775 870,11875 980,11875 980,11975 1060,11975 1060,12025 1140,12025 1950,12025 1950,11975 1140,11975 1090,11975 1090,11975 1090,11925 1090,11925 1140,11925 1950,11925 1950,11875 1140,11875 1060,11875 1060,11925 1010,11925 1010,11875 1010,11825 1010,11825 1060,11825 1950,11825 1950,11775 1060,11775 980,11775 980,11825 930,11825 930,11775 930,11725 930,11725 980,11725 1950,11725 1950,11675 980,11675 870,11675 870,11725 820,11725 820,11675 820,11625 820,11475 870,11475 870,11575 980,11575 980,11625 1090,11625 1950,11625 1950,11575 1090,11575 1040,11575 1040,11575 1040,11525 1040,11525 1090,11525 1950,11525 1950,11475 1090,11475 980,11475 980,11525 930,11525 930,11475 930,11425 930,11375 980,11375 980,11425 1090,11425 1950,11425 1950,11375 1090,11375 1040,11375 1040,11375 1040,11325 1040,11325 1090,11325 1950,11325 1950,11275 1090,11275 980,11275 980,11325 870,11325 870,11425 760,11425 760,11625 710,11625 710,11275 710,11225 710,10875 760,10875 760,10975 870,10975 870,11075 980,11075 980,11175 1090,11175 1090,11225 1200,11225 1950,11225 1950,11175 1200,11175 1150,11175 1150,11175 1150,11125 1150,11125 1200,11125 1950,11125 1950,11075 1200,11075 1090,11075 1090,11125 1040,11125 1040,11075 1040,11025 1040,11025 1090,11025 1950,11025 1950,10975 1090,10975 980,10975 980,11025 930,11025 930,10975 930,10925 930,10925 980,10925 1950,10925 1950,10875 980,10875 870,10875 870,10925 820,10925 820,10875 820,10825 820,10775 870,10775 870,10825 980,10825 1950,10825 1950,10775 980,10775 930,10775 930,10775 930,10725 930,10725 980,10725 1950,10725 1950,10675 980,10675 870,10675 870,10725 760,10725 760,10825 650,10825 650,11225 540,11225 540,12025 490,12025 490,10675 490,10625 490,5850 540,5850 540,7250 650,7250 650,8250 760,8250 760,8650 870,8650 870,9550 980,9550 980,9750 1090,9750 1090,9850 1200,9850 1200,10150 1310,10150 1310,10250 1420,10250 1420,10350 1530,10350 1530,10450 1640,10450 1640,10550 1750,10550 1750,10625 1860,10625 1950,10625 1950,10550 1860,10550 1810,10550 1810,10550 1810,10500 1810,10500 1860,10500 1950,10500 1950,10450 1860,10450 1750,10450 1750,10500 1700,10500 1700,10450 1700,10400 1700,10400 1750,10400 1950,10400 1950,10350 1750,10350 1640,10350 1640,10400 1590,10400 1590,10350 1590,10300 1590,10300 1640,10300 1950,10300 1950,10250 1640,10250 1530,10250 1530,10300 1480,10300 1480,10250 1480,10200 1480,10200 1530,10200 1950,10200 1950,10150 1530,10150 1420,10150 1420,10200 1370,10200 1370,10150 1370,10100 1370,9950 1420,9950 1420,10050 1530,10050 1530,10100 1610,10100 1950,10100 1950,10050 1610,10050 1560,10050 1560,10050 1560,10000 1560,10000 1610,10000 1950,10000 1950,9950 1610,9950 1530,9950 1530,10000 1480,10000 1480,9950 1480,9900 1480,9900 1530,9900 1950,9900 1950,9850 1530,9850 1420,9850 1420,9900 1310,9900 1310,10100 1260,10100 1260,9850 1260,9800 1260,9800 1310,9800 1950,9800 1950,9750 1310,9750 1200,9750 1200,9800 1150,9800 1150,9750 1150,9700 1150,9650 1200,9650 1200,9700 1310,9700 1950,9700 1950,9650 1310,9650 1260,9650 1260,9650 1260,9600 1260,9600 1310,9600 1950,9600 1950,9550 1310,9550 1200,9550 1200,9600 1090,9600 1090,9700 1040,9700 1040,9550 1040,9500 1040,8750 1090,8750 1090,9050 1200,9050 1200,9250 1280,9250 1280,9350 1360,9350 1360,9450 1440,9450 1440,9500 1520,9500 1950,9500 1950,9450 1520,9450 1470,9450 1470,9450 1470,9400 1470,9400 1520,9400 1950,9400 1950,9350 1520,9350 1440,9350 1440,9400 1390,9400 1390,9350 1390,9300 1390,9300 1440,9300 1950,9300 1950,9250 1440,9250 1360,9250 1360,9300 1310,9300 1310,9250 1310,9200 1310,9150 1360,9150 1360,9200 1440,9200 1950,9200 1950,9150 1440,9150 1390,9150 1390,9150 1390,9100 1390,9100 1440,9100 1950,9100 1950,9050 1440,9050 1360,9050 1360,9100 1280,9100 1280,9200 1230,9200 1230,9050 1230,9000 1230,8850 1280,8850 1280,8950 1360,8950 1360,9000 1440,9000 1950,9000 1950,8950 1440,8950 1390,8950 1390,8950 1390,8900 1390,8900 1440,8900 1950,8900 1950,8850 1440,8850 1360,8850 1360,8900 1310,8900 1310,8850 1310,8800 1310,8800 1360,8800 1950,8800 1950,8750 1360,8750 1280,8750 1280,8800 1200,8800 1200,9000 1150,9000 1150,8750 1150,8700 1150,8700 1200,8700 1950,8700 1950,8650 1200,8650 1090,8650 1090,8700 980,8700 980,9500 930,9500 930,8650 930,8600 930,8450 980,8450 980,8550 1090,8550 1090,8600 1200,8600 1950,8600 1950,8550 1200,8550 1150,8550 1150,8550 1150,8500 1150,8500 1200,8500 1950,8500 1950,8450 1200,8450 1090,8450 1090,8500 1040,8500 1040,8450 1040,8400 1040,8350 1090,8350 1090,8400 1200,8400 1950,8400 1950,8350 1200,8350 1150,8350 1150,8350 1150,8300 1150,8300 1200,8300 1950,8300 1950,8250 1200,8250 1090,8250 1090,8300 980,8300 980,8400 870,8400 870,8600 820,8600 820,8250 820,8200 820,7650 870,7650 870,7950 980,7950 980,8050 1060,8050 1060,8150 1140,8150 1140,8200 1220,8200 1950,8200 1950,8150 1220,8150 1170,8150 1170,8150 1170,8100 1170,8100 1220,8100 1950,8100 1950,8050 1220,8050 1140,8050 1140,8100 1090,8100 1090,8050 1090,8000 1090,8000 1140,8000 1950,8000 1950,7950 1140,7950 1060,7950 1060,8000 1010,8000 1010,7950 1010,7900 1010,7750 1060,7750 1060,7850 1140,7850 1140,7900 1220,7900 1950,7900 1950,7850 1220,7850 1170,7850 1170,7850 1170,7800 1170,7800 1220,7800 1950,7800 1950,7750 1220,7750 1140,7750 1140,7800 1090,7800 1090,7750 1090,7700 1090,7700 1140,7700 1950,7700 1950,7650 1140,7650 1060,7650 1060,7700 980,7700 980,7900 930,7900 930,7650 930,7600 930,7350 980,7350 980,7450 1060,7450 1060,7550 1140,7550 1140,7600 1220,7600 1950,7600 1950,7550 1220,7550 1170,7550 1170,7550 1170,7500 1170,7500 1220,7500 1950,7500 1950,7450 1220,7450 1140,7450 1140,7500 1090,7500 1090,7450 1090,7400 1090,7400 1140,7400 1950,7400 1950,7350 1140,7350 1060,7350 1060,7400 1010,7400 1010,7350 1010,7300 1010,7300 1060,7300 1950,7300 1950,7250 1060,7250 980,7250 980,7300 870,7300 870,7600 760,7600 760,8200 710,8200 710,7250 710,7200 710,6250 760,6250 760,6650 870,6650 870,6850 950,6850 950,6950 1030,6950 1030,7050 1110,7050 1110,7150 1190,7150 1190,7200 1270,7200 1950,7200 1950,7150 1270,7150 1220,7150 1220,7150 1220,7100 1220,7100 1270,7100 1950,7100 1950,7050 1270,7050 1190,7050 1190,7100 1140,7100 1140,7050 1140,7000 1140,7000 1190,7000 1950,7000 1950,6950 1190,6950 1110,6950 1110,7000 1060,7000 1060,6950 1060,6900 1060,6900 1110,6900 1950,6900 1950,6850 1110,6850 1030,6850 1030,6900 980,6900 980,6850 980,6800 980,6750 1030,6750 1030,6800 1110,6800 1950,6800 1950,6750 1110,6750 1060,6750 1060,6750 1060,6700 1060,6700 1110,6700 1950,6700 1950,6650 1110,6650 1030,6650 1030,6700 950,6700 950,6800 900,6800 900,6650 900,6600 900,6450 950,6450 950,6550 1030,6550 1030,6600 1110,6600 1950,6600 1950,6550 1110,6550 1060,6550 1060,6550 1060,6500 1060,6500 1110,6500 1950,6500 1950,6450 1110,6450 1030,6450 1030,6500 980,6500 980,6450 980,6400 980,6350 1030,6350 1030,6400 1110,6400 1950,6400 1950,6350 1110,6350 1060,6350 1060,6350 1060,6300 1060,6300 1110,6300 1950,6300 1950,6250 1110,6250 1030,6250 1030,6300 950,6300 950,6400 870,6400 870,6600 820,6600 820,6250 820,6200 820,5950 870,5950 870,6050 950,6050 950,6150 1030,6150 1030,6200 1110,6200 1950,6200 1950,6150 1110,6150 1060,6150 1060,6150 1060,6100 1060,6100 1110,6100 1950,6100 1950,6050 1110,6050 1030,6050 1030,6100 980,6100 980,6050 980,6000 980,6000 1030,6000 1950,6000 1950,5950 1030,5950 950,5950 950,6000 900,6000 900,5950 900,5900 900,5900 950,5900 1950,5900 1950,5850 950,5850 870,5850 870,5900 760,5900 760,6200 650,6200 650,7200 600,7200 600,5850 600,5800 600,5050 650,5050 650,5350 760,5350 760,5550 840,5550 840,5650 920,5650 920,5750 1000,5750 1000,5800 1080,5800 1950,5800 1950,5750 1080,5750 1030,5750 1030,5750 1030,5700 1030,5700 1080,5700 1950,5700 1950,5650 1080,5650 1000,5650 1000,5700 950,5700 950,5650 950,5600 950,5600 1000,5600 1950,5600 1950,5550 1000,5550 920,5550 920,5600 870,5600 870,5550 870,5500 870,5450 920,5450 920,5500 1000,5500 1950,5500 1950,5450 1000,5450 950,5450 950,5450 950,5400 950,5400 1000,5400 1950,5400 1950,5350 1000,5350 920,5350 920,5400 840,5400 840,5500 790,5500 790,5350 790,5300 790,5150 840,5150 840,5250 920,5250 920,5300 1000,5300 1950,5300 1950,5250 1000,5250 950,5250 950,5250 950,5200 950,5200 1000,5200 1950,5200 1950,5150 1000,5150 920,5150 920,5200 870,5200 870,5150 870,5100 870,5100 920,5100 1950,5100 1950,5050 920,5050 840,5050 840,5100 760,5100 760,5300 710,5300 710,5050 710,5000 710,4650 760,4650 760,4850 840,4850 840,4950 920,4950 920,5000 1000,5000 1950,5000 1950,4950 1000,4950 950,4950 950,4950 950,4900 950,4900 1000,4900 1950,4900 1950,4850 1000,4850 920,4850 920,4900 870,4900 870,4850 870,4800 870,4750 920,4750 920,4800 1000,4800 1950,4800 1950,4750 1000,4750 950,4750 950,4750 950,4700 950,4700 1000,4700 1950,4700 1950,4650 1000,4650 920,4650 920,4700 840,4700 840,4800 790,4800 790,4650 790,4600 790,4550 840,4550 840,4600 920,4600 1950,4600 1950,4550 920,4550 870,4550 870,4550 870,4500 870,4500 920,4500 1950,4500 1950,4450 920,4450 840,4450 840,4500 760,4500 760,4600 650,4600 650,5000 540,5000 540,5800 430,5800 430,10625 380,10625 380,4450 380,4400 380,4350 430,4350 430,4400 540,4400 1950,4400 1950,4350 540,4350 490,4350 490,4350 490,4300 490,4300 540,4300 1950,4300 1950,4250 540,4250 430,4250 430,4300 320,4300 320,4400 270,4400 270,4250 270,4200 270,1550 320,1550 320,1650 430,1650 430,2950 540,2950 540,3050 650,3050 650,3350 760,3350 760,3450 870,3450 870,3650 980,3650 980,3750 1060,3750 1060,3950 1140,3950 1140,4050 1220,4050 1220,4150 1300,4150 1300,4200 1380,4200 1950,4200 1950,4150 1380,4150 1330,4150 1330,4150 1330,4100 1330,4100 1380,4100 1950,4100 1950,4050 1380,4050 1300,4050 1300,4100 1250,4100 1250,4050 1250,4000 1250,4000 1300,4000 1950,4000 1950,3950 1300,3950 1220,3950 1220,4000 1170,4000 1170,3950 1170,3900 1170,3850 1220,3850 1220,3900 1300,3900 1950,3900 1950,3850 1300,3850 1250,3850 1250,3850 1250,3800 1250,3800 1300,3800 1950,3800 1950,3750 1300,3750 1220,3750 1220,3800 1140,3800 1140,3900 1090,3900 1090,3750 1090,3700 1090,3700 1140,3700 1950,3700 1950,3650 1140,3650 1060,3650 1060,3700 1010,3700 1010,3650 1010,3600 1010,3550 1060,3550 1060,3600 1140,3600 1950,3600 1950,3550 1140,3550 1090,3550 1090,3550 1090,3500 1090,3500 1140,3500 1950,3500 1950,3450 1140,3450 1060,3450 1060,3500 980,3500 980,3600 930,3600 930,3450 930,3400 930,3400 980,3400 1950,3400 1950,3350 980,3350 870,3350 870,3400 820,3400 820,3350 820,3300 820,3150 870,3150 870,3250 980,3250 980,3300 1090,3300 1950,3300 1950,3250 1090,3250 1040,3250 1040,3250 1040,3200 1040,3200 1090,3200 1950,3200 1950,3150 1090,3150 980,3150 980,3200 930,3200 930,3150 930,3100 930,3100 980,3100 1950,3100 1950,3050 980,3050 870,3050 870,3100 760,3100 760,3300 710,3300 710,3050 710,3000 710,3000 760,3000 1950,3000 1950,2950 760,2950 650,2950 650,3000 600,3000 600,2950 600,2900 600,2150 650,2150 650,2450 760,2450 760,2550 870,2550 870,2650 980,2650 980,2750 1060,2750 1060,2850 1140,2850 1140,2900 1220,2900 1950,2900 1950,2850 1220,2850 1170,2850 1170,2850 1170,2800 1170,2800 1220,2800 1950,2800 1950,2750 1220,2750 1140,2750 1140,2800 1090,2800 1090,2750 1090,2700 1090,2700 1140,2700 1950,2700 1950,2650 1140,2650 1060,2650 1060,2700 1010,2700 1010,2650 1010,2600 1010,2600 1060,2600 1950,2600 1950,2550 1060,2550 980,2550 980,2600 930,2600 930,2550 930,2500 930,2500 980,2500 1950,2500 1950,2450 980,2450 870,2450 870,2500 820,2500 820,2450 820,2400 820,2250 870,2250 870,2350 980,2350 980,2400 1090,2400 1950,2400 1950,2350 1090,2350 1040,2350 1040,2350 1040,2300 1040,2300 1090,2300 1950,2300 1950,2250 1090,2250 980,2250 980,2300 930,2300 930,2250 930,2200 930,2200 980,2200 1950,2200 1950,2150 980,2150 870,2150 870,2200 760,2200 760,2400 710,2400 710,2150 710,2100 710,1750 760,1750 760,1950 870,1950 870,2050 950,2050 950,2100 1030,2100 1950,2100 1950,2050 1030,2050 980,2050 980,2050 980,2000 980,2000 1030,2000 1950,2000 1950,1950 1030,1950 950,1950 950,2000 900,2000 900,1950 900,1900 900,1850 950,1850 950,1900 1030,1900 1950,1900 1950,1850 1030,1850 980,1850 980,1850 980,1800 980,1800 1030,1800 1950,1800 1950,1750 1030,1750 950,1750 950,1800 870,1800 870,1900 820,1900 820,1750 820,1700 820,1700 870,1700 1950,1700 1950,1650 870,1650 760,1650 760,1700 650,1700 650,2100 540,2100 540,2900 490,2900 490,1650 490,1600 490,1600 540,1600 1950,1600 1950,1550 540,1550 430,1550 430,1600 380,1600 380,1550 380,1500 380,950 430,950 430,1150 540,1150 540,1250 620,1250 620,1350 700,1350 700,1450 780,1450 780,1500 860,1500 1950,1500 1950,1450 860,1450 810,1450 810,1450 810,1400 810,1400 860,1400 1950,1400 1950,1350 860,1350 780,1350 780,1400 730,1400 730,1350 730,1300 730,1300 780,1300 1950,1300 1950,1250 780,1250 700,1250 700,1300 650,1300 650,1250 650,1200 650,1200 700,1200 1950,1200 1950,1150 700,1150 620,1150 620,1200 570,1200 570,1150 570,1100 570,1050 620,1050 620,1100 700,1100 1950,1100 1950,1050 700,1050 650,1050 650,1050 650,1000 650,1000 700,1000 1950,1000 1950,950 700,950 620,950 620,1000 540,1000 540,1100 490,1100 490,950 490,900 490,550 540,550 540,750 620,750 620,850 700,850 700,900 780,900 1950,900 1950,850 780,850 730,850 730,850 730,800 730,800 780,800 1950,800 1950,750 780,750 700,750 700,800 650,800 650,750 650,700 650,650 700,650 700,700 780,700 1950,700 1950,650 780,650 730,650 730,650 730,600 730,600 780,600 1950,600 1950,550 780,550 700,550 700,600 620,600 620,700 570,700 570,550 570,500 570,500 620,500 1950,500 1950,450 620,450 540,450 540,500 430,500 430,900 320,900 320,1500 210,1500 210,4200 160,4200 160,450 160,400 160,350 210,350 210,400 290,400 1950,400 1950,350 290,350 240,350 240,350 240,300 240,300 290,300 1950,300 1950,250 290,250 210,250 210,300 130,300 130,400 80,400 80,250 80,200 80,150 130,150 130,200 210,200 1950,200 1950,150 210,150 160,150 160,150 160,100 160,100 210,100 1950,100 1950,50 210,50 130,50 130,100 50,100 50,200 " fill="rgb(255,255,255)" stroke-width="10" stroke="rgb(120,120,120)" />
	<text x="1872" y="18357" fill="rgb(0,0,0)" font-size="24" font-family="Verdana" >macNig</text>
	<text x="1872" y="18257" fill="rgb(0,0,0)" font-size="24" font-family="Verdana" >macOrc</text>
	<text x="1872" y="18157" fill="rgb(0,0,0)" font-size="24" font-family="Verdana" >macMau</text>
	<text x="1872" y="18057" fill="rgb(0,0,0)" font-size="24" font-family="Verdana" >macTon</text>
	<text x="1872" y="17957" fill="rgb(0,0,0)" font-size="24" font-family="Verdana" >macNem</text>
	<text x="1872" y="17857" fill="rgb(0,0,0)" font-size="24" font-family="Verdana" >macSil</text>
	<text x="1872" y="17757" fill="rgb(0,0,0)" font-size="24" font-family="Verdana" >macSib</text>
	<text x="1872" y="17657" fill="rgb(0,0,0)" font-size="24" font-family="Verdana" >macMul</text>
	<text x="1872" y="17557" fill="rgb(0,0,0)" font-size="24" font-family="Verdana" >macFus</text>
	<text x="1872" y="17457" fill="rgb(0,0,0)" font-size="24" font-family="Verdana" >macCyc</text>
	<text x="1872" y="17357" fill="rgb(0,0,0)" font-size="24" font-family="Verdana" >macFas</text>
	<text x="1872" y="17257" fill="rgb(0,0,0)" font-size="24" font-family="Verdana" >macArc</text>
	<text x="1872" y="17157" fill="rgb(0,0,0)" font-size="24" font-family="Verdana" >macThi</text>
	<text x="1872" y="17057" fill="rgb(0,0,0)" font-size="24" font-family="Verdana" >macSyl</text>
	<text x="1872" y="16957" fill="rgb(0,0,0)" font-size="24" font-family="Verdana" >papHam</text>
	<text x="1872" y="16857" fill="rgb(0,0,0)" font-size="24" font-family="Verdana" >papAnu</text>
	<text x="1872" y="16757" fill="rgb(0,0,0)" font-size="24" font-family="Verdana" >papPap</text>
	<text x="1872" y="16657" fill="rgb(0,0,0)" font-size="24" font-family="Verdana" >lopAte</text>
	<text x="1872" y="16557" fill="rgb(0,0,0)" font-size="24" font-family="Verdana" >lopAlb</text>
	<text x="1872" y="16457" fill="rgb(0,0,0)" font-size="24" font-family="Verdana" >theGel</text>
	<text x="1872" y="16357" fill="rgb(0,0,0)" font-size="24" font-family="Verdana" >cerAgi</text>
	<text x="1872" y="16257" fill="rgb(0,0,0)" font-size="24" font-family="Verdana" >cerChr</text>
	<text x="1872" y="16157" fill="rgb(0,0,0)" font-size="24" font-family="Verdana" >cerTor</text>
	<text x="1872" y="16057" fill="rgb(0,0,0)" font-size="24" font-family="Verdana" >manLeu</text>
	<text x="1872" y="15957" fill="rgb(0,0,0)" font-size="24" font-family="Verdana" >manSph</text>
	<text x="1872" y="15857" fill="rgb(0,0,0)" font-size="24" font-family="Verdana" >cerMit</text>
	<text x="1872" y="15757" fill="rgb(0,0,0)" font-size="24" font-family="Verdana" >cerAlb</text>
	<text x="1872" y="15657" fill="rgb(0,0,0)" font-size="24" font-family="Verdana" >cerCep</text>
	<text x="1872" y="15557" fill="rgb(0,0,0)" font-size="24" font-family="Verdana" >cerAsc</text>
	<text x="1872" y="15457" fill="rgb(0,0,0)" font-size="24" font-family="Verdana" >cerPet</text>
	<text x="1872" y="15357" fill="rgb(0,0,0)" font-size="24" font-family="Verdana" >cerDia</text>
	<text x="1872" y="15257" fill="rgb(0,0,0)" font-size="24" font-family="Verdana" >cerWol</text>
	<text x="1872" y="15157" fill="rgb(0,0,0)" font-size="24" font-family="Verdana" >cerMon</text>
	<text x="1872" y="15057" fill="rgb(0,0,0)" font-size="24" font-family="Verdana" >cerNeg</text>
	<text x="1872" y="14957" fill="rgb(0,0,0)" font-size="24" font-family="Verdana" >cerHam</text>
	<text x="1872" y="14857" fill="rgb(0,0,0)" font-size="24" font-family="Verdana" >mioOgo</text>
	<text x="1872" y="14757" fill="rgb(0,0,0)" font-size="24" font-family="Verdana" >chlAet</text>
	<text x="1872" y="14657" fill="rgb(0,0,0)" font-size="24" font-family="Verdana" >chlSab</text>
	<text x="1872" y="14557" fill="rgb(0,0,0)" font-size="24" font-family="Verdana" >chlCyn</text>
	<text x="1872" y="14457" fill="rgb(0,0,0)" font-size="24" font-family="Verdana" >eryPat</text>
	<text x="1872" y="14357" fill="rgb(0,0,0)" font-size="24" font-family="Verdana" >cerLho</text>
	<text x="1872" y="14257" fill="rgb(0,0,0)" font-size="24" font-family="Verdana" >allNig</text>
	<text x="1872" y="14157" fill="rgb(0,0,0)" font-size="24" font-family="Verdana" >traFra</text>
	<text x="1872" y="14057" fill="rgb(0,0,0)" font-size="24" font-family="Verdana" >traDel</text>
	<text x="1872" y="13957" fill="rgb(0,0,0)" font-size="24" font-family="Verdana" >traHat</text>
	<text x="1872" y="13857" fill="rgb(0,0,0)" font-size="24" font-family="Verdana" >traObs</text>
	<text x="1872" y="13757" fill="rgb(0,0,0)" font-size="24" font-family="Verdana" >traPha</text>
	<text x="1872" y="13657" fill="rgb(0,0,0)" font-size="24" font-family="Verdana" >traAur</text>
	<text x="1872" y="13557" fill="rgb(0,0,0)" font-size="24" font-family="Verdana" >semHec</text>
	<text x="1872" y="13457" fill="rgb(0,0,0)" font-size="24" font-family="Verdana" >semEnt</text>
	<text x="1872" y="13357" fill="rgb(0,0,0)" font-size="24" font-family="Verdana" >traVet</text>
	<text x="1872" y="13257" fill="rgb(0,0,0)" font-size="24" font-family="Verdana" >pygCin</text>
	<text x="1872" y="13157" fill="rgb(0,0,0)" font-size="24" font-family="Verdana" >pygNem</text>
	<text x="1872" y="13057" fill="rgb(0,0,0)" font-size="24" font-family="Verdana" >pygNig</text>
	<text x="1872" y="12957" fill="rgb(0,0,0)" font-size="24" font-family="Verdana" >nasLar</text>
	<text x="1872" y="12857" fill="rgb(0,0,0)" font-size="24" font-family="Verdana" >rhiRox</text>
	<text x="1872" y="12757" fill="rgb(0,0,0)" font-size="24" font-family="Verdana" >rhiBie</text>
	<text x="1872" y="12657" fill="rgb(0,0,0)" font-size="24" font-family="Verdana" >rhiBre</text>
	<text x="1872" y="12557" fill="rgb(0,0,0)" font-size="24" font-family="Verdana" >preMel</text>
	<text x="1872" y="12457" fill="rgb(0,0,0)" font-size="24" font-family="Verdana" >preCom</text>
	<text x="1872" y="12357" fill="rgb(0,0,0)" font-size="24" font-family="Verdana" >colGue</text>
	<text x="1872" y="12257" fill="rgb(0,0,0)" font-size="24" font-family="Verdana" >colPol</text>
	<text x="1872" y="12157" fill="rgb(0,0,0)" font-size="24" font-family="Verdana" >colAng</text>
	<text x="1872" y="12057" fill="rgb(0,0,0)" font-size="24" font-family="Verdana" >pilTep</text>
	<text x="1872" y="11957" fill="rgb(0,0,0)" font-size="24" font-family="Verdana" >hylMue</text>
	<text x="1872" y="11857" fill="rgb(0,0,0)" font-size="24" font-family="Verdana" >hylAgi</text>
	<text x="1872" y="11757" fill="rgb(0,0,0)" font-size="24" font-family="Verdana" >hylLar</text>
	<text x="1872" y="11657" fill="rgb(0,0,0)" font-size="24" font-family="Verdana" >symSyn</text>
	<text x="1872" y="11557" fill="rgb(0,0,0)" font-size="24" font-family="Verdana" >nomLeu</text>
	<text x="1872" y="11457" fill="rgb(0,0,0)" font-size="24" font-family="Verdana" >nomSik</text>
	<text x="1872" y="11357" fill="rgb(0,0,0)" font-size="24" font-family="Verdana" >nomGab</text>
	<text x="1872" y="11257" fill="rgb(0,0,0)" font-size="24" font-family="Verdana" >nomCon</text>
	<text x="1872" y="11157" fill="rgb(0,0,0)" font-size="24" font-family="Verdana" >panTro</text>
	<text x="1872" y="11057" fill="rgb(0,0,0)" font-size="24" font-family="Verdana" >panPan</text>
	<text x="1872" y="10957" fill="rgb(0,0,0)" font-size="24" font-family="Verdana" >homSap</text>
	<text x="1872" y="10857" fill="rgb(0,0,0)" font-size="24" font-family="Verdana" >gorGor</text>
	<text x="1872" y="10757" fill="rgb(0,0,0)" font-size="24" font-family="Verdana" >ponPyg</text>
	<text x="1872" y="10657" fill="rgb(0,0,0)" font-size="24" font-family="Verdana" >ponAbe</text>
	<text x="1872" y="10532" fill="rgb(0,0,0)" font-size="24" font-family="Verdana" >calJac</text>
	<text x="1872" y="10432" fill="rgb(0,0,0)" font-size="24" font-family="Verdana" >calPen</text>
	<text x="1872" y="10332" fill="rgb(0,0,0)" font-size="24" font-family="Verdana" >calKuh</text>
	<text x="1872" y="10232" fill="rgb(0,0,0)" font-size="24" font-family="Verdana" >calGeo</text>
	<text x="1872" y="10132" fill="rgb(0,0,0)" font-size="24" font-family="Verdana" >calAur</text>
	<text x="1872" y="10032" fill="rgb(0,0,0)" font-size="24" font-family="Verdana" >micArg</text>
	<text x="1872" y="9932" fill="rgb(0,0,0)" font-size="24" font-family="Verdana" >micHum</text>
	<text x="1872" y="9832" fill="rgb(0,0,0)" font-size="24" font-family="Verdana" >cebPyg</text>
	<text x="1872" y="9732" fill="rgb(0,0,0)" font-size="24" font-family="Verdana" >calGoe</text>
	<text x="1872" y="9632" fill="rgb(0,0,0)" font-size="24" font-family="Verdana" >leoRos</text>
	<text x="1872" y="9532" fill="rgb(0,0,0)" font-size="24" font-family="Verdana" >leoChr</text>
	<text x="1872" y="9432" fill="rgb(0,0,0)" font-size="24" font-family="Verdana" >sagMar</text>
	<text x="1872" y="9332" fill="rgb(0,0,0)" font-size="24" font-family="Verdana" >sagBic</text>
	<text x="1872" y="9232" fill="rgb(0,0,0)" font-size="24" font-family="Verdana" >sagMid</text>
	<text x="1872" y="9132" fill="rgb(0,0,0)" font-size="24" font-family="Verdana" >sagOed</text>
	<text x="1872" y="9032" fill="rgb(0,0,0)" font-size="24" font-family="Verdana" >sagGeo</text>
	<text x="1872" y="8932" fill="rgb(0,0,0)" font-size="24" font-family="Verdana" >sagMys</text>
	<text x="1872" y="8832" fill="rgb(0,0,0)" font-size="24" font-family="Verdana" >sagLab</text>
	<text x="1872" y="8732" fill="rgb(0,0,0)" font-size="24" font-family="Verdana" >sagImp</text>
	<text x="1872" y="8632" fill="rgb(0,0,0)" font-size="24" font-family="Verdana" >sagFus</text>
	<text x="1872" y="8532" fill="rgb(0,0,0)" font-size="24" font-family="Verdana" >aotAza</text>
	<text x="1872" y="8432" fill="rgb(0,0,0)" font-size="24" font-family="Verdana" >aotNan</text>
	<text x="1872" y="8332" fill="rgb(0,0,0)" font-size="24" font-family="Verdana" >aotTri</text>
	<text x="1872" y="8232" fill="rgb(0,0,0)" font-size="24" font-family="Verdana" >aotLem</text>
	<text x="1872" y="8132" fill="rgb(0,0,0)" font-size="24" font-family="Verdana" >cebXan</text>
	<text x="1872" y="8032" fill="rgb(0,0,0)" font-size="24" font-family="Verdana" >cebRob</text>
	<text x="1872" y="7932" fill="rgb(0,0,0)" font-size="24" font-family="Verdana" >cebApe</text>
	<text x="1872" y="7832" fill="rgb(0,0,0)" font-size="24" font-family="Verdana" >cebCap</text>
	<text x="1872" y="7732" fill="rgb(0,0,0)" font-size="24" font-family="Verdana" >cebAlb</text>
	<text x="1872" y="7632" fill="rgb(0,0,0)" font-size="24" font-family="Verdana" >cebOli</text>
	<text x="1872" y="7532" fill="rgb(0,0,0)" font-size="24" font-family="Verdana" >saiOer</text>
	<text x="1872" y="7432" fill="rgb(0,0,0)" font-size="24" font-family="Verdana" >saiSci</text>
	<text x="1872" y="7332" fill="rgb(0,0,0)" font-size="24" font-family="Verdana" >saiUst</text>
	<text x="1872" y="7232" fill="rgb(0,0,0)" font-size="24" font-family="Verdana" >saiBol</text>
	<text x="1872" y="7132" fill="rgb(0,0,0)" font-size="24" font-family="Verdana" >ateBel</text>
	<text x="1872" y="7032" fill="rgb(0,0,0)" font-size="24" font-family="Verdana" >ateGeo</text>
	<text x="1872" y="6932" fill="rgb(0,0,0)" font-size="24" font-family="Verdana" >ateHyb</text>
	<text x="1872" y="6832" fill="rgb(0,0,0)" font-size="24" font-family="Verdana" >ateFus</text>
	<text x="1872" y="6732" fill="rgb(0,0,0)" font-size="24" font-family="Verdana" >ateCha</text>
	<text x="1872" y="6632" fill="rgb(0,0,0)" font-size="24" font-family="Verdana" >atePan</text>
	<text x="1872" y="6532" fill="rgb(0,0,0)" font-size="24" font-family="Verdana" >braHyp</text>
	<text x="1872" y="6432" fill="rgb(0,0,0)" font-size="24" font-family="Verdana" >braAra</text>
	<text x="1872" y="6332" fill="rgb(0,0,0)" font-size="24" font-family="Verdana" >lagLag</text>
	<text x="1872" y="6232" fill="rgb(0,0,0)" font-size="24" font-family="Verdana" >lagCan</text>
	<text x="1872" y="6132" fill="rgb(0,0,0)" font-size="24" font-family="Verdana" >aloSar</text>
	<text x="1872" y="6032" fill="rgb(0,0,0)" font-size="24" font-family="Verdana" >aloCar</text>
	<text x="1872" y="5932" fill="rgb(0,0,0)" font-size="24" font-family="Verdana" >aloBel</text>
	<text x="1872" y="5832" fill="rgb(0,0,0)" font-size="24" font-family="Verdana" >aloPal</text>
	<text x="1872" y="5732" fill="rgb(0,0,0)" font-size="24" font-family="Verdana" >calMol</text>
	<text x="1872" y="5632" fill="rgb(0,0,0)" font-size="24" font-family="Verdana" >calBru</text>
	<text x="1872" y="5532" fill="rgb(0,0,0)" font-size="24" font-family="Verdana" >calCup</text>
	<text x="1872" y="5432" fill="rgb(0,0,0)" font-size="24" font-family="Verdana" >calCal</text>
	<text x="1872" y="5332" fill="rgb(0,0,0)" font-size="24" font-family="Verdana" >calDon</text>
	<text x="1872" y="5232" fill="rgb(0,0,0)" font-size="24" font-family="Verdana" >calCoi</text>
	<text x="1872" y="5132" fill="rgb(0,0,0)" font-size="24" font-family="Verdana" >calPer</text>
	<text x="1872" y="5032" fill="rgb(0,0,0)" font-size="24" font-family="Verdana" >calNig</text>
	<text x="1872" y="4932" fill="rgb(0,0,0)" font-size="24" font-family="Verdana" >chiIsr</text>
	<text x="1872" y="4832" fill="rgb(0,0,0)" font-size="24" font-family="Verdana" >chiSat</text>
	<text x="1872" y="4732" fill="rgb(0,0,0)" font-size="24" font-family="Verdana" >cacMel</text>
	<text x="1872" y="4632" fill="rgb(0,0,0)" font-size="24" font-family="Verdana" >cacCal</text>
	<text x="1872" y="4532" fill="rgb(0,0,0)" font-size="24" font-family="Verdana" >pitIrr</text>
	<text x="1872" y="4432" fill="rgb(0,0,0)" font-size="24" font-family="Verdana" >pitPit</text>
	<text x="1872" y="4332" fill="rgb(0,0,0)" font-size="24" font-family="Verdana" >carSyr</text>
	<text x="1872" y="4232" fill="rgb(0,0,0)" font-size="24" font-family="Verdana" >tarBan</text>
	<text x="1872" y="4132" fill="rgb(0,0,0)" font-size="24" font-family="Verdana" >eulRuf</text>
	<text x="1872" y="4032" fill="rgb(0,0,0)" font-size="24" font-family="Verdana" >eulCol</text>
	<text x="1872" y="3932" fill="rgb(0,0,0)" font-size="24" font-family="Verdana" >eulFul</text>
	<text x="1872" y="3832" fill="rgb(0,0,0)" font-size="24" font-family="Verdana" >eulSan</text>
	<text x="1872" y="3732" fill="rgb(0,0,0)" font-size="24" font-family="Verdana" >eulAlb</text>
	<text x="1872" y="3632" fill="rgb(0,0,0)" font-size="24" font-family="Verdana" >eulMon</text>
	<text x="1872" y="3532" fill="rgb(0,0,0)" font-size="24" font-family="Verdana" >eulMac</text>
	<text x="1872" y="3432" fill="rgb(0,0,0)" font-size="24" font-family="Verdana" >eulCor</text>
	<text x="1872" y="3332" fill="rgb(0,0,0)" font-size="24" font-family="Verdana" >eulRub</text>
	<text x="1872" y="3232" fill="rgb(0,0,0)" font-size="24" font-family="Verdana" >hapOcc</text>
	<text x="1872" y="3132" fill="rgb(0,0,0)" font-size="24" font-family="Verdana" >hapGri</text>
	<text x="1872" y="3032" fill="rgb(0,0,0)" font-size="24" font-family="Verdana" >lemCat</text>
	<text x="1872" y="2932" fill="rgb(0,0,0)" font-size="24" font-family="Verdana" >varVar</text>
	<text x="1872" y="2832" fill="rgb(0,0,0)" font-size="24" font-family="Verdana" >lepSep</text>
	<text x="1872" y="2732" fill="rgb(0,0,0)" font-size="24" font-family="Verdana" >lepAnk</text>
	<text x="1872" y="2632" fill="rgb(0,0,0)" font-size="24" font-family="Verdana" >lepDor</text>
	<text x="1872" y="2532" fill="rgb(0,0,0)" font-size="24" font-family="Verdana" >lepRuf</text>
	<text x="1872" y="2432" fill="rgb(0,0,0)" font-size="24" font-family="Verdana" >lepJam</text>
	<text x="1872" y="2332" fill="rgb(0,0,0)" font-size="24" font-family="Verdana" >micMur</text>
	<text x="1872" y="2232" fill="rgb(0,0,0)" font-size="24" font-family="Verdana" >mirZaz</text>
	<text x="1872" y="2132" fill="rgb(0,0,0)" font-size="24" font-family="Verdana" >cheMed</text>
	<text x="1872" y="2032" fill="rgb(0,0,0)" font-size="24" font-family="Verdana" >proVer</text>
	<text x="1872" y="1932" fill="rgb(0,0,0)" font-size="24" font-family="Verdana" >proTat</text>
	<text x="1872" y="1832" fill="rgb(0,0,0)" font-size="24" font-family="Verdana" >proDia</text>
	<text x="1872" y="1732" fill="rgb(0,0,0)" font-size="24" font-family="Verdana" >proEdw</text>
	<text x="1872" y="1632" fill="rgb(0,0,0)" font-size="24" font-family="Verdana" >avaLan</text>
	<text x="1872" y="1532" fill="rgb(0,0,0)" font-size="24" font-family="Verdana" >dauMad</text>
	<text x="1872" y="1432" fill="rgb(0,0,0)" font-size="24" font-family="Verdana" >nycBen</text>
	<text x="1872" y="1332" fill="rgb(0,0,0)" font-size="24" font-family="Verdana" >nycCou</text>
	<text x="1872" y="1232" fill="rgb(0,0,0)" font-size="24" font-family="Verdana" >nycPyg</text>
	<text x="1872" y="1132" fill="rgb(0,0,0)" font-size="24" font-family="Verdana" >lorTar</text>
	<text x="1872" y="1032" fill="rgb(0,0,0)" font-size="24" font-family="Verdana" >arcCal</text>
	<text x="1872" y="932" fill="rgb(0,0,0)" font-size="24" font-family="Verdana" >perPot</text>
	<text x="1872" y="832" fill="rgb(0,0,0)" font-size="24" font-family="Verdana" >galSen</text>
	<text x="1872" y="732" fill="rgb(0,0,0)" font-size="24" font-family="Verdana" >galMoh</text>
	<text x="1872" y="632" fill="rgb(0,0,0)" font-size="24" font-family="Verdana" >otoGar</text>
	<text x="1872" y="532" fill="rgb(0,0,0)" font-size="24" font-family="Verdana" >otoCra</text>
	<text x="1872" y="432" fill="rgb(0,0,0)" font-size="24" font-family="Verdana" >galTho</text>
	<text x="1872" y="332" fill="rgb(0,0,0)" font-size="24" font-family="Verdana" >galVar</text>
	<text x="1872" y="232" fill="rgb(0,0,0)" font-size="24" font-family="Verdana" >cynVol</text>
	<text x="1872" y="132" fill="rgb(0,0,0)" font-size="24" font-family="Verdana" >tupGli</text>
	<text x="1872" y="32" fill="rgb(0,0,0)" font-size="24" font-family="Verdana" >tupMin</text>
	<line x1="240" y1="4225" x2="240" y2="4425" stroke-width="3" stroke="rgb(65,170,190)" />
	<line x1="240" y1="4425" x2="350" y2="4425" stroke-width="3" stroke="rgb(65,170,190)" />
	<line x1="350" y1="4425" x2="350" y2="10650" stroke-width="3" stroke="rgb(65,170,190)" />
	<line x1="350" y1="10650" x2="460" y2="10650" stroke-width="3" stroke="rgb(65,170,190)" />
	<line x1="460" y1="10650" x2="460" y2="12050" stroke-width="3" stroke="rgb(65,170,190)" />
	<line x1="460" y1="12050" x2="570" y2="12050" stroke-width="3" stroke="rgb(65,170,190)" />
	<line x1="570" y1="12050" x2="570" y2="14250" stroke-width="3" stroke="rgb(65,170,190)" />
	<line x1="570" y1="14250" x2="680" y2="14250" stroke-width="3" stroke="rgb(65,170,190)" />
	<line x1="680" y1="14250" x2="680" y2="12450" stroke-width="3" stroke="rgb(65,170,190)" />
	<line x1="680" y1="12450" x2="790" y2="12450" stroke-width="3" stroke="rgb(65,170,190)" />
	<line x1="790" y1="12450" x2="790" y2="12150" stroke-width="3" stroke="rgb(65,170,190)" />
	<line x1="790" y1="12150" x2="900" y2="12150" stroke-width="3" stroke="rgb(65,170,190)" />
	<line x1="900" y1="12150" x2="900" y2="12100" stroke-width="3" stroke="rgb(65,170,190)" />
	<line x1="900" y1="12100" x2="1950" y2="12100" stroke-width="3" stroke="rgb(65,170,190)" />
	<text x="1975" y="12100" fill="rgb(65,170,190)" font-size="18" font-family="Verdana" >pilTep_ERFL_XM_023229355</text>
	<line x1="900" y1="12150" x2="900" y2="12250" stroke-width="3" stroke="rgb(65,170,190)" />
	<line x1="900" y1="12250" x2="1010" y2="12250" stroke-width="3" stroke="rgb(65,170,190)" />
	<line x1="1010" y1="12250" x2="1010" y2="12200" stroke-width="3" stroke="rgb(65,170,190)" />
	<line x1="1010" y1="12200" x2="1950" y2="12200" stroke-width="3" stroke="rgb(65,170,190)" />
	<text x="1975" y="12200" fill="rgb(65,170,190)" font-size="18" font-family="Verdana" >colAngPal_LOC105507874_XM_011936591</text>
	<line x1="1010" y1="12250" x2="1010" y2="12350" stroke-width="3" stroke="rgb(65,170,190)" />
	<line x1="1010" y1="12350" x2="1120" y2="12350" stroke-width="3" stroke="rgb(65,170,190)" />
	<line x1="1132.5" y1="12337.5" x2="1107.5" y2="12362.5" stroke-width="8.33333" stroke="rgb(65,170,190)" />
	<line x1="1132.5" y1="12362.5" x2="1107.5" y2="12337.5" stroke-width="8.33333" stroke="rgb(65,170,190)" />
	<line x1="790" y1="12450" x2="790" y2="12650" stroke-width="3" stroke="rgb(65,170,190)" />
	<line x1="790" y1="12650" x2="900" y2="12650" stroke-width="3" stroke="rgb(65,170,190)" />
	<line x1="900" y1="12650" x2="900" y2="13350" stroke-width="3" stroke="rgb(65,170,190)" />
	<line x1="900" y1="13350" x2="1010" y2="13350" stroke-width="3" stroke="rgb(65,170,190)" />
	<line x1="1010" y1="13350" x2="1010" y2="13650" stroke-width="3" stroke="rgb(65,170,190)" />
	<line x1="1010" y1="13650" x2="1120" y2="13650" stroke-width="3" stroke="rgb(65,170,190)" />
	<line x1="1120" y1="13650" x2="1120" y2="13950" stroke-width="3" stroke="rgb(65,170,190)" />
	<line x1="1120" y1="13950" x2="1230" y2="13950" stroke-width="3" stroke="rgb(65,170,190)" />
	<line x1="1230" y1="13950" x2="1230" y2="14050" stroke-width="3" stroke="rgb(65,170,190)" />
	<line x1="1230" y1="14050" x2="1340" y2="14050" stroke-width="3" stroke="rgb(65,170,190)" />
	<line x1="1340" y1="14050" x2="1340" y2="14150" stroke-width="3" stroke="rgb(65,170,190)" />
	<line x1="1340" y1="14150" x2="1450" y2="14150" stroke-width="3" stroke="rgb(65,170,190)" />
	<line x1="1450" y1="14150" x2="1450" y2="14200" stroke-width="3" stroke="rgb(65,170,190)" />
	<line x1="1450" y1="14200" x2="1950" y2="14200" stroke-width="3" stroke="rgb(65,170,190)" />
	<text x="1975" y="14200" fill="rgb(65,170,190)" font-size="18" font-family="Verdana" >traFra_ERFL_XM_033198263</text>
	<line x1="1450" y1="14150" x2="1450" y2="14100" stroke-width="3" stroke="rgb(65,170,190)" />
	<line x1="1450" y1="14100" x2="1560" y2="14100" stroke-width="3" stroke="rgb(65,170,190)" />
	<line x1="1572.5" y1="14087.5" x2="1547.5" y2="14112.5" stroke-width="8.33333" stroke="rgb(65,170,190)" />
	<line x1="1572.5" y1="14112.5" x2="1547.5" y2="14087.5" stroke-width="8.33333" stroke="rgb(65,170,190)" />
	<line x1="1340" y1="14050" x2="1340" y2="14000" stroke-width="3" stroke="rgb(65,170,190)" />
	<line x1="1340" y1="14000" x2="1450" y2="14000" stroke-width="3" stroke="rgb(65,170,190)" />
	<line x1="1462.5" y1="13987.5" x2="1437.5" y2="14012.5" stroke-width="8.33333" stroke="rgb(65,170,190)" />
	<line x1="1462.5" y1="14012.5" x2="1437.5" y2="13987.5" stroke-width="8.33333" stroke="rgb(65,170,190)" />
	<line x1="1230" y1="13950" x2="1230" y2="13750" stroke-width="3" stroke="rgb(65,170,190)" />
	<line x1="1230" y1="13750" x2="1340" y2="13750" stroke-width="3" stroke="rgb(65,170,190)" />
	<line x1="1352.5" y1="13737.5" x2="1327.5" y2="13762.5" stroke-width="8.33333" stroke="rgb(65,170,190)" />
	<line x1="1352.5" y1="13762.5" x2="1327.5" y2="13737.5" stroke-width="8.33333" stroke="rgb(65,170,190)" />
	<line x1="1120" y1="13650" x2="1120" y2="13450" stroke-width="3" stroke="rgb(65,170,190)" />
	<line x1="1120" y1="13450" x2="1230" y2="13450" stroke-width="3" stroke="rgb(65,170,190)" />
	<line x1="1242.5" y1="13437.5" x2="1217.5" y2="13462.5" stroke-width="8.33333" stroke="rgb(65,170,190)" />
	<line x1="1242.5" y1="13462.5" x2="1217.5" y2="13437.5" stroke-width="8.33333" stroke="rgb(65,170,190)" />
	<line x1="1010" y1="13350" x2="1010" y2="12950" stroke-width="3" stroke="rgb(65,170,190)" />
	<line x1="1010" y1="12950" x2="1120" y2="12950" stroke-width="3" stroke="rgb(65,170,190)" />
	<line x1="1132.5" y1="12937.5" x2="1107.5" y2="12962.5" stroke-width="8.33333" stroke="rgb(65,170,190)" />
	<line x1="1132.5" y1="12962.5" x2="1107.5" y2="12937.5" stroke-width="8.33333" stroke="rgb(65,170,190)" />
	<line x1="900" y1="12650" x2="900" y2="12550" stroke-width="3" stroke="rgb(65,170,190)" />
	<line x1="900" y1="12550" x2="1010" y2="12550" stroke-width="3" stroke="rgb(65,170,190)" />
	<line x1="1022.5" y1="12537.5" x2="997.5" y2="12562.5" stroke-width="8.33333" stroke="rgb(65,170,190)" />
	<line x1="1022.5" y1="12562.5" x2="997.5" y2="12537.5" stroke-width="8.33333" stroke="rgb(65,170,190)" />
	<line x1="680" y1="14250" x2="680" y2="15950" stroke-width="3" stroke="rgb(65,170,190)" />
	<line x1="680" y1="15950" x2="790" y2="15950" stroke-width="3" stroke="rgb(65,170,190)" />
	<line x1="790" y1="15950" x2="790" y2="17050" stroke-width="3" stroke="rgb(65,170,190)" />
	<line x1="790" y1="17050" x2="900" y2="17050" stroke-width="3" stroke="rgb(65,170,190)" />
	<line x1="900" y1="17050" x2="900" y2="16450" stroke-width="3" stroke="rgb(65,170,190)" />
	<line x1="900" y1="16450" x2="1010" y2="16450" stroke-width="3" stroke="rgb(65,170,190)" />
	<line x1="1010" y1="16450" x2="1010" y2="16550" stroke-width="3" stroke="rgb(65,170,190)" />
	<line x1="1010" y1="16550" x2="1120" y2="16550" stroke-width="3" stroke="rgb(65,170,190)" />
	<line x1="1120" y1="16550" x2="1120" y2="16500" stroke-width="3" stroke="rgb(65,170,190)" />
	<line x1="1120" y1="16500" x2="1950" y2="16500" stroke-width="3" stroke="rgb(65,170,190)" />
	<text x="1975" y="16500" fill="rgb(65,170,190)" font-size="18" font-family="Verdana" >theGel_LOC112611967_XM_025365920</text>
	<line x1="1120" y1="16550" x2="1120" y2="16750" stroke-width="3" stroke="rgb(65,170,190)" />
	<line x1="1120" y1="16750" x2="1230" y2="16750" stroke-width="3" stroke="rgb(65,170,190)" />
	<line x1="1230" y1="16750" x2="1230" y2="16850" stroke-width="3" stroke="rgb(65,170,190)" />
	<line x1="1230" y1="16850" x2="1340" y2="16850" stroke-width="3" stroke="rgb(65,170,190)" />
	<line x1="1340" y1="16850" x2="1340" y2="16950" stroke-width="3" stroke="rgb(65,170,190)" />
	<line x1="1340" y1="16950" x2="1450" y2="16950" stroke-width="3" stroke="rgb(65,170,190)" />
	<line x1="1450" y1="16950" x2="1450" y2="16900" stroke-width="3" stroke="rgb(65,170,190)" />
	<line x1="1450" y1="16900" x2="1950" y2="16900" stroke-width="3" stroke="rgb(65,170,190)" />
	<text x="1975" y="16900" fill="rgb(65,170,190)" font-size="18" font-family="Verdana" >papAnu_ERFL_XM_021930375</text>
	<line x1="1450" y1="16950" x2="1450" y2="17000" stroke-width="3" stroke="rgb(65,170,190)" />
	<line x1="1450" y1="17000" x2="1560" y2="17000" stroke-width="3" stroke="rgb(65,170,190)" />
	<line x1="1572.5" y1="16987.5" x2="1547.5" y2="17012.5" stroke-width="8.33333" stroke="rgb(65,170,190)" />
	<line x1="1572.5" y1="17012.5" x2="1547.5" y2="16987.5" stroke-width="8.33333" stroke="rgb(65,170,190)" />
	<line x1="1340" y1="16850" x2="1340" y2="16800" stroke-width="3" stroke="rgb(65,170,190)" />
	<line x1="1340" y1="16800" x2="1450" y2="16800" stroke-width="3" stroke="rgb(65,170,190)" />
	<line x1="1462.5" y1="16787.5" x2="1437.5" y2="16812.5" stroke-width="8.33333" stroke="rgb(65,170,190)" />
	<line x1="1462.5" y1="16812.5" x2="1437.5" y2="16787.5" stroke-width="8.33333" stroke="rgb(65,170,190)" />
	<line x1="1230" y1="16750" x2="1230" y2="16650" stroke-width="3" stroke="rgb(65,170,190)" />
	<line x1="1230" y1="16650" x2="1340" y2="16650" stroke-width="3" stroke="rgb(65,170,190)" />
	<line x1="1352.5" y1="16637.5" x2="1327.5" y2="16662.5" stroke-width="8.33333" stroke="rgb(65,170,190)" />
	<line x1="1352.5" y1="16662.5" x2="1327.5" y2="16637.5" stroke-width="8.33333" stroke="rgb(65,170,190)" />
	<line x1="1010" y1="16450" x2="1010" y2="16150" stroke-width="3" stroke="rgb(65,170,190)" />
	<line x1="1010" y1="16150" x2="1120" y2="16150" stroke-width="3" stroke="rgb(65,170,190)" />
	<line x1="1120" y1="16150" x2="1120" y2="16250" stroke-width="3" stroke="rgb(65,170,190)" />
	<line x1="1120" y1="16250" x2="1230" y2="16250" stroke-width="3" stroke="rgb(65,170,190)" />
	<line x1="1242.5" y1="16237.5" x2="1217.5" y2="16262.5" stroke-width="8.33333" stroke="rgb(65,170,190)" />
	<line x1="1242.5" y1="16262.5" x2="1217.5" y2="16237.5" stroke-width="8.33333" stroke="rgb(65,170,190)" />
	<line x1="1120" y1="16150" x2="1120" y2="16050" stroke-width="3" stroke="rgb(65,170,190)" />
	<line x1="1120" y1="16050" x2="1230" y2="16050" stroke-width="3" stroke="rgb(65,170,190)" />
	<line x1="1230" y1="16050" x2="1230" y2="16100" stroke-width="3" stroke="rgb(65,170,190)" />
	<line x1="1230" y1="16100" x2="1950" y2="16100" stroke-width="3" stroke="rgb(65,170,190)" />
	<text x="1975" y="16100" fill="rgb(65,170,190)" font-size="18" font-family="Verdana" >manLeu_LOC105542543_XM_011984131</text>
	<line x1="1230" y1="16050" x2="1230" y2="16000" stroke-width="3" stroke="rgb(65,170,190)" />
	<line x1="1230" y1="16000" x2="1340" y2="16000" stroke-width="3" stroke="rgb(65,170,190)" />
	<line x1="1352.5" y1="15987.5" x2="1327.5" y2="16012.5" stroke-width="8.33333" stroke="rgb(65,170,190)" />
	<line x1="1352.5" y1="16012.5" x2="1327.5" y2="15987.5" stroke-width="8.33333" stroke="rgb(65,170,190)" />
	<line x1="900" y1="17050" x2="900" y2="17150" stroke-width="3" stroke="rgb(65,170,190)" />
	<line x1="900" y1="17150" x2="1010" y2="17150" stroke-width="3" stroke="rgb(65,170,190)" />
	<line x1="1010" y1="17150" x2="1010" y2="17750" stroke-width="3" stroke="rgb(65,170,190)" />
	<line x1="1010" y1="17750" x2="1120" y2="17750" stroke-width="3" stroke="rgb(65,170,190)" />
	<line x1="1120" y1="17750" x2="1120" y2="18050" stroke-width="3" stroke="rgb(65,170,190)" />
	<line x1="1120" y1="18050" x2="1230" y2="18050" stroke-width="3" stroke="rgb(65,170,190)" />
	<line x1="1230" y1="18050" x2="1230" y2="18250" stroke-width="3" stroke="rgb(65,170,190)" />
	<line x1="1230" y1="18250" x2="1340" y2="18250" stroke-width="3" stroke="rgb(65,170,190)" />
	<line x1="1352.5" y1="18237.5" x2="1327.5" y2="18262.5" stroke-width="8.33333" stroke="rgb(65,170,190)" />
	<line x1="1352.5" y1="18262.5" x2="1327.5" y2="18237.5" stroke-width="8.33333" stroke="rgb(65,170,190)" />
	<line x1="1230" y1="18050" x2="1230" y2="17850" stroke-width="3" stroke="rgb(65,170,190)" />
	<line x1="1230" y1="17850" x2="1340" y2="17850" stroke-width="3" stroke="rgb(65,170,190)" />
	<line x1="1340" y1="17850" x2="1340" y2="17950" stroke-width="3" stroke="rgb(65,170,190)" />
	<line x1="1340" y1="17950" x2="1450" y2="17950" stroke-width="3" stroke="rgb(65,170,190)" />
	<line x1="1450" y1="17950" x2="1450" y2="18000" stroke-width="3" stroke="rgb(65,170,190)" />
	<line x1="1450" y1="18000" x2="1950" y2="18000" stroke-width="3" stroke="rgb(65,170,190)" />
	<text x="1975" y="18000" fill="rgb(65,170,190)" font-size="18" font-family="Verdana" >macNem_LOC105495277_XM_011764608</text>
	<line x1="1450" y1="17950" x2="1450" y2="17900" stroke-width="3" stroke="rgb(65,170,190)" />
	<line x1="1450" y1="17900" x2="1560" y2="17900" stroke-width="3" stroke="rgb(65,170,190)" />
	<line x1="1572.5" y1="17887.5" x2="1547.5" y2="17912.5" stroke-width="8.33333" stroke="rgb(65,170,190)" />
	<line x1="1572.5" y1="17912.5" x2="1547.5" y2="17887.5" stroke-width="8.33333" stroke="rgb(65,170,190)" />
	<line x1="1340" y1="17850" x2="1340" y2="17800" stroke-width="3" stroke="rgb(65,170,190)" />
	<line x1="1340" y1="17800" x2="1450" y2="17800" stroke-width="3" stroke="rgb(65,170,190)" />
	<line x1="1462.5" y1="17787.5" x2="1437.5" y2="17812.5" stroke-width="8.33333" stroke="rgb(65,170,190)" />
	<line x1="1462.5" y1="17812.5" x2="1437.5" y2="17787.5" stroke-width="8.33333" stroke="rgb(65,170,190)" />
	<line x1="1120" y1="17750" x2="1120" y2="17350" stroke-width="3" stroke="rgb(65,170,190)" />
	<line x1="1120" y1="17350" x2="1230" y2="17350" stroke-width="3" stroke="rgb(65,170,190)" />
	<line x1="1230" y1="17350" x2="1230" y2="17450" stroke-width="3" stroke="rgb(65,170,190)" />
	<line x1="1230" y1="17450" x2="1340" y2="17450" stroke-width="3" stroke="rgb(65,170,190)" />
	<line x1="1340" y1="17450" x2="1340" y2="17400" stroke-width="3" stroke="rgb(65,170,190)" />
	<line x1="1340" y1="17400" x2="1950" y2="17400" stroke-width="3" stroke="rgb(65,170,190)" />
	<text x="1975" y="17400" fill="rgb(65,170,190)" font-size="18" font-family="Verdana" >macFas_ERFL_XM_045379538</text>
	<line x1="1340" y1="17450" x2="1340" y2="17550" stroke-width="3" stroke="rgb(65,170,190)" />
	<line x1="1340" y1="17550" x2="1450" y2="17550" stroke-width="3" stroke="rgb(65,170,190)" />
	<line x1="1450" y1="17550" x2="1450" y2="17650" stroke-width="3" stroke="rgb(65,170,190)" />
	<line x1="1450" y1="17650" x2="1560" y2="17650" stroke-width="3" stroke="rgb(65,170,190)" />
	<line x1="1560" y1="17650" x2="1560" y2="17700" stroke-width="3" stroke="rgb(65,170,190)" />
	<line x1="1560" y1="17700" x2="1950" y2="17700" stroke-width="3" stroke="rgb(65,170,190)" />
	<text x="1975" y="17700" fill="rgb(65,170,190)" font-size="18" font-family="Verdana" >macMul_LOC722195_XM_001118376</text>
	<line x1="1560" y1="17650" x2="1560" y2="17600" stroke-width="3" stroke="rgb(65,170,190)" />
	<line x1="1560" y1="17600" x2="1670" y2="17600" stroke-width="3" stroke="rgb(65,170,190)" />
	<line x1="1682.5" y1="17587.5" x2="1657.5" y2="17612.5" stroke-width="8.33333" stroke="rgb(65,170,190)" />
	<line x1="1682.5" y1="17612.5" x2="1657.5" y2="17587.5" stroke-width="8.33333" stroke="rgb(65,170,190)" />
	<line x1="1450" y1="17550" x2="1450" y2="17500" stroke-width="3" stroke="rgb(65,170,190)" />
	<line x1="1450" y1="17500" x2="1560" y2="17500" stroke-width="3" stroke="rgb(65,170,190)" />
	<line x1="1572.5" y1="17487.5" x2="1547.5" y2="17512.5" stroke-width="8.33333" stroke="rgb(65,170,190)" />
	<line x1="1572.5" y1="17512.5" x2="1547.5" y2="17487.5" stroke-width="8.33333" stroke="rgb(65,170,190)" />
	<line x1="1230" y1="17350" x2="1230" y2="17250" stroke-width="3" stroke="rgb(65,170,190)" />
	<line x1="1230" y1="17250" x2="1340" y2="17250" stroke-width="3" stroke="rgb(65,170,190)" />
	<line x1="1352.5" y1="17237.5" x2="1327.5" y2="17262.5" stroke-width="8.33333" stroke="rgb(65,170,190)" />
	<line x1="1352.5" y1="17262.5" x2="1327.5" y2="17237.5" stroke-width="8.33333" stroke="rgb(65,170,190)" />
	<line x1="1010" y1="17150" x2="1010" y2="17100" stroke-width="3" stroke="rgb(65,170,190)" />
	<line x1="1010" y1="17100" x2="1120" y2="17100" stroke-width="3" stroke="rgb(65,170,190)" />
	<line x1="1132.5" y1="17087.5" x2="1107.5" y2="17112.5" stroke-width="8.33333" stroke="rgb(65,170,190)" />
	<line x1="1132.5" y1="17112.5" x2="1107.5" y2="17087.5" stroke-width="8.33333" stroke="rgb(65,170,190)" />
	<line x1="790" y1="15950" x2="790" y2="14850" stroke-width="3" stroke="rgb(65,170,190)" />
	<line x1="790" y1="14850" x2="900" y2="14850" stroke-width="3" stroke="rgb(65,170,190)" />
	<line x1="900" y1="14850" x2="900" y2="14950" stroke-width="3" stroke="rgb(65,170,190)" />
	<line x1="900" y1="14950" x2="1010" y2="14950" stroke-width="3" stroke="rgb(65,170,190)" />
	<line x1="1022.5" y1="14937.5" x2="997.5" y2="14962.5" stroke-width="8.33333" stroke="rgb(65,170,190)" />
	<line x1="1022.5" y1="14962.5" x2="997.5" y2="14937.5" stroke-width="8.33333" stroke="rgb(65,170,190)" />
	<line x1="900" y1="14850" x2="900" y2="14350" stroke-width="3" stroke="rgb(65,170,190)" />
	<line x1="900" y1="14350" x2="1010" y2="14350" stroke-width="3" stroke="rgb(65,170,190)" />
	<line x1="1010" y1="14350" x2="1010" y2="14550" stroke-width="3" stroke="rgb(65,170,190)" />
	<line x1="1010" y1="14550" x2="1120" y2="14550" stroke-width="3" stroke="rgb(65,170,190)" />
	<line x1="1120" y1="14550" x2="1120" y2="14650" stroke-width="3" stroke="rgb(65,170,190)" />
	<line x1="1120" y1="14650" x2="1230" y2="14650" stroke-width="3" stroke="rgb(65,170,190)" />
	<line x1="1230" y1="14650" x2="1230" y2="14750" stroke-width="3" stroke="rgb(65,170,190)" />
	<line x1="1230" y1="14750" x2="1340" y2="14750" stroke-width="3" stroke="rgb(65,170,190)" />
	<line x1="1340" y1="14750" x2="1340" y2="14700" stroke-width="3" stroke="rgb(65,170,190)" />
	<line x1="1340" y1="14700" x2="1950" y2="14700" stroke-width="3" stroke="rgb(65,170,190)" />
	<text x="1975" y="14700" fill="rgb(65,170,190)" font-size="18" font-family="Verdana" >chlSab_ERFL_XM_007996944</text>
	<line x1="1340" y1="14750" x2="1340" y2="14800" stroke-width="3" stroke="rgb(65,170,190)" />
	<line x1="1340" y1="14800" x2="1450" y2="14800" stroke-width="3" stroke="rgb(65,170,190)" />
	<line x1="1462.5" y1="14787.5" x2="1437.5" y2="14812.5" stroke-width="8.33333" stroke="rgb(65,170,190)" />
	<line x1="1462.5" y1="14812.5" x2="1437.5" y2="14787.5" stroke-width="8.33333" stroke="rgb(65,170,190)" />
	<line x1="1230" y1="14650" x2="1230" y2="14600" stroke-width="3" stroke="rgb(65,170,190)" />
	<line x1="1230" y1="14600" x2="1340" y2="14600" stroke-width="3" stroke="rgb(65,170,190)" />
	<line x1="1352.5" y1="14587.5" x2="1327.5" y2="14612.5" stroke-width="8.33333" stroke="rgb(65,170,190)" />
	<line x1="1352.5" y1="14612.5" x2="1327.5" y2="14587.5" stroke-width="8.33333" stroke="rgb(65,170,190)" />
	<line x1="1120" y1="14550" x2="1120" y2="14450" stroke-width="3" stroke="rgb(65,170,190)" />
	<line x1="1120" y1="14450" x2="1230" y2="14450" stroke-width="3" stroke="rgb(65,170,190)" />
	<line x1="1242.5" y1="14437.5" x2="1217.5" y2="14462.5" stroke-width="8.33333" stroke="rgb(65,170,190)" />
	<line x1="1242.5" y1="14462.5" x2="1217.5" y2="14437.5" stroke-width="8.33333" stroke="rgb(65,170,190)" />
	<line x1="1010" y1="14350" x2="1010" y2="14300" stroke-width="3" stroke="rgb(65,170,190)" />
	<line x1="1010" y1="14300" x2="1120" y2="14300" stroke-width="3" stroke="rgb(65,170,190)" />
	<line x1="1132.5" y1="14287.5" x2="1107.5" y2="14312.5" stroke-width="8.33333" stroke="rgb(65,170,190)" />
	<line x1="1132.5" y1="14312.5" x2="1107.5" y2="14287.5" stroke-width="8.33333" stroke="rgb(65,170,190)" />
	<line x1="570" y1="12050" x2="570" y2="11250" stroke-width="3" stroke="rgb(65,170,190)" />
	<line x1="570" y1="11250" x2="680" y2="11250" stroke-width="3" stroke="rgb(65,170,190)" />
	<line x1="680" y1="11250" x2="680" y2="11650" stroke-width="3" stroke="rgb(65,170,190)" />
	<line x1="680" y1="11650" x2="790" y2="11650" stroke-width="3" stroke="rgb(65,170,190)" />
	<line x1="790" y1="11650" x2="790" y2="11750" stroke-width="3" stroke="rgb(65,170,190)" />
	<line x1="790" y1="11750" x2="900" y2="11750" stroke-width="3" stroke="rgb(65,170,190)" />
	<line x1="912.5" y1="11737.5" x2="887.5" y2="11762.5" stroke-width="8.33333" stroke="rgb(65,170,190)" />
	<line x1="912.5" y1="11762.5" x2="887.5" y2="11737.5" stroke-width="8.33333" stroke="rgb(65,170,190)" />
	<line x1="790" y1="11650" x2="790" y2="11450" stroke-width="3" stroke="rgb(65,170,190)" />
	<line x1="790" y1="11450" x2="900" y2="11450" stroke-width="3" stroke="rgb(65,170,190)" />
	<line x1="900" y1="11450" x2="900" y2="11550" stroke-width="3" stroke="rgb(65,170,190)" />
	<line x1="900" y1="11550" x2="1010" y2="11550" stroke-width="3" stroke="rgb(65,170,190)" />
	<line x1="1010" y1="11550" x2="1010" y2="11600" stroke-width="3" stroke="rgb(65,170,190)" />
	<line x1="1010" y1="11600" x2="1950" y2="11600" stroke-width="3" stroke="rgb(65,170,190)" />
	<text x="1975" y="11600" fill="rgb(65,170,190)" font-size="18" font-family="Verdana" >nomLeu_ERFL_XM_030797138</text>
	<line x1="1010" y1="11550" x2="1010" y2="11500" stroke-width="3" stroke="rgb(65,170,190)" />
	<line x1="1010" y1="11500" x2="1120" y2="11500" stroke-width="3" stroke="rgb(65,170,190)" />
	<line x1="1132.5" y1="11487.5" x2="1107.5" y2="11512.5" stroke-width="8.33333" stroke="rgb(65,170,190)" />
	<line x1="1132.5" y1="11512.5" x2="1107.5" y2="11487.5" stroke-width="8.33333" stroke="rgb(65,170,190)" />
	<line x1="900" y1="11450" x2="900" y2="11350" stroke-width="3" stroke="rgb(65,170,190)" />
	<line x1="900" y1="11350" x2="1010" y2="11350" stroke-width="3" stroke="rgb(65,170,190)" />
	<line x1="1022.5" y1="11337.5" x2="997.5" y2="11362.5" stroke-width="8.33333" stroke="rgb(65,170,190)" />
	<line x1="1022.5" y1="11362.5" x2="997.5" y2="11337.5" stroke-width="8.33333" stroke="rgb(65,170,190)" />
	<line x1="680" y1="11250" x2="680" y2="10850" stroke-width="3" stroke="rgb(65,170,190)" />
	<line x1="680" y1="10850" x2="790" y2="10850" stroke-width="3" stroke="rgb(65,170,190)" />
	<line x1="790" y1="10850" x2="790" y2="10950" stroke-width="3" stroke="rgb(65,170,190)" />
	<line x1="790" y1="10950" x2="900" y2="10950" stroke-width="3" stroke="rgb(65,170,190)" />
	<line x1="900" y1="10950" x2="900" y2="10900" stroke-width="3" stroke="rgb(65,170,190)" />
	<line x1="900" y1="10900" x2="1950" y2="10900" stroke-width="3" stroke="rgb(65,170,190)" />
	<text x="1975" y="10900" fill="rgb(65,170,190)" font-size="18" font-family="Verdana" >gorGorGor_ERFL_XM_031004087</text>
	<line x1="900" y1="10950" x2="900" y2="11050" stroke-width="3" stroke="rgb(65,170,190)" />
	<line x1="900" y1="11050" x2="1010" y2="11050" stroke-width="3" stroke="rgb(65,170,190)" />
	<line x1="1010" y1="11050" x2="1010" y2="11000" stroke-width="3" stroke="rgb(65,170,190)" />
	<line x1="1010" y1="11000" x2="1950" y2="11000" stroke-width="3" stroke="rgb(65,170,190)" />
	<text x="1975" y="11000" fill="rgb(65,170,190)" font-size="18" font-family="Verdana" >homSap_ERFL_ENSG00000268041</text>
	<line x1="1010" y1="11050" x2="1010" y2="11150" stroke-width="3" stroke="rgb(65,170,190)" />
	<line x1="1010" y1="11150" x2="1120" y2="11150" stroke-width="3" stroke="rgb(65,170,190)" />
	<line x1="1120" y1="11150" x2="1120" y2="11100" stroke-width="3" stroke="rgb(65,170,190)" />
	<line x1="1120" y1="11100" x2="1950" y2="11100" stroke-width="3" stroke="rgb(65,170,190)" />
	<text x="1975" y="11100" fill="rgb(65,170,190)" font-size="18" font-family="Verdana" >panPan_ERFL_XM_034946138</text>
	<line x1="1120" y1="11150" x2="1120" y2="11200" stroke-width="3" stroke="rgb(65,170,190)" />
	<line x1="1120" y1="11200" x2="1230" y2="11200" stroke-width="3" stroke="rgb(65,170,190)" />
	<line x1="1242.5" y1="11187.5" x2="1217.5" y2="11212.5" stroke-width="8.33333" stroke="rgb(65,170,190)" />
	<line x1="1242.5" y1="11212.5" x2="1217.5" y2="11187.5" stroke-width="8.33333" stroke="rgb(65,170,190)" />
	<line x1="790" y1="10850" x2="790" y2="10750" stroke-width="3" stroke="rgb(65,170,190)" />
	<line x1="790" y1="10750" x2="900" y2="10750" stroke-width="3" stroke="rgb(65,170,190)" />
	<line x1="912.5" y1="10737.5" x2="887.5" y2="10762.5" stroke-width="8.33333" stroke="rgb(65,170,190)" />
	<line x1="912.5" y1="10762.5" x2="887.5" y2="10737.5" stroke-width="8.33333" stroke="rgb(65,170,190)" />
	<line x1="460" y1="10650" x2="460" y2="5825" stroke-width="3" stroke="rgb(65,170,190)" />
	<line x1="460" y1="5825" x2="570" y2="5825" stroke-width="3" stroke="rgb(65,170,190)" />
	<line x1="570" y1="5825" x2="570" y2="7225" stroke-width="3" stroke="rgb(65,170,190)" />
	<line x1="570" y1="7225" x2="680" y2="7225" stroke-width="3" stroke="rgb(65,170,190)" />
	<line x1="680" y1="7225" x2="680" y2="8225" stroke-width="3" stroke="rgb(65,170,190)" />
	<line x1="680" y1="8225" x2="790" y2="8225" stroke-width="3" stroke="rgb(65,170,190)" />
	<line x1="790" y1="8225" x2="790" y2="8625" stroke-width="3" stroke="rgb(65,170,190)" />
	<line x1="790" y1="8625" x2="900" y2="8625" stroke-width="3" stroke="rgb(65,170,190)" />
	<line x1="900" y1="8625" x2="900" y2="9525" stroke-width="3" stroke="rgb(65,170,190)" />
	<line x1="900" y1="9525" x2="1010" y2="9525" stroke-width="3" stroke="rgb(65,170,190)" />
	<line x1="1010" y1="9525" x2="1010" y2="9725" stroke-width="3" stroke="rgb(65,170,190)" />
	<line x1="1010" y1="9725" x2="1120" y2="9725" stroke-width="3" stroke="rgb(65,170,190)" />
	<line x1="1120" y1="9725" x2="1120" y2="9825" stroke-width="3" stroke="rgb(65,170,190)" />
	<line x1="1120" y1="9825" x2="1230" y2="9825" stroke-width="3" stroke="rgb(65,170,190)" />
	<line x1="1230" y1="9825" x2="1230" y2="10125" stroke-width="3" stroke="rgb(65,170,190)" />
	<line x1="1230" y1="10125" x2="1340" y2="10125" stroke-width="3" stroke="rgb(65,170,190)" />
	<line x1="1340" y1="10125" x2="1340" y2="10225" stroke-width="3" stroke="rgb(65,170,190)" />
	<line x1="1340" y1="10225" x2="1450" y2="10225" stroke-width="3" stroke="rgb(65,170,190)" />
	<line x1="1450" y1="10225" x2="1450" y2="10325" stroke-width="3" stroke="rgb(65,170,190)" />
	<line x1="1450" y1="10325" x2="1560" y2="10325" stroke-width="3" stroke="rgb(65,170,190)" />
	<line x1="1560" y1="10325" x2="1560" y2="10425" stroke-width="3" stroke="rgb(65,170,190)" />
	<line x1="1560" y1="10425" x2="1670" y2="10425" stroke-width="3" stroke="rgb(65,170,190)" />
	<line x1="1670" y1="10425" x2="1670" y2="10525" stroke-width="3" stroke="rgb(65,170,190)" />
	<line x1="1670" y1="10525" x2="1780" y2="10525" stroke-width="3" stroke="rgb(65,170,190)" />
	<line x1="1780" y1="10525" x2="1780" y2="10600" stroke-width="3" stroke="rgb(65,170,190)" />
	<line x1="1780" y1="10600" x2="1890" y2="10600" stroke-width="3" stroke="rgb(65,170,190)" />
	<line x1="1890" y1="10600" x2="1890" y2="10575" stroke-width="3" stroke="rgb(65,170,190)" />
	<line x1="1890" y1="10575" x2="1950" y2="10575" stroke-width="3" stroke="rgb(65,170,190)" />
	<text x="1975" y="10575" fill="rgb(65,170,190)" font-size="18" font-family="Verdana" >calJac_ERFL_XM_008988092</text>
	<line x1="1890" y1="10600" x2="1890" y2="10600" stroke-width="3" stroke="rgb(65,170,190)" />
	<line x1="1890" y1="10600" x2="1950" y2="10600" stroke-width="3" stroke="rgb(65,170,190)" />
	<text x="1975" y="10600" fill="rgb(65,170,190)" font-size="18" font-family="Verdana" >calJac_ERFL_XM_035284598</text>
	<rect x="1877.5" y="10587.5" width="25" height="25" fill="rgb(65,170,190)" stroke-width="3" stroke="rgb(65,170,190)" />
	<line x1="1780" y1="10525" x2="1780" y2="10475" stroke-width="3" stroke="rgb(65,170,190)" />
	<line x1="1780" y1="10475" x2="1890" y2="10475" stroke-width="3" stroke="rgb(65,170,190)" />
	<line x1="1902.5" y1="10462.5" x2="1877.5" y2="10487.5" stroke-width="8.33333" stroke="rgb(65,170,190)" />
	<line x1="1902.5" y1="10487.5" x2="1877.5" y2="10462.5" stroke-width="8.33333" stroke="rgb(65,170,190)" />
	<line x1="1670" y1="10425" x2="1670" y2="10375" stroke-width="3" stroke="rgb(65,170,190)" />
	<line x1="1670" y1="10375" x2="1780" y2="10375" stroke-width="3" stroke="rgb(65,170,190)" />
	<line x1="1792.5" y1="10362.5" x2="1767.5" y2="10387.5" stroke-width="8.33333" stroke="rgb(65,170,190)" />
	<line x1="1792.5" y1="10387.5" x2="1767.5" y2="10362.5" stroke-width="8.33333" stroke="rgb(65,170,190)" />
	<line x1="1560" y1="10325" x2="1560" y2="10275" stroke-width="3" stroke="rgb(65,170,190)" />
	<line x1="1560" y1="10275" x2="1670" y2="10275" stroke-width="3" stroke="rgb(65,170,190)" />
	<line x1="1682.5" y1="10262.5" x2="1657.5" y2="10287.5" stroke-width="8.33333" stroke="rgb(65,170,190)" />
	<line x1="1682.5" y1="10287.5" x2="1657.5" y2="10262.5" stroke-width="8.33333" stroke="rgb(65,170,190)" />
	<line x1="1450" y1="10225" x2="1450" y2="10175" stroke-width="3" stroke="rgb(65,170,190)" />
	<line x1="1450" y1="10175" x2="1560" y2="10175" stroke-width="3" stroke="rgb(65,170,190)" />
	<line x1="1572.5" y1="10162.5" x2="1547.5" y2="10187.5" stroke-width="8.33333" stroke="rgb(65,170,190)" />
	<line x1="1572.5" y1="10187.5" x2="1547.5" y2="10162.5" stroke-width="8.33333" stroke="rgb(65,170,190)" />
	<line x1="1340" y1="10125" x2="1340" y2="9925" stroke-width="3" stroke="rgb(65,170,190)" />
	<line x1="1340" y1="9925" x2="1450" y2="9925" stroke-width="3" stroke="rgb(65,170,190)" />
	<line x1="1462.5" y1="9912.5" x2="1437.5" y2="9937.5" stroke-width="8.33333" stroke="rgb(65,170,190)" />
	<line x1="1462.5" y1="9937.5" x2="1437.5" y2="9912.5" stroke-width="8.33333" stroke="rgb(65,170,190)" />
	<line x1="1230" y1="9825" x2="1230" y2="9775" stroke-width="3" stroke="rgb(65,170,190)" />
	<line x1="1230" y1="9775" x2="1340" y2="9775" stroke-width="3" stroke="rgb(65,170,190)" />
	<line x1="1352.5" y1="9762.5" x2="1327.5" y2="9787.5" stroke-width="8.33333" stroke="rgb(65,170,190)" />
	<line x1="1352.5" y1="9787.5" x2="1327.5" y2="9762.5" stroke-width="8.33333" stroke="rgb(65,170,190)" />
	<line x1="1120" y1="9725" x2="1120" y2="9625" stroke-width="3" stroke="rgb(65,170,190)" />
	<line x1="1120" y1="9625" x2="1230" y2="9625" stroke-width="3" stroke="rgb(65,170,190)" />
	<line x1="1242.5" y1="9612.5" x2="1217.5" y2="9637.5" stroke-width="8.33333" stroke="rgb(65,170,190)" />
	<line x1="1242.5" y1="9637.5" x2="1217.5" y2="9612.5" stroke-width="8.33333" stroke="rgb(65,170,190)" />
	<line x1="1010" y1="9525" x2="1010" y2="8725" stroke-width="3" stroke="rgb(65,170,190)" />
	<line x1="1010" y1="8725" x2="1120" y2="8725" stroke-width="3" stroke="rgb(65,170,190)" />
	<line x1="1132.5" y1="8712.5" x2="1107.5" y2="8737.5" stroke-width="8.33333" stroke="rgb(65,170,190)" />
	<line x1="1132.5" y1="8737.5" x2="1107.5" y2="8712.5" stroke-width="8.33333" stroke="rgb(65,170,190)" />
	<line x1="900" y1="8625" x2="900" y2="8425" stroke-width="3" stroke="rgb(65,170,190)" />
	<line x1="900" y1="8425" x2="1010" y2="8425" stroke-width="3" stroke="rgb(65,170,190)" />
	<line x1="1010" y1="8425" x2="1010" y2="8525" stroke-width="3" stroke="rgb(65,170,190)" />
	<line x1="1010" y1="8525" x2="1120" y2="8525" stroke-width="3" stroke="rgb(65,170,190)" />
	<line x1="1120" y1="8525" x2="1120" y2="8475" stroke-width="3" stroke="rgb(65,170,190)" />
	<line x1="1120" y1="8475" x2="1950" y2="8475" stroke-width="3" stroke="rgb(65,170,190)" />
	<text x="1975" y="8475" fill="rgb(65,170,190)" font-size="18" font-family="Verdana" >aotNan_LOC105723390_XM_012461345</text>
	<line x1="1120" y1="8525" x2="1120" y2="8575" stroke-width="3" stroke="rgb(65,170,190)" />
	<line x1="1120" y1="8575" x2="1230" y2="8575" stroke-width="3" stroke="rgb(65,170,190)" />
	<line x1="1242.5" y1="8562.5" x2="1217.5" y2="8587.5" stroke-width="8.33333" stroke="rgb(65,170,190)" />
	<line x1="1242.5" y1="8587.5" x2="1217.5" y2="8562.5" stroke-width="8.33333" stroke="rgb(65,170,190)" />
	<line x1="1010" y1="8425" x2="1010" y2="8325" stroke-width="3" stroke="rgb(65,170,190)" />
	<line x1="1010" y1="8325" x2="1120" y2="8325" stroke-width="3" stroke="rgb(65,170,190)" />
	<line x1="1132.5" y1="8312.5" x2="1107.5" y2="8337.5" stroke-width="8.33333" stroke="rgb(65,170,190)" />
	<line x1="1132.5" y1="8337.5" x2="1107.5" y2="8312.5" stroke-width="8.33333" stroke="rgb(65,170,190)" />
	<line x1="790" y1="8225" x2="790" y2="7625" stroke-width="3" stroke="rgb(65,170,190)" />
	<line x1="790" y1="7625" x2="900" y2="7625" stroke-width="3" stroke="rgb(65,170,190)" />
	<line x1="912.5" y1="7612.5" x2="887.5" y2="7637.5" stroke-width="8.33333" stroke="rgb(65,170,190)" />
	<line x1="912.5" y1="7637.5" x2="887.5" y2="7612.5" stroke-width="8.33333" stroke="rgb(65,170,190)" />
	<line x1="680" y1="7225" x2="680" y2="6225" stroke-width="3" stroke="rgb(65,170,190)" />
	<line x1="680" y1="6225" x2="790" y2="6225" stroke-width="3" stroke="rgb(65,170,190)" />
	<line x1="802.5" y1="6212.5" x2="777.5" y2="6237.5" stroke-width="8.33333" stroke="rgb(65,170,190)" />
	<line x1="802.5" y1="6237.5" x2="777.5" y2="6212.5" stroke-width="8.33333" stroke="rgb(65,170,190)" />
	<line x1="570" y1="5825" x2="570" y2="5025" stroke-width="3" stroke="rgb(65,170,190)" />
	<line x1="570" y1="5025" x2="680" y2="5025" stroke-width="3" stroke="rgb(65,170,190)" />
	<line x1="692.5" y1="5012.5" x2="667.5" y2="5037.5" stroke-width="8.33333" stroke="rgb(65,170,190)" />
	<line x1="692.5" y1="5037.5" x2="667.5" y2="5012.5" stroke-width="8.33333" stroke="rgb(65,170,190)" />
	<line x1="350" y1="4425" x2="350" y2="4325" stroke-width="3" stroke="rgb(65,170,190)" />
	<line x1="350" y1="4325" x2="460" y2="4325" stroke-width="3" stroke="rgb(65,170,190)" />
	<line x1="460" y1="4325" x2="460" y2="4375" stroke-width="3" stroke="rgb(65,170,190)" />
	<line x1="460" y1="4375" x2="1950" y2="4375" stroke-width="3" stroke="rgb(65,170,190)" />
	<text x="1975" y="4375" fill="rgb(65,170,190)" font-size="18" font-family="Verdana" >carSyr_LOC103273608_XM_008071041</text>
	<line x1="460" y1="4325" x2="460" y2="4275" stroke-width="3" stroke="rgb(65,170,190)" />
	<line x1="460" y1="4275" x2="570" y2="4275" stroke-width="3" stroke="rgb(65,170,190)" />
	<line x1="582.5" y1="4262.5" x2="557.5" y2="4287.5" stroke-width="8.33333" stroke="rgb(65,170,190)" />
	<line x1="582.5" y1="4287.5" x2="557.5" y2="4262.5" stroke-width="8.33333" stroke="rgb(65,170,190)" />
	<line x1="240" y1="4225" x2="240" y2="1525" stroke-width="3" stroke="rgb(65,170,190)" />
	<line x1="240" y1="1525" x2="350" y2="1525" stroke-width="3" stroke="rgb(65,170,190)" />
	<line x1="350" y1="1525" x2="350" y2="1625" stroke-width="3" stroke="rgb(65,170,190)" />
	<line x1="350" y1="1625" x2="460" y2="1625" stroke-width="3" stroke="rgb(65,170,190)" />
	<line x1="460" y1="1625" x2="460" y2="2925" stroke-width="3" stroke="rgb(65,170,190)" />
	<line x1="460" y1="2925" x2="570" y2="2925" stroke-width="3" stroke="rgb(65,170,190)" />
	<line x1="570" y1="2925" x2="570" y2="3025" stroke-width="3" stroke="rgb(65,170,190)" />
	<line x1="570" y1="3025" x2="680" y2="3025" stroke-width="3" stroke="rgb(65,170,190)" />
	<line x1="680" y1="3025" x2="680" y2="3325" stroke-width="3" stroke="rgb(65,170,190)" />
	<line x1="680" y1="3325" x2="790" y2="3325" stroke-width="3" stroke="rgb(65,170,190)" />
	<line x1="790" y1="3325" x2="790" y2="3425" stroke-width="3" stroke="rgb(65,170,190)" />
	<line x1="790" y1="3425" x2="900" y2="3425" stroke-width="3" stroke="rgb(65,170,190)" />
	<line x1="912.5" y1="3412.5" x2="887.5" y2="3437.5" stroke-width="8.33333" stroke="rgb(65,170,190)" />
	<line x1="912.5" y1="3437.5" x2="887.5" y2="3412.5" stroke-width="8.33333" stroke="rgb(65,170,190)" />
	<line x1="790" y1="3325" x2="790" y2="3125" stroke-width="3" stroke="rgb(65,170,190)" />
	<line x1="790" y1="3125" x2="900" y2="3125" stroke-width="3" stroke="rgb(65,170,190)" />
	<line x1="900" y1="3125" x2="900" y2="3075" stroke-width="3" stroke="rgb(65,170,190)" />
	<line x1="900" y1="3075" x2="1950" y2="3075" stroke-width="3" stroke="rgb(65,170,190)" />
	<text x="1975" y="3075" fill="rgb(65,170,190)" font-size="18" font-family="Verdana" >lemCat_ERFL_XM_045531605</text>
	<line x1="900" y1="3125" x2="900" y2="3225" stroke-width="3" stroke="rgb(65,170,190)" />
	<line x1="900" y1="3225" x2="1010" y2="3225" stroke-width="3" stroke="rgb(65,170,190)" />
	<line x1="1022.5" y1="3212.5" x2="997.5" y2="3237.5" stroke-width="8.33333" stroke="rgb(65,170,190)" />
	<line x1="1022.5" y1="3237.5" x2="997.5" y2="3212.5" stroke-width="8.33333" stroke="rgb(65,170,190)" />
	<line x1="680" y1="3025" x2="680" y2="2975" stroke-width="3" stroke="rgb(65,170,190)" />
	<line x1="680" y1="2975" x2="790" y2="2975" stroke-width="3" stroke="rgb(65,170,190)" />
	<line x1="802.5" y1="2962.5" x2="777.5" y2="2987.5" stroke-width="8.33333" stroke="rgb(65,170,190)" />
	<line x1="802.5" y1="2987.5" x2="777.5" y2="2962.5" stroke-width="8.33333" stroke="rgb(65,170,190)" />
	<line x1="570" y1="2925" x2="570" y2="2125" stroke-width="3" stroke="rgb(65,170,190)" />
	<line x1="570" y1="2125" x2="680" y2="2125" stroke-width="3" stroke="rgb(65,170,190)" />
	<line x1="680" y1="2125" x2="680" y2="2425" stroke-width="3" stroke="rgb(65,170,190)" />
	<line x1="680" y1="2425" x2="790" y2="2425" stroke-width="3" stroke="rgb(65,170,190)" />
	<line x1="790" y1="2425" x2="790" y2="2525" stroke-width="3" stroke="rgb(65,170,190)" />
	<line x1="790" y1="2525" x2="900" y2="2525" stroke-width="3" stroke="rgb(65,170,190)" />
	<line x1="912.5" y1="2512.5" x2="887.5" y2="2537.5" stroke-width="8.33333" stroke="rgb(65,170,190)" />
	<line x1="912.5" y1="2537.5" x2="887.5" y2="2512.5" stroke-width="8.33333" stroke="rgb(65,170,190)" />
	<line x1="790" y1="2425" x2="790" y2="2225" stroke-width="3" stroke="rgb(65,170,190)" />
	<line x1="790" y1="2225" x2="900" y2="2225" stroke-width="3" stroke="rgb(65,170,190)" />
	<line x1="900" y1="2225" x2="900" y2="2325" stroke-width="3" stroke="rgb(65,170,190)" />
	<line x1="900" y1="2325" x2="1010" y2="2325" stroke-width="3" stroke="rgb(65,170,190)" />
	<line x1="1010" y1="2325" x2="1010" y2="2375" stroke-width="3" stroke="rgb(65,170,190)" />
	<line x1="1010" y1="2375" x2="1950" y2="2375" stroke-width="3" stroke="rgb(65,170,190)" />
	<text x="1975" y="2375" fill="rgb(65,170,190)" font-size="18" font-family="Verdana" >micMur_LOC105867990_XM_012758467</text>
	<line x1="1010" y1="2325" x2="1010" y2="2275" stroke-width="3" stroke="rgb(65,170,190)" />
	<line x1="1010" y1="2275" x2="1120" y2="2275" stroke-width="3" stroke="rgb(65,170,190)" />
	<line x1="1132.5" y1="2262.5" x2="1107.5" y2="2287.5" stroke-width="8.33333" stroke="rgb(65,170,190)" />
	<line x1="1132.5" y1="2287.5" x2="1107.5" y2="2262.5" stroke-width="8.33333" stroke="rgb(65,170,190)" />
	<line x1="900" y1="2225" x2="900" y2="2175" stroke-width="3" stroke="rgb(65,170,190)" />
	<line x1="900" y1="2175" x2="1010" y2="2175" stroke-width="3" stroke="rgb(65,170,190)" />
	<line x1="1022.5" y1="2162.5" x2="997.5" y2="2187.5" stroke-width="8.33333" stroke="rgb(65,170,190)" />
	<line x1="1022.5" y1="2187.5" x2="997.5" y2="2162.5" stroke-width="8.33333" stroke="rgb(65,170,190)" />
	<line x1="680" y1="2125" x2="680" y2="1725" stroke-width="3" stroke="rgb(65,170,190)" />
	<line x1="680" y1="1725" x2="790" y2="1725" stroke-width="3" stroke="rgb(65,170,190)" />
	<line x1="802.5" y1="1712.5" x2="777.5" y2="1737.5" stroke-width="8.33333" stroke="rgb(65,170,190)" />
	<line x1="802.5" y1="1737.5" x2="777.5" y2="1712.5" stroke-width="8.33333" stroke="rgb(65,170,190)" />
	<line x1="460" y1="1625" x2="460" y2="1575" stroke-width="3" stroke="rgb(65,170,190)" />
	<line x1="460" y1="1575" x2="570" y2="1575" stroke-width="3" stroke="rgb(65,170,190)" />
	<line x1="582.5" y1="1562.5" x2="557.5" y2="1587.5" stroke-width="8.33333" stroke="rgb(65,170,190)" />
	<line x1="582.5" y1="1587.5" x2="557.5" y2="1562.5" stroke-width="8.33333" stroke="rgb(65,170,190)" />
	<line x1="350" y1="1525" x2="350" y2="925" stroke-width="3" stroke="rgb(65,170,190)" />
	<line x1="350" y1="925" x2="460" y2="925" stroke-width="3" stroke="rgb(65,170,190)" />
	<line x1="472.5" y1="912.5" x2="447.5" y2="937.5" stroke-width="8.33333" stroke="rgb(65,170,190)" />
	<line x1="472.5" y1="937.5" x2="447.5" y2="912.5" stroke-width="8.33333" stroke="rgb(65,170,190)" />
	<polygon points="255.625,4225 246.32,4220.41 244.828,4210.14 237.586,4217.57 227.359,4215.82 232.188,4225 227.359,4234.18 237.586,4232.43 244.828,4239.86 246.32,4229.59 255.625,4225 " fill="rgb(255,255,255)" stroke-width="6.25" stroke="rgb(65,170,190)" />
</svg>
